/* XPM */
static char * calender_xpm[] = {
"32 32 386 2",
"  	c None",
". 	c #3A3A39",
"+ 	c #383838",
"@ 	c #373637",
"# 	c #353435",
"$ 	c #323333",
"% 	c #303131",
"& 	c #2E2F2F",
"* 	c #2D2D2D",
"= 	c #2B2C2B",
"- 	c #292929",
"; 	c #272728",
"> 	c #262525",
", 	c #232323",
"' 	c #222222",
") 	c #202020",
"! 	c #1E1E1E",
"~ 	c #1C1C1C",
"{ 	c #1B1B1B",
"] 	c #191918",
"^ 	c #171717",
"/ 	c #151515",
"( 	c #141313",
"_ 	c #111111",
": 	c #0F0F10",
"< 	c #0E0D0E",
"[ 	c #0C0C0C",
"} 	c #0A0A0A",
"| 	c #080808",
"1 	c #070707",
"2 	c #050505",
"3 	c #393939",
"4 	c #373737",
"5 	c #353536",
"6 	c #333333",
"7 	c #313231",
"8 	c #30302F",
"9 	c #2E2E2D",
"0 	c #2C2C2C",
"a 	c #2A2A2A",
"b 	c #292828",
"c 	c #272627",
"d 	c #242525",
"e 	c #212121",
"f 	c #1F1F1F",
"g 	c #1D1D1D",
"h 	c #1C1B1B",
"i 	c #1A191A",
"j 	c #181818",
"k 	c #161616",
"l 	c #141415",
"m 	c #121212",
"n 	c #101110",
"o 	c #0E0E0F",
"p 	c #0D0D0D",
"q 	c #0B0B0B",
"r 	c #090909",
"s 	c #060606",
"t 	c #040404",
"u 	c #363636",
"v 	c #343435",
"w 	c #323233",
"x 	c #303031",
"y 	c #2B2B2B",
"z 	c #292A2A",
"A 	c #272727",
"B 	c #252526",
"C 	c #242423",
"D 	c #1E1E1F",
"E 	c #1C1D1D",
"F 	c #181919",
"G 	c #171616",
"H 	c #131313",
"I 	c #100F10",
"J 	c #0D0E0D",
"K 	c #070607",
"L 	c #050405",
"M 	c #030303",
"N 	c #363635",
"O 	c #333334",
"P 	c #323232",
"Q 	c #303030",
"R 	c #2E2E2E",
"S 	c #2A2B2B",
"T 	c #282829",
"U 	c #242425",
"V 	c #1D1E1E",
"W 	c #1B1C1B",
"X 	c #171818",
"Y 	c #141414",
"Z 	c #121312",
"` 	c #111011",
" .	c #0F0E0F",
"..	c #0A0909",
"+.	c #070807",
"@.	c #060506",
"#.	c #040403",
"$.	c #020202",
"%.	c #363736",
"&.	c #353434",
"*.	c #2A2A29",
"=.	c #282827",
"-.	c #242424",
";.	c #1E1F1E",
">.	c #181918",
",.	c #131413",
"'.	c #111211",
").	c #0F1010",
"!.	c #0D0E0E",
"~.	c #0C0C0B",
"{.	c #090808",
"].	c #050504",
"^.	c #010001",
"/.	c #343333",
"(.	c #313232",
"_.	c #2F3030",
":.	c #2E2D2E",
"<.	c #252425",
"[.	c #232223",
"}.	c #19191A",
"|.	c #121213",
"1.	c #0F0F0F",
"2.	c #0C0D0D",
"3.	c #060605",
"4.	c #000000",
"5.	c #999999",
"6.	c #DADADA",
"7.	c #DBDBDB",
"8.	c #DCDCDC",
"9.	c #DEDEDE",
"0.	c #DFDEDF",
"a.	c #E0E0E0",
"b.	c #E1E1E1",
"c.	c #E3E3E3",
"d.	c #E4E4E4",
"e.	c #E5E5E5",
"f.	c #E6E7E6",
"g.	c #E8E7E7",
"h.	c #E9E9E9",
"i.	c #E9EAEA",
"j.	c #EBEBEB",
"k.	c #ECECEC",
"l.	c #EDEDED",
"m.	c #EFEFEE",
"n.	c #F0F0F0",
"o.	c #F1F1F1",
"p.	c #F3F3F2",
"q.	c #F4F3F4",
"r.	c #F5F5F5",
"s.	c #F7F6F6",
"t.	c #F7F8F8",
"u.	c #F8F8F9",
"v.	c #FAF9FA",
"w.	c #FBFBFC",
"x.	c #DEDDDD",
"y.	c #DEDFDF",
"z.	c #E2E2E3",
"A.	c #E4E5E4",
"B.	c #E6E6E6",
"C.	c #E9E9E8",
"D.	c #E9EAE9",
"E.	c #EBEAEB",
"F.	c #EDEDEE",
"G.	c #EFEFEF",
"H.	c #F3F2F3",
"I.	c #F5F5F4",
"J.	c #F6F6F6",
"K.	c #F7F7F7",
"L.	c #F9F8F9",
"M.	c #FAFAFA",
"N.	c #FBFBFB",
"O.	c #FCFCFC",
"P.	c #DDDDDD",
"Q.	c #DFDFDE",
"R.	c #DFE0E0",
"S.	c #E2E2E2",
"T.	c #E3E3E4",
"U.	c #E7E7E7",
"V.	c #E8E8E9",
"W.	c #EAE9EA",
"X.	c #EFEEEF",
"Y.	c #F2F2F2",
"Z.	c #F3F4F3",
"`.	c #F6F5F6",
" +	c #F9F9FA",
".+	c #FDFDFE",
"++	c #DFDEDE",
"@+	c #E0E1E1",
"#+	c #E3E4E3",
"$+	c #E4E4E5",
"%+	c #E5E6E6",
"&+	c #E8E8E8",
"*+	c #ECECEB",
"=+	c #EEEFEE",
"-+	c #EFEFF0",
";+	c #F3F3F4",
">+	c #F4F5F4",
",+	c #F5F6F5",
"'+	c #F9F8F8",
")+	c #FBFAFA",
"!+	c #FDFDFD",
"~+	c #FFFEFE",
"{+	c #E0DFDF",
"]+	c #E0E0E1",
"^+	c #A4A4A3",
"/+	c #474747",
"(+	c #C3C3C3",
"_+	c #EEEEEE",
":+	c #F0EFF0",
"<+	c #F0F1F1",
"[+	c #D5D5D5",
"}+	c #4E4E4E",
"|+	c #505050",
"1+	c #F9F9F9",
"2+	c #FAFBFB",
"3+	c #FCFCFB",
"4+	c #FEFEFE",
"5+	c #FEFFFF",
"6+	c #DFDFDF",
"7+	c #E2E1E2",
"8+	c #E5E4E4",
"9+	c #939393",
"0+	c #6E6E6F",
"a+	c #A0A0A0",
"b+	c #B3B3B3",
"c+	c #D2D2D2",
"d+	c #F0F1F0",
"e+	c #E6E6E5",
"f+	c #A8A8A8",
"g+	c #FBFCFB",
"h+	c #FDFCFD",
"i+	c #FFFFFF",
"j+	c #E3E3E2",
"k+	c #E7E8E8",
"l+	c #EAEAEA",
"m+	c #CECDCE",
"n+	c #838383",
"o+	c #878787",
"p+	c #010101",
"q+	c #F7F7F6",
"r+	c #F7F7F8",
"s+	c #8E8F8F",
"t+	c #FCFDFD",
"u+	c #FDFEFE",
"v+	c #E2E1E1",
"w+	c #E2E3E3",
"x+	c #E8E7E8",
"y+	c #EBEAEA",
"z+	c #828282",
"A+	c #F2F1F2",
"B+	c #F3F3F3",
"C+	c #3E3E3E",
"D+	c #F6F7F7",
"E+	c #FAFBFA",
"F+	c #414141",
"G+	c #FEFEFD",
"H+	c #FDFDFC",
"I+	c #E4E3E4",
"J+	c #EBEBEC",
"K+	c #D4D4D4",
"L+	c #565656",
"M+	c #D7D6D6",
"N+	c #F3F2F2",
"O+	c #626262",
"P+	c #F8F8F7",
"Q+	c #646464",
"R+	c #FDFEFD",
"S+	c #FCFCFD",
"T+	c #FBFBFA",
"U+	c #E7E8E7",
"V+	c #BEBEBF",
"W+	c #737373",
"X+	c #F9F9F8",
"Y+	c #FBFCFC",
"Z+	c #FCFDFC",
"`+	c #767676",
" @	c #EAEAE9",
".@	c #EAEBEB",
"+@	c #C3C4C3",
"@@	c #B9B9B9",
"#@	c #A4A4A4",
"$@	c #484849",
"%@	c #737473",
"&@	c #FEFDFE",
"*@	c #767677",
"=@	c #FAF9F9",
"-@	c #F8F8F8",
";@	c #E7E7E8",
">@	c #EEEFEF",
",@	c #F1F2F1",
"'@	c #3B3B3B",
")@	c #F6F6F5",
"!@	c #646363",
"~@	c #F9FAF9",
"{@	c #E8E9E8",
"]@	c #E9E9EA",
"^@	c #F1F1F0",
"/@	c #707070",
"(@	c #3F3F3F",
"_@	c #393A3A",
":@	c #3A3A3A",
"<@	c #F9FAFA",
"[@	c #F7F8F7",
"}@	c #ECEDED",
"|@	c #EFF0EF",
"1@	c #F1F0F1",
"2@	c #8A8A8A",
"3@	c #8D8D8D",
"4@	c #EDEDEC",
"5@	c #727271",
"6@	c #A9A9A9",
"7@	c #BABABA",
"8@	c #A4A4A5",
"9@	c #A7A7A7",
"0@	c #AFB0B0",
"a@	c #AEAFAE",
"b@	c #F4F3F3",
"c@	c #EBECEB",
"d@	c #EDECED",
"e@	c #EDEEEE",
"f@	c #101010",
"g@	c #B7B7B7",
"h@	c #4F4F4F",
"i@	c #F3F4F4",
"j@	c #ECECED",
"k@	c #EEEEED",
"l@	c #F2F2F3",
"m@	c #F4F4F4",
"n@	c #F6F6F7",
"o@	c #FDFCFC",
"p@	c #F6F5F5",
"q@	c #EDECEC",
"r@	c #F8F7F8",
"s@	c #FCFBFB",
"t@	c #FCFBFC",
"u@	c #F1F2F2",
"v@	c #636363",
"w@	c #313131",
"x@	c #9A9A99",
"y@	c #3C3D3D",
"z@	c #404040",
"A@	c #FEFDFD",
"B@	c #3E3F3E",
"C@	c #444444",
"D@	c #4C4C4C",
"E@	c #535353",
"F@	c #4B4B4B",
"G@	c #535253",
"H@	c #6D6D6D",
"I@	c #464646",
"J@	c #2F2F2F",
"K@	c #919292",
"L@	c #0E0E0E",
"M@	c #3D3D3D",
"N@	c #454546",
"O@	c #2B2A2A",
"P@	c #3C3C3C",
"Q@	c #1A1A1A",
"R@	c #252525",
"S@	c #A6A6A5",
"T@	c #B5B5B5",
"U@	c #F5F4F4",
"V@	c #9B9B9B",
"W@	c #353535",
"X@	c #AAAAA9",
"Y@	c #BBBBBA",
"Z@	c #6E6E6E",
"`@	c #515151",
" #	c #ACACAC",
".#	c #4A4A4A",
"+#	c #494949",
"@#	c #414241",
"##	c #F0F0F1",
"$#	c #E9E8E9",
"%#	c #F6F7F6",
"&#	c #F4F4F3",
"*#	c #F2F1F1",
"=#	c #E8E9E9",
"-#	c #FAFAF9",
";#	c #FFFFFE",
">#	c #F4F4F5",
",#	c #F2F3F3",
"'#	c #F2F2F1",
")#	c #EAEAEB",
"!#	c #E7E6E6",
"~#	c #B2B2B2",
"  . + @ # $ % & * = - ; > , ' ) ! ~ { ] ^ / ( _ : < [ } | 1 2   ",
"  3 4 5 6 7 8 9 0 a b c d , e f g h i j k l m n o p q r 1 s t   ",
"  + u v w x & * y z A B C ' ) D E { F G / H _ I J [ } | K L M   ",
"  4 N O P Q R 0 S T A U , e f V W i X k Y Z `  .p q ..+.@.#.$.  ",
"  %.&.$ x & * y *.=.> -.' ) ;.~ { >.^ / ,.'.).!.~.} {.K ].M ^.  ",
"  5 /.(._.:.0 a T A <.[.e f V { }.j k Y |._ 1.2.q r +.3.t $.4.  ",
"  5.6.7.8.9.0.a.b.c.d.e.f.g.h.i.j.k.l.m.n.o.p.q.r.s.t.u.v.w.5.  ",
"  5.7.8.x.y.a.b.z.c.A.B.g.C.D.E.k.F.G.n.o.H.q.I.J.K.L.M.N.O.5.  ",
"  5.8.P.Q.R.b.S.T.A.B.U.V.W.j.k.l.X.n.o.Y.Z.I.`.K.L. +N.O..+5.  ",
"  5.P.++a.@+S.#+$+%+U.&+h.j.*+l.=+-+o.Y.;+>+,+K.'+ +)+O.!+~+5.  ",
"  5.++{+]+S.c.^++ H $.1./+(+l._+:+<+[+}+[ p |+8.1+2+3+!+4+5+5.  ",
"  5.6+a.7+c.8+9+0+a+b+5.a p c+G.d+e+) - f+f+- -.n.g+h+4+i+!+5.  ",
"  5.b.b.j+d.e.B.k+h.l+j.m+4.n+n.Y.o+p+c+q+r+[+p+s+t+u+i+!+t+5.  ",
"  5.v+w+d.e.B.x+h.y+j.k.6+4.z+A+B+C+4 D+K.1+E+3 F+4+i+G+H+N.5.  ",
"  5.w+I+e.B.&+h.l+J+k.K+L+Y M+N+q./ O+P+1+M.N.Q+^ 5+R+S+g+T+5.  ",
"  5.#+e.f.U+&+l+j.y 4.4.j V+Y.q.r.t W+X+M.Y+Z+`+3.4+!+O.M.1+5.  ",
"  5.e.B.U.&+ @.@k.+@@@#@$@} b+r.J.t %@v.N.O.&@*@2 !+O.M.=@-@5.  ",
"  5.B.;@h.l+j.k.F.>@n.o.,@'@A )@K./ !@T+O..+5+Q+^ 3+E+~@-@K.5.  ",
"  5.U.{@]@.@k.l.m.G.^@Y.;+/@t K.-@(@_@O.u+4+5+:@F+2+<@u.[@J.5.  ",
"  5.&+ @.@*+}@_+|@1@,@B+B++ - -@~@2@$.7.4+i+6.$.3@ +u.K.`.>+5.  ",
"  5.h.y+j.4@_+/@5@6@7@8@/+4.9@1+M.X.f y 0@a@y ' X.'+[@J.r.b@5.  ",
"  5.l+c@d@e@G.a+'@f@$.m /+g@1+M.Y+!+9.|+[ [ h@8.1+r+J.r.i@B+5.  ",
"  5.J+j@k@G.n.A+l@m@r.n@[@X+M.g+o@G+i+4+H+N.M.1+-@J.p@m@l@o.5.  ",
"  5.q@k@G.n.o.N+m@r.J.r@'+M.s@t+R+i+4+t+t@E+1+t.D+r.m@B+u@n.5.  ",
"  5.1@Y.v@w@x@y@-@z@2+O.A@B@4+.+O.2+=@-@C@O+D@E@F@G@~ H@l.k.5.  ",
"  5.u@B+:@ @I@J@K@L@7@M@N@O@P@Q@j R@S@r@d.T@B@C+C+C+'@L+k.j.5.  ",
"  5.N+U@O+6 V@W@X@, Y@M@I@a '@M@Z@P@P+J.`@ #.#`@+#}+@#L+j.l+5.  ",
"  5.m@`.s.P+1+E+O.H+4+i+4+H+N.M.X+[@n@r.i@B+o.##G._+4@j. @$#5.  ",
"  5.,+K.t.1+M.s@H+4+i+&@o@N.T+1+r@%#,+&#H.*#d+G.e@}@J+l+=#x+5.  ",
"  5.,+K.t.1+M.s@H+4+i+&@o@N.T+1+r@%#,+&#H.*#d+G.e@}@J+l+=#x+5.  ",
"  5.s.K.X+-#N.O.u+;#4+!+t@M.1+-@%#,+>#,#'#^@G.k@l.J+)#h.x+!#5.  ",
"  ~#5.5.5.5.5.5.5.5.5.5.5.5.5.5.5.5.5.5.5.5.5.5.5.5.5.5.5.5.~#  "};
