/* XPM */
static char * configuration_xpm[] = {
"32 32 185 2",
"  	c None",
". 	c #6F6F6F",
"+ 	c #6B6B6B",
"@ 	c #C1C1C1",
"# 	c #B3B3B3",
"$ 	c #777777",
"% 	c #8E8E8E",
"& 	c #CDCDCD",
"* 	c #C0C0C0",
"= 	c #BFBFC0",
"- 	c #ADADAD",
"; 	c #6A6A6A",
"> 	c #818281",
", 	c #C3C3C3",
"' 	c #BFBFBF",
") 	c #BEBEBE",
"! 	c #AFAFB0",
"~ 	c #646464",
"{ 	c #E5E5E5",
"] 	c #575757",
"^ 	c #7F7F7F",
"/ 	c #D0CFCF",
"( 	c #BEBDBE",
"_ 	c #B8B9B9",
": 	c #6D6D6D",
"< 	c #DADADA",
"[ 	c #5F5F5F",
"} 	c #8A8A8A",
"| 	c #878787",
"1 	c #606060",
"2 	c #929292",
"3 	c #CBCCCC",
"4 	c #BBBBBB",
"5 	c #717171",
"6 	c #E4E4E4",
"7 	c #C6C6C6",
"8 	c #D7D7D7",
"9 	c #CACACA",
"0 	c #A7A7A7",
"a 	c #909090",
"b 	c #C9C9C9",
"c 	c #BABABA",
"d 	c #E3E3E3",
"e 	c #919191",
"f 	c #CFCFCF",
"g 	c #C2C1C1",
"h 	c #C1C0C1",
"i 	c #A6A5A5",
"j 	c #9E9E9E",
"k 	c #C3C4C4",
"l 	c #B9B9B9",
"m 	c #707070",
"n 	c #818181",
"o 	c #C3C3C4",
"p 	c #C0C1C1",
"q 	c #C0C0BF",
"r 	c #A5A4A4",
"s 	c #979797",
"t 	c #969696",
"u 	c #BABABB",
"v 	c #B8B9B8",
"w 	c #A0A0A0",
"x 	c #C2C2C1",
"y 	c #CCCCCC",
"z 	c #CBCBCB",
"A 	c #CCCBCB",
"B 	c #C4C5C5",
"C 	c #B9BABA",
"D 	c #B8B7B7",
"E 	c #B7B7B7",
"F 	c #808080",
"G 	c #B8B8B8",
"H 	c #B6B6B6",
"I 	c #B5B5B5",
"J 	c #9D9D9D",
"K 	c #D6D6D6",
"L 	c #BDBDBD",
"M 	c #B6B6B5",
"N 	c #B4B4B4",
"O 	c #9B9B9B",
"P 	c #737373",
"Q 	c #C2C2C2",
"R 	c #DBDBDB",
"S 	c #5C5C5C",
"T 	c #B4B5B4",
"U 	c #B2B2B2",
"V 	c #ABACAB",
"W 	c #D9D9D9",
"X 	c #515151",
"Y 	c #ABABAB",
"Z 	c #D5D5D5",
"` 	c #A4A4A4",
" .	c #585858",
"..	c #6E6E6E",
"+.	c #ACACAB",
"@.	c #8B8B8B",
"#.	c #666666",
"$.	c #EB2D00",
"%.	c #97270D",
"&.	c #ACACAD",
"*.	c #ACABAB",
"=.	c #969596",
"-.	c #B14B33",
";.	c #FC4B22",
">.	c #F32E00",
",.	c #C48274",
"'.	c #9F9F9F",
").	c #ACABAC",
"!.	c #ABABAA",
"~.	c #AAAAA9",
"{.	c #949494",
"].	c #845F57",
"^.	c #DB5030",
"/.	c #FC6846",
"(.	c #FC4318",
"_.	c #EA2D00",
":.	c #782A17",
"<.	c #B2B3B3",
"[.	c #AAAAAA",
"}.	c #A9A9A9",
"|.	c #A8A8A8",
"1.	c #939393",
"2.	c #5E5E5E",
"3.	c #FC603B",
"4.	c #FC5933",
"5.	c #FC3D10",
"6.	c #FC3000",
"7.	c #E52B00",
"8.	c #3F3F3F",
"9.	c #ABAAAA",
"0.	c #A6A6A6",
"a.	c #FC623E",
"b.	c #FC390B",
"c.	c #CA2B06",
"d.	c #8A240C",
"e.	c #191919",
"f.	c #BCBCBC",
"g.	c #AFAFAF",
"h.	c #A6A7A6",
"i.	c #A5A5A5",
"j.	c #908F90",
"k.	c #5D5D5D",
"l.	c #FC3D11",
"m.	c #461E14",
"n.	c #A5A6A5",
"o.	c #A5A5A4",
"p.	c #A3A4A3",
"q.	c #A2A2A2",
"r.	c #8F8E8E",
"s.	c #0F0F0F",
"t.	c #ACACAC",
"u.	c #A4A4A3",
"v.	c #A3A2A3",
"w.	c #A1A1A1",
"x.	c #A0A1A0",
"y.	c #8D8D8D",
"z.	c #5D5C5D",
"A.	c #9E9E9F",
"B.	c #8C8C8B",
"C.	c #545454",
"D.	c #B9BAB9",
"E.	c #7B7C7B",
"F.	c #696969",
"G.	c #686868",
"H.	c #845F56",
"I.	c #DB5333",
"J.	c #FC6542",
"K.	c #4F4F4F",
"L.	c #7C7C7C",
"M.	c #4C4C4C",
"N.	c #DB5C3F",
"O.	c #FC6644",
"P.	c #FC5B36",
"Q.	c #656565",
"R.	c #727272",
"S.	c #7A7A7A",
"T.	c #7E7E7E",
"U.	c #FC6E4C",
"V.	c #FB390B",
"W.	c #8A8B8B",
"X.	c #FC5128",
"Y.	c #FC481D",
"Z.	c #C92B06",
"`.	c #434343",
" +	c #363636",
"                                                                ",
"                  . .                                           ",
"                + @ # $                                         ",
"                % & * = $                             - ;       ",
"                > , ' ) ! ~                         , { * ]     ",
"                  ^ / ( _ :                       ' { < [       ",
"      } | 1         2 3 4 5                     , 6 7 [         ",
"    } 8 9 0 .       a b c 5                   ' d 8 [           ",
"    e f g h i [     j k l m                 , d , [             ",
"    n o p q ' r s t u c v w $             ' 6 8 [               ",
"      . x y z A B u C v D E j $         , d , [                 ",
"        F e a 2 s E l G E H I J .     ' d K [                   ",
"                  s @ L M I N # O P Q R G S                     ",
"                    s @ I T # U V c W * X                       ",
"                      s * l U Y Q Z `  .                        ",
"                        ..) +.L Z E ; @..                       ",
"                      #.$.%.Q Z ` ; &.*.=.[                     ",
"                      -.;.>.,.E ; '.).!.~.{..                   ",
"                    ].^./.(._.:.4 <.Y [.}.|.1.2.                ",
"                  . ^.3.4.5.6.7.8.L 9.}.|.0 0.e .               ",
"                ].^.a.4.b.c.d.e.    f.g.0 h.i.r j.k.            ",
"              . ^.3.4.l.c.m.        P 4 0 n.o.p.q.r..           ",
"            ].^.a.4.b.c.s.             .4 t.u.v.w.x.y.z.        ",
"          . ^.3.4.l.c.m.                ..c p.q.w.w A.B..       ",
"        ].^.a.4.b.c.s.                    C.D.}.w y.....E. .    ",
"      . ^.3.4.l.c.m.                        F.l w G.    1.+ .   ",
"    H.I.J.4.b.c.s.                            K.l L.    g.P M.  ",
"  . N.O.P.l.c.m.                                Q.# R.1.S.T.M.  ",
"  #./.U.V.c.s.                                    C.{.W.F : .   ",
"  1 X.Y.Z.m.                                        . . . .     ",
"    `. +s.                                                      ",
"                                                                "};
