/* XPM */
static char * data_xpm[] = {
"32 32 207 2",
"  	c None",
". 	c #999999",
"+ 	c #B2B2B2",
"@ 	c #EDEDED",
"# 	c #EEEEED",
"$ 	c #EFEEEF",
"% 	c #EFEFEF",
"& 	c #F0F0EF",
"* 	c #F0F0F0",
"= 	c #F0F0F1",
"- 	c #F1F1F1",
"; 	c #F1F0F1",
"> 	c #F1F0F0",
", 	c #F0EFF0",
"' 	c #EFEFF0",
") 	c #F0F1F1",
"! 	c #EEEEEE",
"~ 	c #EFEFEE",
"{ 	c #F1F2F2",
"] 	c #F2F1F1",
"^ 	c #F2F1F2",
"/ 	c #F2F2F2",
"( 	c #F2F2F1",
"_ 	c #E5E5E5",
": 	c #F0F1F0",
"< 	c #F3F2F3",
"[ 	c #F3F3F2",
"} 	c #F3F3F3",
"| 	c #F2F3F3",
"1 	c #F2F3F2",
"2 	c #F3F4F3",
"3 	c #F4F3F3",
"4 	c #F4F4F4",
"5 	c #F3F4F4",
"6 	c #F4F4F3",
"7 	c #F1F1F0",
"8 	c #F1F1F2",
"9 	c #F3F2F2",
"0 	c #F4F5F4",
"a 	c #F5F4F4",
"b 	c #F5F5F5",
"c 	c #F5F6F5",
"d 	c #F5F5F4",
"e 	c #F4F3F4",
"f 	c #F4F4F5",
"g 	c #F5F4F5",
"h 	c #F6F5F6",
"i 	c #F6F6F6",
"j 	c #F7F6F6",
"k 	c #F6F7F6",
"l 	c #F6F7F7",
"m 	c #F7F7F7",
"n 	c #F7F7F8",
"o 	c #F8F8F8",
"p 	c #F8F8F7",
"q 	c #F7F6F7",
"r 	c #EFF0F0",
"s 	c #CCCCCC",
"t 	c #F7F7F6",
"u 	c #F9F8F8",
"v 	c #F8F9F9",
"w 	c #F9F8F9",
"x 	c #F8F8F9",
"y 	c #F8F9F8",
"z 	c #F8F7F8",
"A 	c #F5F6F6",
"B 	c #F7F8F7",
"C 	c #F9F9F9",
"D 	c #F9FAF9",
"E 	c #F9FAFA",
"F 	c #FAF9FA",
"G 	c #F9F9FA",
"H 	c #EFEEEE",
"I 	c #EDEEEE",
"J 	c #F5F5F6",
"K 	c #FAFAFA",
"L 	c #FBFBFB",
"M 	c #FAFAFB",
"N 	c #FAFAF9",
"O 	c #F6F6F5",
"P 	c #FBFCFC",
"Q 	c #FCFCFC",
"R 	c #FBFBFC",
"S 	c #FBFAFB",
"T 	c #F8F7F7",
"U 	c #F6F6F7",
"V 	c #F1F2F1",
"W 	c #FAF9F9",
"X 	c #FDFDFC",
"Y 	c #FDFCFC",
"Z 	c #FBFAFA",
"` 	c #FDFDFD",
" .	c #FEFDFD",
"..	c #FEFEFE",
"+.	c #FDFDFE",
"@.	c #FCFDFD",
"#.	c #FBFCFB",
"$.	c #FBFBFA",
"%.	c #F9F9F8",
"&.	c #FFFFFF",
"*.	c #FAFBFA",
"=.	c #F7F8F8",
"-.	c #EEEFEF",
";.	c #C2C2C2",
">.	c #000000",
",.	c #A5A4A4",
"'.	c #717070",
").	c #979697",
"!.	c #9C9C9C",
"~.	c #505050",
"{.	c #EEEFEE",
"].	c #A6A6A6",
"^.	c #A5A5A5",
"/.	c #EBEBEB",
"(.	c #4E4E4D",
"_.	c #E7E7E7",
":.	c #E8E8E8",
"<.	c #0C0C0C",
"[.	c #BAB9B9",
"}.	c #B1B1B1",
"|.	c #4A4A4A",
"1.	c #494949",
"2.	c #B6B6B6",
"3.	c #EAEBEB",
"4.	c #ACACAC",
"5.	c #EDEDEE",
"6.	c #F3F3F4",
"7.	c #E5E4E5",
"8.	c #141414",
"9.	c #1A1A1A",
"0.	c #121212",
"a.	c #EAEAEA",
"b.	c #ECECEC",
"c.	c #191919",
"d.	c #111111",
"e.	c #E3E3E3",
"f.	c #EDECED",
"g.	c #C0C0C1",
"h.	c #A3A3A2",
"i.	c #6F6F6F",
"j.	c #A2A2A1",
"k.	c #7F7F7F",
"l.	c #8B8B8C",
"m.	c #979897",
"n.	c #656565",
"o.	c #BABABB",
"p.	c #7D7D7D",
"q.	c #898989",
"r.	c #949393",
"s.	c #626262",
"t.	c #ECEDED",
"u.	c #F0EFEF",
"v.	c #EEEDEE",
"w.	c #EDEDEC",
"x.	c #EBECEB",
"y.	c #EDEEED",
"z.	c #ECEDEC",
"A.	c #EAEAE9",
"B.	c #E8E8E9",
"C.	c #ECEBEB",
"D.	c #ECECED",
"E.	c #EEEEEF",
"F.	c #EAE9E9",
"G.	c #E7E8E8",
"H.	c #EAEBEA",
"I.	c #EBEBEC",
"J.	c #EEEDED",
"K.	c #EBEAEA",
"L.	c #E8E9E9",
"M.	c #E8E8E7",
"N.	c #E9E9EA",
"O.	c #E9E9E9",
"P.	c #E7E7E8",
"Q.	c #E6E7E6",
"R.	c #ECECEB",
"S.	c #ECEBEC",
"T.	c #EBEAEB",
"U.	c #E8E9E8",
"V.	c #E6E6E7",
"W.	c #E6E5E6",
"X.	c #E9E8E8",
"Y.	c #EAE9EA",
"Z.	c #E9EAEA",
"`.	c #EAEAEB",
" +	c #E8E7E8",
".+	c #E6E6E6",
"++	c #E7E6E7",
"@+	c #E7E8E7",
"#+	c #E4E4E4",
"$+	c #E6E6E5",
"%+	c #E6E7E7",
"&+	c #E8E7E7",
"*+	c #E7E7E6",
"=+	c #E4E5E5",
"-+	c #E3E4E3",
";+	c #E5E6E5",
">+	c #E5E6E6",
",+	c #E5E5E6",
"'+	c #E5E5E4",
")+	c #E3E2E2",
"!+	c #E2E2E2",
"~+	c #E4E3E4",
"{+	c #E6E5E5",
"]+	c #E4E4E5",
"^+	c #E4E3E3",
"/+	c #E2E3E2",
"(+	c #E1E1E1",
"    . . . . . . . . . . . . . . . . . . . . . +                 ",
"    . @ # $ % & * * = - ; > - ; > * , ' % % ) . +               ",
"    . ! ~ % & > - { ] ^ / / / ( - - - ) % % ) . _ +             ",
"    . ~ % : - { ( < [ } } } } | | | / { ) % ) . ! _ +           ",
"    . , ; - / 1 } 2 3 4 4 4 4 5 6 } } / ^ % ) . $ ! _ +         ",
"    . 7 8 ( 9 6 6 0 a b b b c b d 4 e } [ % ) . % % % _ +       ",
"    . - / 9 2 f g h i i i j i i i b g 0 } % ) . . . . . . +     ",
"    . ( 9 6 a b c k l m n o p m q j h b 4 r ) , s s s s s .     ",
"    . | 6 4 b i t m o u v w x y o z m A b 4 } / { _ _ _ _ .     ",
"    . } 6 b i k B o C D E F G C o o m t c b 4 } { - * H I .     ",
"    . 2 a J q m o C F K L L M K N v o m i O a } / 8 : % ! .     ",
"    . 4 d i q o C C M L P Q R L S K C T U O b 4 } V > ' % .     ",
"    . 4 b i m x W K L Q Q X Y Q L K C o m i b 4 } / - * % .     ",
"    . 4 b i n o E Z Q `  ...+.@.#.$.G u m k b 4 } / - * % .     ",
"    . 4 b i T %.K K Q ` ..&...X P *.F y =.i J 4 } / - * -..     ",
"    . } 4 4 ;.>.,.'.).' !.~.{.W >.].>.^.>./.. (._.> & % ! .     ",
"    . 9 2 f b >.l :.<.o [.= }.y |.m >.A 1.4 2.3.4.* ' ! 5..     ",
"    . { | 6.a >.c 7.8.* 9.>.0.a.t i >.b 4 b.c.>.d.e.% ! f..     ",
"    . - / } g.>.h.i.j.k.l.l m.n.i o.>.[.2 p.q.- r.s.H @ t..     ",
"    . = - / | } 2 a 0 b b b b b b f 4 2 9 ^ ] - u.% v.w.b..     ",
"    . , : - 8 [ } 3 4 4 4 4 a 5 4 2 } 1 ] - ) ' % ! @ @ x..     ",
"    . f.@ y.! ! ~ u.% * , & u.& * % % H ! 5.z.f.b./.a.A.B..     ",
"    . C.b.D.@ @ ! ! E.% -.E.$ {.~ ! ! I @ w.b.C./.a.F.B.G..     ",
"    . H.I.b.b.b.@ @ J.y.I @ @ I @ @ @ b.b././.K.a.A.L.M._..     ",
"    . N.K.a./.I.b.b.D.z.b.f.@ b.z.b.b.I./.H.K.O.O.O.P._.Q..     ",
"    . O.O.A.a.a.H./.C././.R.S./././.T.a.a.N.O.U.:.P._.V.W..     ",
"    . M.X.O.O.O.Y.Z.a.H.a.H.`.a.a.a.Z.N.O.O.:. +_..+.+_ 7..     ",
"    . ++_.G.M.:.L.U.O.Y.F.N.F.O.O.L.U.U.:.@+@+V.Q..+_ #+#+.     ",
"    . $+.+V.%+_.@+:.G.:.:.:.:.U.:.:. +&+*+_..+$+_ =+#+-+e..     ",
"    . 7._ ;+.+.+V._._._._._._._._.%+++.+>+.+,+7.'+e.e.)+!+.     ",
"    . ~+#+_ _ ,+W.{+.+.+>+.+W..+>+.+,+_ _ _ ]+^+e.e./+!+(+.     ",
"    . . . . . . . . . . . . . . . . . . . . . . . . . . . .     "};
