/* XPM */
static char * delete_xpm[] = {
"32 32 238 2",
"  	c None",
". 	c #999999",
"+ 	c #B2B2B2",
"@ 	c #EDEDED",
"# 	c #EEEEED",
"$ 	c #EFEEEF",
"% 	c #EFEFEF",
"& 	c #F0F0EF",
"* 	c #F0F0F0",
"= 	c #F0F0F1",
"- 	c #F1F1F1",
"; 	c #F1F0F1",
"> 	c #F1F0F0",
", 	c #F0EFF0",
"' 	c #EFEFF0",
") 	c #F0F1F1",
"! 	c #EEEEEE",
"~ 	c #EFEFEE",
"{ 	c #F1F2F2",
"] 	c #F2F1F1",
"^ 	c #F2F1F2",
"/ 	c #F2F2F2",
"( 	c #F2F2F1",
"_ 	c #E5E5E5",
": 	c #F0F1F0",
"< 	c #F3F2F3",
"[ 	c #F3F3F2",
"} 	c #F3F3F3",
"| 	c #F2F3F3",
"1 	c #F2F3F2",
"2 	c #F3F4F3",
"3 	c #F4F3F3",
"4 	c #F4F4F4",
"5 	c #F3F4F4",
"6 	c #F4F4F3",
"7 	c #F1F1F0",
"8 	c #F1F1F2",
"9 	c #F3F2F2",
"0 	c #F4F5F4",
"a 	c #F5F4F4",
"b 	c #F5F5F5",
"c 	c #F5F6F5",
"d 	c #F5F5F4",
"e 	c #F4F3F4",
"f 	c #F4F4F5",
"g 	c #F5F4F5",
"h 	c #F6F5F6",
"i 	c #F6F6F6",
"j 	c #F7F6F6",
"k 	c #F6F7F6",
"l 	c #F6F7F7",
"m 	c #F7F7F7",
"n 	c #F7F7F8",
"o 	c #F8F8F8",
"p 	c #F8F8F7",
"q 	c #F7F6F7",
"r 	c #EFF0F0",
"s 	c #CCCCCC",
"t 	c #F7F7F6",
"u 	c #F9F8F8",
"v 	c #F8F9F9",
"w 	c #F9F8F9",
"x 	c #F8F8F9",
"y 	c #F8F9F8",
"z 	c #F8F7F8",
"A 	c #F5F6F6",
"B 	c #F9F5F5",
"C 	c #FBF9F9",
"D 	c #FCFCFC",
"E 	c #FDFDFD",
"F 	c #FEFDFD",
"G 	c #FEFEFE",
"H 	c #FDFDFE",
"I 	c #FCFDFD",
"J 	c #FBFCFB",
"K 	c #FBFBFA",
"L 	c #F9F9FA",
"M 	c #F8F7F7",
"N 	c #FAAEAE",
"O 	c #FE0B0B",
"P 	c #FD9999",
"Q 	c #FFFFFF",
"R 	c #FDFDFC",
"S 	c #FBFCFC",
"T 	c #FAFBFA",
"U 	c #FAF9FA",
"V 	c #F7F8F8",
"W 	c #F98888",
"X 	c #FE1212",
"Y 	c #FB4B4B",
"Z 	c #F4D9D9",
"` 	c #EEEFEF",
" .	c #F5F5F6",
"..	c #FE2829",
"+.	c #FF0000",
"@.	c #FD8484",
"#.	c #FEFEFD",
"$.	c #FDFEFE",
"%.	c #FCFCFD",
"&.	c #FCFBFB",
"*.	c #FAFAF9",
"=.	c #F9F7F7",
"-.	c #FB6868",
";.	c #F96F6F",
">.	c #EEEEEF",
",.	c #FD4040",
"'.	c #FE4141",
").	c #FCFDFC",
"!.	c #FBFBFC",
"~.	c #FAFAFA",
"{.	c #FD2C2C",
"].	c #F3F3F4",
"^.	c #F9C6C6",
"/.	c #FE0707",
"(.	c #FE3A3A",
"_.	c #FBFBFB",
":.	c #F9F8F7",
"<.	c #FE0C0C",
"[.	c #F3D8D7",
"}.	c #F9BDBD",
"|.	c #FE0000",
"1.	c #FD3738",
"2.	c #FBFAFB",
"3.	c #FAF8F8",
"4.	c #FD2A2A",
"5.	c #FE0101",
"6.	c #F5CACA",
"7.	c #EFF0EF",
"8.	c #F6F6F7",
"9.	c #FB9595",
"0.	c #FD3535",
"a.	c #F7A8A8",
"b.	c #F9B3B3",
"c.	c #F6B3B3",
"d.	c #EDEDEE",
"e.	c #F99D9D",
"f.	c #EDECED",
"g.	c #F6F6F5",
"h.	c #F99F9F",
"i.	c #F8A6A6",
"j.	c #EFEEEE",
"k.	c #ECEDED",
"l.	c #F5F3F3",
"m.	c #FC2928",
"n.	c #F3F0F0",
"o.	c #F0EFEF",
"p.	c #EEEDEE",
"q.	c #EDEDEC",
"r.	c #ECECEC",
"s.	c #FD2323",
"t.	c #EBECEB",
"u.	c #F1F2F1",
"v.	c #FC2B2B",
"w.	c #FC2424",
"x.	c #F0EBEC",
"y.	c #EBEBEC",
"z.	c #EBEAEA",
"A.	c #F5A7A7",
"B.	c #F5AAAA",
"C.	c #FC2323",
"D.	c #EEECEC",
"E.	c #EDEEED",
"F.	c #EBEBEB",
"G.	c #EAEAEA",
"H.	c #F86565",
"I.	c #F4BABA",
"J.	c #F2CACA",
"K.	c #FE0202",
"L.	c #F85959",
"M.	c #EDEBEB",
"N.	c #ECECEB",
"O.	c #EAE9E9",
"P.	c #F58282",
"Q.	c #F4A5A4",
"R.	c #F3AEAE",
"S.	c #F48787",
"T.	c #EAEAE9",
"U.	c #E8E8E9",
"V.	c #ECEBEB",
"W.	c #ECECED",
"X.	c #FD1818",
"Y.	c #F3A4A4",
"Z.	c #EEEFEE",
"`.	c #F1AFAF",
" +	c #FA3333",
".+	c #E7E8E8",
"++	c #EAEBEA",
"@+	c #F94949",
"#+	c #FD1515",
"$+	c #F0C5C5",
"%+	c #EDEEEE",
"&+	c #EECECE",
"*+	c #FC1919",
"=+	c #F47171",
"-+	c #E8E9E9",
";+	c #E8E8E7",
">+	c #E7E7E7",
",+	c #E9E9EA",
"'+	c #ECD4D5",
")+	c #F66C6C",
"!+	c #EDD3D4",
"~+	c #ECEDEC",
"{+	c #EBDEDD",
"]+	c #F56E6E",
"^+	c #F19494",
"/+	c #E9E3E3",
"(+	c #E9E9E9",
"_+	c #E7E7E8",
":+	c #E6E7E6",
"<+	c #E6E6E5",
"[+	c #E6E6E6",
"}+	c #E6E6E7",
"|+	c #E6E7E7",
"1+	c #E7E8E7",
"2+	c #E8E8E8",
"3+	c #E8E9E8",
"4+	c #E8E7E8",
"5+	c #E8E7E7",
"6+	c #E7E7E6",
"7+	c #E4E5E5",
"8+	c #E4E4E4",
"9+	c #E3E4E3",
"0+	c #E3E3E3",
"a+	c #E5E4E5",
"b+	c #E5E6E5",
"c+	c #E7E6E7",
"d+	c #E5E6E6",
"e+	c #E5E5E6",
"f+	c #E5E5E4",
"g+	c #E3E2E2",
"h+	c #E2E2E2",
"i+	c #E4E3E4",
"j+	c #E6E5E6",
"k+	c #E6E5E5",
"l+	c #E4E4E5",
"m+	c #E4E3E3",
"n+	c #E2E3E2",
"o+	c #E1E1E1",
"    . . . . . . . . . . . . . . . . . . . . . +                 ",
"    . @ # $ % & * * = - ; > - ; > * , ' % % ) . +               ",
"    . ! ~ % & > - { ] ^ / / / ( - - - ) % % ) . _ +             ",
"    . ~ % : - { ( < [ } } } } | | | / { ) % ) . ! _ +           ",
"    . , ; - / 1 } 2 3 4 4 4 4 5 6 } } / ^ % ) . $ ! _ +         ",
"    . 7 8 ( 9 6 6 0 a b b b c b d 4 e } [ % ) . % % % _ +       ",
"    . - / 9 2 f g h i i i j i i i b g 0 } % ) . . . . . . +     ",
"    . ( 9 6 a b c k l m n o p m q j h b 4 r ) , s s s s s .     ",
"    . | 6 4 b i t m o u v w x y o z m A b 4 } / { _ _ _ _ .     ",
"    . 4 b i n o B C D E F G H I J K L u m k b 4 } / - * % .     ",
"    . 4 b i M N O O P E G Q G R S T U y V W X Y Z / - * ` .     ",
"    . 4  .i m ..+.+.+.@.#.G $.%.&.K *.=.-.+.+.+.;./ - ' >..     ",
"    . 4 b i m ,.+.+.+.+.'.).R S !.~.=.{.+.+.+.+.;./ ; * % .     ",
"    . ].a h m ^./.+.+.+.+.(.J _._.:.{.+.+.+.+.<.[.( ; ' ! .     ",
"    . 2 4 b j m }.|.+.+.+.+.1.2.3.4.+.+.+.+.5.6./ 8 7 7.! .     ",
"    . } 4 4 h 8.M 9.|.+.+.+.+.0.{.+.+.+.+.5.a.[ / > & % ! .     ",
"    . 9 2 f b i l m b.|.+.+.+.+.+.+.+.+.5.c.} | - * ' ! d..     ",
"    . { | ].a b c q m e.|.+.+.+.+.+.+.5.a.} < { ) * % ! f..     ",
"    . - / } ].4 d b g.i h.+.+.+.+.+.+.i.2 9 / - > % j.@ k..     ",
"    . = - / | } 2 a 0 l.{.+.+.+.+.+.+.m.n.^ ] - o.% p.q.r..     ",
"    . , : - 8 [ } 3 4 {.+.+.+.+.+.+.+.+.s.- ) ' % ! @ @ t..     ",
"    . >.& ) ; u./ n.v.+.+.+.+.5.|.+.+.+.+.w.x.>.! @ r.y.z..     ",
"    . ! % ' * = > v.+.+.+.+.5.A.B.5.+.+.+.+.C.D.E.k.t.F.G..     ",
"    . @ # ~ % j.H.+.+.+.+.5.I.- ) J.K.+.+.+.+.L.M.N.F.G.O..     ",
"    . f.@ E.! P.+.+.+.+.5.Q.o.& * % R.K.+.+.+.+.S.F.G.T.U..     ",
"    . V.r.W.@ X.+.+.+.5.Y.>.$ Z.~ ! ! `.K.+.+.+. +G.O.U..+.     ",
"    . ++y.r.r.@++.+.#+$+%+@ @ %+@ @ @ r.&+*++.+.=+T.-+;+>+.     ",
"    . ,+z.G.F.'+)+)+!+~+r.f.@ r.~+r.r.y.F.{+]+^+/+(+_+>+:+.     ",
"    . <+[+}+|+>+1+2+.+2+2+2+2+3+2+2+4+5+6+>+[+<+_ 7+8+9+0+.     ",
"    . a+_ b+[+[+}+>+>+>+>+>+>+>+>+|+c+[+d+[+e+a+f+0+0+g+h+.     ",
"    . i+8+_ _ e+j+k+[+[+d+[+j+[+d+[+e+_ _ _ l+m+0+0+n+h+o+.     ",
"    . . . . . . . . . . . . . . . . . . . . . . . . . . . .     "};
