/* XPM */
static char * device_info_xpm[] = {
"32 32 431 2",
"  	c None",
". 	c #363636",
"+ 	c #2D2D2D",
"@ 	c #303030",
"# 	c #232323",
"$ 	c #323232",
"% 	c #5E5E5E",
"& 	c #3A3A3A",
"* 	c #070707",
"= 	c #161616",
"- 	c #373737",
"; 	c #474747",
"> 	c #030303",
", 	c #636363",
"' 	c #6E6E6E",
") 	c #272727",
"! 	c #757E84",
"~ 	c #9FD3FB",
"{ 	c #A9D8FB",
"] 	c #B3DDFC",
"^ 	c #BCDFFD",
"/ 	c #C1E2FD",
"( 	c #768087",
"_ 	c #969696",
": 	c #001B00",
"< 	c #001F00",
"[ 	c #003F00",
"} 	c #8CCAFB",
"| 	c #99D0FB",
"1 	c #A7D6FC",
"2 	c #B4DCFC",
"3 	c #BFE2FC",
"4 	c #C8E6FD",
"5 	c #D0E9FD",
"6 	c #D1E9FD",
"7 	c #CFE9FE",
"8 	c #5F907F",
"9 	c #002900",
"0 	c #007F00",
"a 	c #4F4F4F",
"b 	c #114D2A",
"c 	c #82C5FA",
"d 	c #91CCFA",
"e 	c #AEDAFC",
"f 	c #BBE0FC",
"g 	c #C9E6FC",
"h 	c #D5EBFD",
"i 	c #DEF0FD",
"j 	c #E0F1FD",
"k 	c #DDF0FD",
"l 	c #D4ECFD",
"m 	c #38504E",
"n 	c #082308",
"o 	c #0C330C",
"p 	c #2D952D",
"q 	c #2F962F",
"r 	c #319831",
"s 	c #339933",
"t 	c #359935",
"u 	c #3A9C3A",
"v 	c #3C9D3C",
"w 	c #3E9F3F",
"x 	c #40A040",
"y 	c #43A043",
"z 	c #47A347",
"A 	c #1F3B52",
"B 	c #76C0FA",
"C 	c #85C7FA",
"D 	c #94CDFB",
"E 	c #A3D5FB",
"F 	c #B2DCFC",
"G 	c #C0E2FD",
"H 	c #CFE9FD",
"I 	c #DDEFFE",
"J 	c #E9F5FE",
"K 	c #F0F8FE",
"L 	c #EAF6FE",
"M 	c #DDEFFD",
"N 	c #082408",
"O 	c #0B2E0B",
"P 	c #2E962D",
"Q 	c #309730",
"R 	c #329833",
"S 	c #359934",
"T 	c #379A37",
"U 	c #3B9D3B",
"V 	c #3D9E3D",
"W 	c #000000",
"X 	c #020303",
"Y 	c #0A0A0A",
"Z 	c #49A349",
"` 	c #666666",
" .	c #4C4C4C",
"..	c #678BA8",
"+.	c #77C1FA",
"@.	c #86C7FA",
"#.	c #95CEFA",
"$.	c #A5D6FC",
"%.	c #B3DCFC",
"&.	c #C2E3FD",
"*.	c #D2EAFD",
"=.	c #E1F1FE",
"-.	c #FFFFFF",
";.	c #E1F1FD",
">.	c #647B83",
",.	c #092409",
"'.	c #111111",
").	c #1F2020",
"!.	c #282827",
"~.	c #2F3030",
"{.	c #389B38",
"].	c #3D9D3C",
"^.	c #3F9E3F",
"/.	c #040403",
"(.	c #0A0B0B",
"_.	c #4AA44A",
":.	c #CCCCCC",
"<.	c #67B9F9",
"[.	c #76C0F9",
"}.	c #85C6FA",
"|.	c #94CEFB",
"1.	c #B2DBFC",
"2.	c #EAF5FE",
"3.	c #F0F8FF",
"4.	c #E9F5FF",
"5.	c #99B4C9",
"6.	c #071D08",
"7.	c #0E0E0E",
"8.	c #262525",
"9.	c #2E2D2D",
"0.	c #353536",
"a.	c #3A9C39",
"b.	c #3E9E3E",
"c.	c #409F40",
"d.	c #0B0B0B",
"e.	c #121212",
"f.	c #191919",
"g.	c #4BA54C",
"h.	c #E5E5E5",
"i.	c #65B8F9",
"j.	c #74BFF9",
"k.	c #91CCFB",
"l.	c #AED9FC",
"m.	c #BCE0FD",
"n.	c #C9E6FD",
"o.	c #D4EBFD",
"p.	c #DDF0FE",
"q.	c #DEEFFE",
"r.	c #BBDFFC",
"s.	c #0D2F0C",
"t.	c #2C2B2B",
"u.	c #333334",
"v.	c #3B3B3B",
"w.	c #409F3F",
"x.	c #42A042",
"y.	c #131313",
"z.	c #1A1A1A",
"A.	c #202121",
"B.	c #4DA54D",
"C.	c #61B6F9",
"D.	c #70BDF9",
"E.	c #7EC4FA",
"F.	c #8CCAFA",
"G.	c #A7D6FB",
"H.	c #BFE2FD",
"I.	c #D2EAFE",
"J.	c #B3DCFB",
"K.	c #0D2F0D",
"L.	c #0D0D0D",
"M.	c #313131",
"N.	c #393939",
"O.	c #414141",
"P.	c #419F41",
"Q.	c #43A042",
"R.	c #1A1B1B",
"S.	c #212121",
"T.	c #282828",
"U.	c #4EA64E",
"V.	c #B2B2B2",
"W.	c #5CB4F8",
"X.	c #6ABAF9",
"Y.	c #92CCFA",
"Z.	c #9ED2FB",
"`.	c #AAD8FB",
" +	c #BCE0FC",
".+	c #C0E3FD",
"++	c #AAD7FB",
"@+	c #0E2F0E",
"#+	c #0F0F0E",
"$+	c #363637",
"%+	c #3E3E3E",
"&+	c #464746",
"*+	c #3D9E3E",
"=+	c #44A145",
"-+	c #222222",
";+	c #282929",
">+	c #30302F",
",+	c #4FA64F",
"'+	c #585858",
")+	c #56B1F8",
"!+	c #63B7F8",
"~+	c #7DC3FA",
"{+	c #89C8FA",
"]+	c #9FD2FB",
"^+	c #A7D7FB",
"/+	c #ADD9FC",
"(+	c #B2DBFB",
"_+	c #AEDAFB",
":+	c #7EA8C8",
"<+	c #0B250B",
"[+	c #3C3C3C",
"}+	c #444344",
"|+	c #44A143",
"1+	c #46A246",
"2+	c #292A2A",
"3+	c #303130",
"4+	c #373738",
"5+	c #51A851",
"6+	c #858585",
"7+	c #4A647B",
"8+	c #67BAF9",
"9+	c #73BFFA",
"0+	c #7FC3FA",
"a+	c #89C9FA",
"b+	c #A3D4FC",
"c+	c #A4D5FB",
"d+	c #A3D5FC",
"e+	c #A0D3FB",
"f+	c #749B8B",
"g+	c #2B2A2B",
"h+	c #424242",
"i+	c #494A49",
"j+	c #515251",
"k+	c #45A245",
"l+	c #47A247",
"m+	c #383838",
"n+	c #3F3F3F",
"o+	c #53A852",
"p+	c #080808",
"q+	c #54B0F8",
"r+	c #5EB5F8",
"s+	c #6AB9F9",
"t+	c #8CC9FA",
"u+	c #94CDFA",
"v+	c #96CEFA",
"w+	c #8AC8F8",
"x+	c #174A17",
"y+	c #399B39",
"z+	c #3B9C3A",
"A+	c #3F9F40",
"B+	c #41A042",
"C+	c #49A448",
"D+	c #403F40",
"E+	c #464647",
"F+	c #53A953",
"G+	c #090909",
"H+	c #151515",
"I+	c #5EB5F9",
"J+	c #68B9F9",
"K+	c #78C0F9",
"L+	c #7EC3F9",
"M+	c #82C6FA",
"N+	c #3D4D3D",
"O+	c #424842",
"P+	c #164415",
"Q+	c #41A041",
"R+	c #43A142",
"S+	c #4AA449",
"T+	c #4CA54B",
"U+	c #4EA74E",
"V+	c #51A751",
"W+	c #54A955",
"X+	c #151514",
"Y+	c #0C0C0C",
"Z+	c #5CB3F9",
"`+	c #70BCF9",
" @	c #77C0FA",
".@	c #092009",
"+@	c #5B5B5B",
"@@	c #5F5F5F",
"#@	c #215721",
"$@	c #42A041",
"%@	c #44A245",
"&@	c #49A348",
"*@	c #4BA54B",
"=@	c #4EA54E",
"-@	c #50A750",
";@	c #52A852",
">@	c #56AA56",
",@	c #1A1A19",
"'@	c #101010",
")@	c #2F726A",
"!@	c #5DB4F9",
"~@	c #65B7F9",
"{@	c #7CA295",
"]@	c #0A250A",
"^@	c #081D08",
"/@	c #6B6B6B",
"(@	c #767876",
"_@	c #255E25",
":@	c #43A143",
"<@	c #46A245",
"[@	c #4AA54A",
"}@	c #4CA54D",
"|@	c #827F01",
"1@	c #929020",
"2@	c #53A853",
"3@	c #57AB58",
"4@	c #333434",
"5@	c #2F2F2F",
"6@	c #222122",
"7@	c #072307",
"8@	c #0A2D0A",
"9@	c #09240A",
"0@	c #154A15",
"a@	c #091E09",
"b@	c #A3A3A3",
"c@	c #225422",
"d@	c #4DA64E",
"e@	c #928F20",
"f@	c #A29F41",
"g@	c #55AA54",
"h@	c #59AB59",
"i@	c #444443",
"j@	c #166A16",
"k@	c #0F470F",
"l@	c #104710",
"m@	c #114811",
"n@	c #124812",
"o@	c #134914",
"p@	c #206F20",
"q@	c #2D962D",
"r@	c #020202",
"s@	c #797979",
"t@	c #9F9F9F",
"u@	c #4DA64C",
"v@	c #A1A040",
"w@	c #B1AF61",
"x@	c #5AAC5A",
"y@	c #424243",
"z@	c #1F8E1F",
"A@	c #218F21",
"B@	c #239123",
"C@	c #259225",
"D@	c #279328",
"E@	c #827F00",
"F@	c #8E8C1A",
"G@	c #2E962E",
"H@	c #192D19",
"I@	c #060606",
"J@	c #000100",
"K@	c #A8A8A8",
"L@	c #545454",
"M@	c #499B49",
"N@	c #50A850",
"O@	c #52A853",
"P@	c #55A954",
"Q@	c #57AB57",
"R@	c #5CAD5B",
"S@	c #198C19",
"T@	c #1B8C1B",
"U@	c #1E8E1E",
"V@	c #208F20",
"W@	c #239023",
"X@	c #259124",
"Y@	c #279327",
"Z@	c #299429",
"`@	c #8C8914",
" #	c #9D9A36",
".#	c #329832",
"+#	c #224622",
"@#	c #233823",
"##	c #040404",
"$#	c #061006",
"%#	c #BABABA",
"&#	c #575C57",
"*#	c #3D7D3D",
"=#	c #54A954",
"-#	c #56AB56",
";#	c #59AC59",
">#	c #5CAE5C",
",#	c #2B942A",
"'#	c #2D952C",
")#	c #339834",
"!#	c #359A35",
"~#	c #0B1B0B",
"{#	c #0A170A",
"]#	c #D2D2D2",
"^#	c #585A58",
"/#	c #004900",
"(#	c #B47800",
"_#	c #928A6F",
":#	c #B87F0D",
"<#	c #BA8315",
"[#	c #9A9379",
"}#	c #BE8A23",
"|#	c #C18F2B",
"1#	c #A29B83",
"2#	c #CBA14E",
"3#	c #231C0E",
"4#	c #171613",
"5#	c #BD8D2F",
"6#	c #938C71",
"7#	c #B98010",
"8#	c #BA8417",
"9#	c #9B947C",
"0#	c #C08C26",
"a#	c #C1902D",
"b#	c #A39C85",
"c#	c #CCA351",
"d#	c #CEA758",
"e#	c #2F2E29",
"f#	c #251E12",
"g#	c #A49164",
"h#	c #9C8D66",
"i#	c #989076",
"j#	c #9D957D",
"k#	c #A09880",
"l#	c #A39C84",
"m#	c #A49E88",
"n#	c #B0A996",
"o#	c #B2AC98",
"p#	c #B5AF9D",
"q#	c #302F2A",
"r#	c #1D1C18",
"s#	c #171717",
"t#	c #2A2A2A",
"u#	c #707070",
"v#	c #656565",
"w#	c #535353",
"x#	c #242424",
"                                                                ",
"                                                                ",
"                . + @ # $ . %                                   ",
"            & * = - ; ; ; - # > ,                               ",
"        ' ) + $ ! ~ { ] ^ / ( $ $ . _                           ",
"        : < [ } | 1 2 3 4 5 6 7 8 < 9 0 0 0 0 0 0 0 0 0 0 0 0 0 ",
"      a < b c d ~ e f g h i j k l m n o p q r s t u v w x y z 0 ",
"      * A B C D E F G H I J K L M 5 N O P Q R S T U V W X Y Z 0 ",
"` `  .* ..+.@.#.$.%.&.*.=.K -.K ;.*.>.,.'.).!.~.{.].^./.(.'._.0 ",
"` :.* * <.[.}.|.E 1.G H I 2.3.4.I H 5.6.7.8.9.0.a.b.c.d.e.f.g.0 ",
"` h.* * i.j.c k.~ l.m.n.o.p.=.q.l 4 r.s.d.t.u.v.U w.x.y.z.A.B.0 ",
"` :.* * C.D.E.F.| G.2 H.n.H I.5 g 3 J.K.L.M.N.O.v P.Q.R.S.T.U.0 ",
"` V.N.* W.X.+.C Y.Z.`.2  +.+&..+ +2 ++@+#+$+%+&+*+x.=+-+;+>+,+0 ",
"` V.'+* )+!+D.~+{+|.]+^+/+F 2 (+_+^+:+<+f.[+}+ .^.|+1+2+3+4+5+0 ",
"` V.6+* 7+W.8+9+0+a+Y.| ~ b+c+d+e+| f+<+g+h+i+j+c.k+l+M.m+n+o+0 ",
"` V.V.* p+q+r+s+j.~+C t+d u+v+u+k.w+<+x+y+z+V A+B+1+C+N.D+E+F+0 ",
"` V.V.6+G+H+q+I+J+D.K+L+M+C @.C M+N+O+P+u v w Q+R+z S+T+U+V+W+0 ",
"` V.V.V.X+Y+z.q+Z+!+X.`+j.B  @[..@W +@@@#@*+w.$@%@&@*@=@-@;@>@0 ",
"` V.V.V.# ,@7.'@)@)+!@C.~@<.{@]@^@W W /@(@_@Q+:@<@[@}@|@1@2@3@0 ",
"` V.V.V.4@N.5@6@7@7@8@O O 9@]@0@a@W W W /@b@c@G+# g.d@e@f@g@h@0 ",
"` ` ` ` m+%+i@%+j@k@l@m@n@o@p@q@Q r@r@W W s@t@'@. u@,+v@w@>@x@0 ",
"        %+y@%+%+z@A@B@C@D@E@F@G@r H@I@> J@W +@K@L@M@N@O@P@Q@R@0 ",
"        0 S@T@U@V@W@X@Y@Z@`@ #Q .#+#@###$#W W +@%#&#*#=#-#;#>#0 ",
"        0 0 0 0 0 0 0 0 ,#'#q r )#!#{.u ~#{#W W +@]#^#/#0 0 0 0 ",
"                        (#_#:#<#[#}#|#1#2#3#4#W W +@]#+@ .      ",
"                        5#6#7#8#9#0#a#b#c#d#e#f#W W +@]#+@$     ",
"                        g#h#i#[#j#k#l#m#n#o#p#q#r#W W +@]#+@s#  ",
"                                                v.t#W W +@]#W u#",
"                                                  N.T.W W W v#  ",
"                                                    N.-+W w#    ",
"                                                      x#`       ",
"                                                                "};
