/* XPM */
static char * device_unplugged_xpm[] = {
"32 32 380 2",
"  	c None",
". 	c #FF0000",
"+ 	c #007F00",
"@ 	c #236D00",
"# 	c #DE1000",
"$ 	c #F20600",
"% 	c #F00700",
"& 	c #853C00",
"* 	c #107700",
"= 	c #048104",
"- 	c #068206",
"; 	c #098408",
"> 	c #0B840B",
", 	c #0D860D",
"' 	c #10860F",
") 	c #118812",
"! 	c #138913",
"~ 	c #168A16",
"{ 	c #188A17",
"] 	c #755410",
"^ 	c #F40601",
"/ 	c #BB3513",
"( 	c #449639",
"_ 	c #3E9F3F",
": 	c #40A040",
"< 	c #43A043",
"[ 	c #47A347",
"} 	c #000000",
"| 	c #0C850C",
"1 	c #0E860E",
"2 	c #242424",
"3 	c #158915",
"4 	c #178B17",
"5 	c #198C19",
"6 	c #1C8D1C",
"7 	c #32811B",
"8 	c #CF1E06",
"9 	c #F60602",
"0 	c #7C6424",
"a 	c #3B9D3B",
"b 	c #3D9E3D",
"c 	c #020303",
"d 	c #0A0A0A",
"e 	c #49A349",
"f 	c #666666",
"g 	c #020302",
"h 	c #090909",
"i 	c #0E0E0E",
"j 	c #0E860D",
"k 	c #10870F",
"l 	c #1C1C1B",
"m 	c #4B4B4B",
"n 	c #188B18",
"o 	c #1B8D1B",
"p 	c #1D8E1D",
"q 	c #208F1F",
"r 	c #844F12",
"s 	c #EF0303",
"t 	c #5B7F2E",
"u 	c #3D9D3C",
"v 	c #3F9E3F",
"w 	c #040403",
"x 	c #0A0B0B",
"y 	c #111111",
"z 	c #4AA44A",
"A 	c #CCCCCC",
"B 	c #070707",
"C 	c #0C0D0C",
"D 	c #131212",
"E 	c #181918",
"F 	c #0F860E",
"G 	c #118711",
"H 	c #434343",
"I 	c #737373",
"J 	c #178B18",
"K 	c #1A8C1A",
"L 	c #838003",
"M 	c #1F8F1E",
"N 	c #516F19",
"O 	c #FB0200",
"P 	c #F00B04",
"Q 	c #588835",
"R 	c #409F40",
"S 	c #0B0B0B",
"T 	c #121212",
"U 	c #191919",
"V 	c #4BA54C",
"W 	c #E5E5E5",
"X 	c #0B0C0B",
"Y 	c #171617",
"Z 	c #1D1D1C",
"` 	c #108710",
" .	c #128813",
"..	c #1B8C1C",
"+.	c #939022",
"@.	c #31831D",
"#.	c #E70F03",
"$.	c #FA0000",
"%.	c #E11809",
"&.	c #4D963E",
"*.	c #131313",
"=.	c #1A1A1A",
"-.	c #202121",
";.	c #4DA54D",
">.	c #101010",
",.	c #161616",
"'.	c #1C1B1B",
").	c #212121",
"!.	c #118811",
"~.	c #138914",
"{.	c #020202",
"].	c #1C1C1C",
"^.	c #1B8D1A",
"/.	c #1D8E1C",
"(.	c #A2A041",
"_.	c #BB2B0A",
":.	c #FE0000",
"<.	c #5F1E1E",
"[.	c #A41515",
"}.	c #C53014",
"|.	c #282828",
"1.	c #4EA64E",
"2.	c #B2B2B2",
"3.	c #151514",
"4.	c #201F20",
"5.	c #252625",
"6.	c #138912",
"7.	c #1F1F1F",
"8.	c #393939",
"9.	c #1E8E1E",
"0.	c #765713",
"a.	c #9A4614",
"b.	c #2F2F2E",
"c.	c #363637",
"d.	c #BD1515",
"e.	c #D10606",
"f.	c #2E2727",
"g.	c #30302F",
"h.	c #4FA64F",
"i.	c #2A2A2A",
"j.	c #148A14",
"k.	c #168B16",
"l.	c #3B3C3B",
"m.	c #555555",
"n.	c #208D1E",
"o.	c #F10902",
"p.	c #CF2109",
"q.	c #2D952C",
"r.	c #343434",
"s.	c #3C3C3C",
"t.	c #494041",
"u.	c #D90F0F",
"v.	c #8B1B1A",
"w.	c #373738",
"x.	c #51A851",
"y.	c #1D1E1D",
"z.	c #232323",
"A.	c #292929",
"B.	c #2F2E2E",
"C.	c #168915",
"D.	c #1C8E1D",
"E.	c #3F7C1C",
"F.	c #F90401",
"G.	c #478126",
"H.	c #2E962E",
"I.	c #3A393A",
"J.	c #424242",
"K.	c #494A49",
"L.	c #5C4C4B",
"M.	c #E81207",
"N.	c #B01515",
"O.	c #3F3F3F",
"P.	c #53A852",
"Q.	c #222222",
"R.	c #282728",
"S.	c #2D2D2E",
"T.	c #333333",
"U.	c #178A17",
"V.	c #198B19",
"W.	c #1E8D1D",
"X.	c #1F8F20",
"Y.	c #229022",
"Z.	c #C2280A",
"`.	c #FA0200",
" +	c #6E641D",
".+	c #2D962D",
"++	c #2F9630",
"@+	c #399B39",
"#+	c #3B9C3A",
"$+	c #3F9F40",
"%+	c #4E943D",
"&+	c #CB2D13",
"*+	c #F60202",
"=+	c #673132",
"-+	c #464647",
";+	c #53A953",
">+	c #262626",
",+	c #2C2C2C",
"'+	c #323131",
")+	c #218F21",
"!+	c #239124",
"~+	c #289025",
"{+	c #55731F",
"]+	c #468024",
"^+	c #2C952C",
"/+	c #2F962E",
"(+	c #319730",
"_+	c #3A9C3A",
":+	c #3C9D3C",
"<+	c #41A041",
"[+	c #43A142",
"}+	c #5D9140",
"|+	c #4DA34A",
"1+	c #4EA74E",
"2+	c #51A751",
"3+	c #54A955",
"4+	c #2B2B2A",
"5+	c #313031",
"6+	c #363636",
"7+	c #1A8C19",
"8+	c #1B8D1C",
"9+	c #232324",
"0+	c #454545",
"a+	c #229023",
"b+	c #259225",
"c+	c #279327",
"d+	c #299429",
"e+	c #2B952B",
"f+	c #103610",
"g+	c #0D220D",
"h+	c #0D0C0D",
"i+	c #3B9C3B",
"j+	c #3D9E3E",
"k+	c #409F3F",
"l+	c #42A041",
"m+	c #44A245",
"n+	c #49A348",
"o+	c #4BA54B",
"p+	c #4EA54E",
"q+	c #50A750",
"r+	c #52A852",
"s+	c #56AA56",
"t+	c #2F2F30",
"u+	c #353534",
"v+	c #3A3B3B",
"w+	c #404040",
"x+	c #1B8C1B",
"y+	c #1D8D1D",
"z+	c #484848",
"A+	c #696969",
"B+	c #249123",
"C+	c #259226",
"D+	c #289428",
"E+	c #2A942A",
"F+	c #2D952D",
"G+	c #0B200B",
"H+	c #0A0A0B",
"I+	c #3D9E3C",
"J+	c #43A143",
"K+	c #46A245",
"L+	c #4AA54A",
"M+	c #4CA54D",
"N+	c #827F01",
"O+	c #929020",
"P+	c #53A853",
"Q+	c #57AB58",
"R+	c #333434",
"S+	c #403F3F",
"T+	c #454445",
"U+	c #1F8E1E",
"V+	c #239023",
"W+	c #259125",
"X+	c #279328",
"Y+	c #2B952C",
"Z+	c #080808",
"`+	c #100F0F",
" @	c #181717",
".@	c #42A142",
"+@	c #4DA64E",
"@@	c #928F20",
"#@	c #A29F41",
"$@	c #55AA54",
"%@	c #59AB59",
"&@	c #383838",
"*@	c #3E3E3E",
"=@	c #444443",
"-@	c #208F20",
";@	c #249124",
">@	c #269226",
",@	c #289329",
"'@	c #309730",
")@	c #0D0D0D",
"!@	c #151414",
"~@	c #1C1C1D",
"{@	c #429F41",
"]@	c #44A143",
"^@	c #4DA64C",
"/@	c #A1A040",
"(@	c #B1AF61",
"_@	c #5AAC5A",
":@	c #424243",
"<@	c #1F8E1F",
"[@	c #239123",
"}@	c #827F00",
"|@	c #8E8C1A",
"1@	c #319831",
"2@	c #192D19",
"3@	c #212221",
"4@	c #41A040",
"5@	c #45A245",
"6@	c #353435",
"7@	c #4E4E4E",
"8@	c #50A850",
"9@	c #52A853",
"0@	c #55A954",
"a@	c #57AB57",
"b@	c #5CAD5B",
"c@	c #259124",
"d@	c #8C8914",
"e@	c #9D9A36",
"f@	c #329832",
"g@	c #224622",
"h@	c #233823",
"i@	c #272727",
"j@	c #44A244",
"k@	c #47A346",
"l@	c #49A448",
"m@	c #4BA44B",
"n@	c #4FA74F",
"o@	c #54A954",
"p@	c #56AB56",
"q@	c #59AC59",
"r@	c #5CAE5C",
"s@	c #2B942A",
"t@	c #2F962F",
"u@	c #339834",
"v@	c #359A35",
"w@	c #389B38",
"x@	c #43A144",
"y@	c #46A246",
"z@	c #48A348",
"A@	c #4AA449",
"B@	c #B47800",
"C@	c #928A6F",
"D@	c #B87F0D",
"E@	c #BA8315",
"F@	c #9A9379",
"G@	c #BE8A23",
"H@	c #C18F2B",
"I@	c #A29B83",
"J@	c #CBA14E",
"K@	c #CDA656",
"L@	c #B2AC99",
"M@	c #D1AD63",
"N@	c #D3B06B",
"O@	c #B57902",
"P@	c #938C71",
"Q@	c #B98010",
"R@	c #BA8417",
"S@	c #9B947C",
"T@	c #C08C26",
"U@	c #C1902D",
"V@	c #A39C85",
"W@	c #CCA351",
"X@	c #CEA758",
"Y@	c #B3AD9A",
"Z@	c #D3AF67",
"`@	c #D5B26D",
" #	c #9B8652",
".#	c #9A8A61",
"+#	c #989076",
"@#	c #9D957D",
"##	c #A09880",
"$#	c #A39C84",
"%#	c #A49E88",
"&#	c #B0A996",
"*#	c #B2AC98",
"=#	c #B5AF9D",
"-#	c #B7B2A0",
";#	c #BEB49A",
"                                                                ",
"                                                                ",
"                            . . .               . . . . .       ",
"                          . . . . .           . . . . . .       ",
"                          . . . . . . .     . . . . . . .       ",
"        + + + + + + + + + @ # . . . . . $ . . . . . % & * + + + ",
"        + = - ; > , ' ) ! ~ { ] ^ . . . . . . . . / ( _ : < [ + ",
"        } } } } | 1 } 2 3 4 5 6 7 8 . . . . . 9 0 a b } c d e + ",
"f f f f g h i } j k l m ~ n o p q r . . . . . s t u v w x y z + ",
"f A A A B C D E F G H I J K L M N O . . . . . . P Q R S T U V + ",
"f W W W X y Y Z `  .3 ~ 5 ..+.@.#.. . . $.. . . . %.&.*.=.-.;.+ ",
"f A A A >.,.'.).!.~.{.].^./.(._.. . . :.<.[.. . . . }.=.).|.1.+ ",
"f 2.2.2.3.=.4.5.6.3 7.8.6 9.0.. . . . a.b.c.d.. . . . e.f.g.h.+ ",
"f 2.2.2.U 7.2 i.j.k.l.m.p n.o.. . . p.q.r.s.t.u.. . . . v.w.x.+ ",
"f 2.2.2.y.z.A.B.C.n K D.9.E.. . . F.G.H.I.J.K.L.M.. . . N.O.P.+ ",
"f 2.2.2.Q.R.S.T.U.V.6 W.X.Y.Z.. `. +.+++@+#+b $+%+&+. *+=+-+;++ ",
"f 2.2.2.>+,+'+w.n K } ).)+!+~+{+]+^+/+(+_+:+_ <+[+[ }+|+1+2+3++ ",
"f 2.2.2.4+5+6+s.7+8+9+0+a+b+c+d+e+f+g+h+i+j+k+l+m+n+o+p+q+r+s++ ",
"f 2.2.2.t+u+v+w+x+y+z+A+B+C+D+E+F+G+H+T I+v <+J+K+L+M+N+O+P+Q++ ",
"f 2.2.2.R+8.S+T+6 U+)+V+W+X+E+Y+H.Z+`+ @j+R .@d z.V +@@@#@$@%@+ ",
"f f f f &@*@=@*@9.-@Y.;@>@,@e+.+'@)@!@~@v {@]@7.8.^@h./@(@s+_@+ ",
"        *@:@*@*@<@)+[@b+X+}@|@H.1@2@=.3@4@J+5@6@7@1.8@9@0@a@b@+ ",
"        + 5 x+9.-@V+c@c+d+d@e@'@f@g@h@i@l+j@k@l@m@n@r+o@p@q@r@+ ",
"        + + + + + + + + s@q.t@1@u@v@w@_+x@y@z@A@M++ + + + + + + ",
"                        B@C@D@E@F@G@H@I@J@K@L@M@N@              ",
"                        O@P@Q@R@S@T@U@V@W@X@Y@Z@`@              ",
"                         #.#+#F@@###$#%#&#*#=#-#;#              ",
"                                                                ",
"                                                                ",
"                                                                ",
"                                                                ",
"                                                                "};
