/* XPM */
static char * device_xpm[] = {
"32 32 373 2",
"  	c None",
". 	c #007F00",
"+ 	c #048104",
"@ 	c #068206",
"# 	c #098408",
"$ 	c #0B840B",
"% 	c #0D860D",
"& 	c #10860F",
"* 	c #118812",
"= 	c #138913",
"- 	c #168A16",
"; 	c #188B18",
"> 	c #1A8D1B",
", 	c #1D8D1D",
"' 	c #1F8F1F",
") 	c #218F21",
"! 	c #239123",
"~ 	c #2D952D",
"{ 	c #2F962F",
"] 	c #319831",
"^ 	c #339933",
"/ 	c #359935",
"( 	c #3A9C3A",
"_ 	c #3C9D3C",
": 	c #3E9F3F",
"< 	c #40A040",
"[ 	c #43A043",
"} 	c #47A347",
"| 	c #000000",
"1 	c #0C850C",
"2 	c #0E860E",
"3 	c #242424",
"4 	c #158915",
"5 	c #178B17",
"6 	c #198C19",
"7 	c #1C8D1C",
"8 	c #1E8E1E",
"9 	c #218F20",
"0 	c #259125",
"a 	c #2E962D",
"b 	c #309730",
"c 	c #329833",
"d 	c #359934",
"e 	c #379A37",
"f 	c #3B9D3B",
"g 	c #3D9E3D",
"h 	c #020303",
"i 	c #0A0A0A",
"j 	c #49A349",
"k 	c #666666",
"l 	c #020302",
"m 	c #090909",
"n 	c #0E0E0E",
"o 	c #0E860D",
"p 	c #10870F",
"q 	c #1C1C1B",
"r 	c #4B4B4B",
"s 	c #1B8D1B",
"t 	c #1D8E1D",
"u 	c #208F1F",
"v 	c #229022",
"w 	c #249124",
"x 	c #269226",
"y 	c #181818",
"z 	c #1F2020",
"A 	c #282827",
"B 	c #2F3030",
"C 	c #389B38",
"D 	c #3D9D3C",
"E 	c #3F9E3F",
"F 	c #040403",
"G 	c #0A0B0B",
"H 	c #111111",
"I 	c #4AA44A",
"J 	c #CCCCCC",
"K 	c #070707",
"L 	c #0C0D0C",
"M 	c #131212",
"N 	c #181918",
"O 	c #0F860E",
"P 	c #118711",
"Q 	c #434343",
"R 	c #737373",
"S 	c #178B18",
"T 	c #1A8C1A",
"U 	c #838003",
"V 	c #1F8F1E",
"W 	c #229023",
"X 	c #279328",
"Y 	c #1E1E1E",
"Z 	c #262525",
"` 	c #2E2D2D",
" .	c #353536",
"..	c #3A9C39",
"+.	c #3E9E3E",
"@.	c #409F40",
"#.	c #0B0B0B",
"$.	c #121212",
"%.	c #191919",
"&.	c #4BA54C",
"*.	c #E5E5E5",
"=.	c #0B0C0B",
"-.	c #171617",
";.	c #1D1D1C",
">.	c #108710",
",.	c #128813",
"'.	c #1B8C1C",
").	c #939022",
"!.	c #1F8F20",
"~.	c #239122",
"{.	c #259124",
"].	c #269227",
"^.	c #299428",
"/.	c #242324",
"(.	c #2C2B2B",
"_.	c #333334",
":.	c #3B3B3B",
"<.	c #409F3F",
"[.	c #42A042",
"}.	c #131313",
"|.	c #1A1A1A",
"1.	c #202121",
"2.	c #4DA54D",
"3.	c #101010",
"4.	c #161616",
"5.	c #1C1B1B",
"6.	c #212121",
"7.	c #118811",
"8.	c #138914",
"9.	c #020202",
"0.	c #1C1C1C",
"a.	c #1B8D1A",
"b.	c #1D8E1C",
"c.	c #A2A041",
"d.	c #2A952A",
"e.	c #292929",
"f.	c #313131",
"g.	c #393939",
"h.	c #414141",
"i.	c #419F41",
"j.	c #43A042",
"k.	c #1A1B1B",
"l.	c #282828",
"m.	c #4EA64E",
"n.	c #B2B2B2",
"o.	c #151514",
"p.	c #201F20",
"q.	c #252625",
"r.	c #138912",
"s.	c #1F1F1F",
"t.	c #208F20",
"u.	c #0E0D0E",
"v.	c #292A2A",
"w.	c #299429",
"x.	c #2C952C",
"y.	c #2F2F2E",
"z.	c #363637",
"A.	c #3E3E3E",
"B.	c #464746",
"C.	c #3D9E3E",
"D.	c #44A145",
"E.	c #222222",
"F.	c #282929",
"G.	c #30302F",
"H.	c #4FA64F",
"I.	c #2A2A2A",
"J.	c #148A14",
"K.	c #168B16",
"L.	c #3B3C3B",
"M.	c #555555",
"N.	c #219021",
"O.	c #444444",
"P.	c #2A942B",
"Q.	c #2D962D",
"R.	c #343434",
"S.	c #3C3C3C",
"T.	c #444344",
"U.	c #4C4C4C",
"V.	c #44A143",
"W.	c #46A246",
"X.	c #303130",
"Y.	c #373738",
"Z.	c #51A851",
"`.	c #1D1E1D",
" +	c #232323",
".+	c #2F2E2E",
"++	c #168915",
"@+	c #1C8E1D",
"#+	c #239022",
"$+	c #259225",
"%+	c #289327",
"&+	c #29942A",
"*+	c #2E962E",
"=+	c #3A393A",
"-+	c #424242",
";+	c #494A49",
">+	c #515251",
",+	c #45A245",
"'+	c #47A247",
")+	c #383838",
"!+	c #3F3F3F",
"~+	c #53A852",
"{+	c #282728",
"]+	c #2D2D2E",
"^+	c #333333",
"/+	c #178A17",
"(+	c #198B19",
"_+	c #1E8D1D",
":+	c #279226",
"<+	c #289328",
"[+	c #2B942B",
"}+	c #2F9630",
"|+	c #399B39",
"1+	c #3B9C3A",
"2+	c #3F9F40",
"3+	c #41A042",
"4+	c #49A448",
"5+	c #403F40",
"6+	c #464647",
"7+	c #53A953",
"8+	c #262626",
"9+	c #2C2C2C",
"0+	c #323131",
"a+	c #239124",
"b+	c #2B942A",
"c+	c #2F962E",
"d+	c #319730",
"e+	c #41A041",
"f+	c #43A142",
"g+	c #4AA449",
"h+	c #4CA54B",
"i+	c #4EA74E",
"j+	c #51A751",
"k+	c #54A955",
"l+	c #2B2B2A",
"m+	c #313031",
"n+	c #363636",
"o+	c #1A8C19",
"p+	c #1B8D1C",
"q+	c #232324",
"r+	c #454545",
"s+	c #279327",
"t+	c #2B952B",
"u+	c #103610",
"v+	c #0D220D",
"w+	c #0D0C0D",
"x+	c #3B9C3B",
"y+	c #42A041",
"z+	c #44A245",
"A+	c #49A348",
"B+	c #4BA54B",
"C+	c #4EA54E",
"D+	c #50A750",
"E+	c #52A852",
"F+	c #56AA56",
"G+	c #2F2F30",
"H+	c #353534",
"I+	c #3A3B3B",
"J+	c #404040",
"K+	c #1B8C1B",
"L+	c #484848",
"M+	c #696969",
"N+	c #249123",
"O+	c #259226",
"P+	c #289428",
"Q+	c #2A942A",
"R+	c #0B200B",
"S+	c #0A0A0B",
"T+	c #3D9E3C",
"U+	c #43A143",
"V+	c #46A245",
"W+	c #4AA54A",
"X+	c #4CA54D",
"Y+	c #827F01",
"Z+	c #929020",
"`+	c #53A853",
" @	c #57AB58",
".@	c #333434",
"+@	c #403F3F",
"@@	c #454445",
"#@	c #1F8E1E",
"$@	c #239023",
"%@	c #2B952C",
"&@	c #080808",
"*@	c #100F0F",
"=@	c #181717",
"-@	c #42A142",
";@	c #4DA64E",
">@	c #928F20",
",@	c #A29F41",
"'@	c #55AA54",
")@	c #59AB59",
"!@	c #444443",
"~@	c #289329",
"{@	c #0D0D0D",
"]@	c #151414",
"^@	c #1C1C1D",
"/@	c #429F41",
"(@	c #4DA64C",
"_@	c #A1A040",
":@	c #B1AF61",
"<@	c #5AAC5A",
"[@	c #424243",
"}@	c #1F8E1F",
"|@	c #827F00",
"1@	c #8E8C1A",
"2@	c #192D19",
"3@	c #212221",
"4@	c #41A040",
"5@	c #353435",
"6@	c #4E4E4E",
"7@	c #50A850",
"8@	c #52A853",
"9@	c #55A954",
"0@	c #57AB57",
"a@	c #5CAD5B",
"b@	c #8C8914",
"c@	c #9D9A36",
"d@	c #329832",
"e@	c #224622",
"f@	c #233823",
"g@	c #272727",
"h@	c #44A244",
"i@	c #47A346",
"j@	c #4BA44B",
"k@	c #4FA74F",
"l@	c #54A954",
"m@	c #56AB56",
"n@	c #59AC59",
"o@	c #5CAE5C",
"p@	c #2D952C",
"q@	c #339834",
"r@	c #359A35",
"s@	c #43A144",
"t@	c #48A348",
"u@	c #B47800",
"v@	c #928A6F",
"w@	c #B87F0D",
"x@	c #BA8315",
"y@	c #9A9379",
"z@	c #BE8A23",
"A@	c #C18F2B",
"B@	c #A29B83",
"C@	c #CBA14E",
"D@	c #CDA656",
"E@	c #B2AC99",
"F@	c #D1AD63",
"G@	c #D3B06B",
"H@	c #B57902",
"I@	c #938C71",
"J@	c #B98010",
"K@	c #BA8417",
"L@	c #9B947C",
"M@	c #C08C26",
"N@	c #C1902D",
"O@	c #A39C85",
"P@	c #CCA351",
"Q@	c #CEA758",
"R@	c #B3AD9A",
"S@	c #D3AF67",
"T@	c #D5B26D",
"U@	c #9B8652",
"V@	c #9A8A61",
"W@	c #989076",
"X@	c #9D957D",
"Y@	c #A09880",
"Z@	c #A39C84",
"`@	c #A49E88",
" #	c #B0A996",
".#	c #B2AC98",
"+#	c #B5AF9D",
"@#	c #B7B2A0",
"##	c #BEB49A",
"                                                                ",
"                                                                ",
"                                                                ",
"                                                                ",
"                                                                ",
"        . . . . . . . . . . . . . . . . . . . . . . . . . . . . ",
"        . + @ # $ % & * = - ; > , ' ) ! ~ { ] ^ / ( _ : < [ } . ",
"        | | | | 1 2 | 3 4 5 6 7 8 9 ! 0 a b c d e f g | h i j . ",
"k k k k l m n | o p q r - ; s t u v w x y z A B C D E F G H I . ",
"k J J J K L M N O P Q R S T U V ) W 0 X Y Z `  ...+.@.#.$.%.&.. ",
"k *.*.*.=.H -.;.>.,.4 - 6 '.).!.~.{.].^./.(._.:.f <.[.}.|.1.2.. ",
"k J J J 3.4.5.6.7.8.9.0.a.b.c.) | 3.X d.e.f.g.h._ i.j.k.6.l.m.. ",
"k n.n.n.o.|.p.q.r.4 s.g.7 8 t.~.u.v.w.x.y.z.A.B.C.[.D.E.F.G.H.. ",
"k n.n.n.%.s.3 I.J.K.L.M.t ' N.w A O.P.Q.R.S.T.U.E V.W.v.X.Y.Z.. ",
"k n.n.n.`. +e..+++; T @+8 N.#+$+%+&+x.*+=+-+;+>+@.,+'+f.)+!+~+. ",
"k n.n.n.E.{+]+^+/+(+7 _+!.v w :+<+[+Q.}+|+1+g 2+3+W.4+g.5+6+7+. ",
"k n.n.n.8+9+0+Y.; T | 6.) a+x <+b+x.c+d+( _ : e+f+} g+h+i+j+k+. ",
"k n.n.n.l+m+n+S.o+p+q+r+W $+s+w.t+u+v+w+x+C.<.y+z+A+B+C+D+E+F+. ",
"k n.n.n.G+H+I+J+K+, L+M+N+O+P+Q+~ R+S+$.T+E e+U+V+W+X+Y+Z+`+ @. ",
"k n.n.n..@g.+@@@7 #@) $@0 X Q+%@*+&@*@=@C.@.-@i  +&.;@>@,@'@)@. ",
"k k k k )+A.!@A.8 t.v w x ~@t+Q.b {@]@^@E /@V.s.g.(@H._@:@F+<@. ",
"        A.[@A.A.}@) ! $+X |@1@*+] 2@|.3@4@U+,+5@6@m.7@8@9@0@a@. ",
"        . 6 K+8 t.$@{.s+w.b@c@b d@e@f@g@y+h@i@4+j@k@E+l@m@n@o@. ",
"        . . . . . . . . b+p@{ ] q@r@C ( s@W.t@g+X+. . . . . . . ",
"                        u@v@w@x@y@z@A@B@C@D@E@F@G@              ",
"                        H@I@J@K@L@M@N@O@P@Q@R@S@T@              ",
"                        U@V@W@y@X@Y@Z@`@ #.#+#@###              ",
"                                                                ",
"                                                                ",
"                                                                ",
"                                                                ",
"                                                                "};
