/* XPM */
static char * devices_xpm[] = {
"32 32 253 2",
"  	c None",
". 	c #007F00",
"+ 	c #048104",
"@ 	c #068206",
"# 	c #098408",
"$ 	c #0B840B",
"% 	c #0D860D",
"& 	c #10860F",
"* 	c #118812",
"= 	c #138913",
"- 	c #168A16",
"; 	c #188B18",
"> 	c #1A8D1B",
", 	c #1D8D1D",
"' 	c #1F8F1F",
") 	c #218F21",
"! 	c #239123",
"~ 	c #269226",
"{ 	c #289328",
"] 	c #2A942A",
"^ 	c #2D952D",
"/ 	c #2F962F",
"( 	c #319831",
"_ 	c #339933",
": 	c #359935",
"< 	c #389B38",
"[ 	c #3A9C3A",
"} 	c #3C9D3C",
"| 	c #3E9F3F",
"1 	c #000000",
"2 	c #0C850C",
"3 	c #0E860E",
"4 	c #242424",
"5 	c #158915",
"6 	c #178B17",
"7 	c #198C19",
"8 	c #1C8D1C",
"9 	c #1E8E1E",
"0 	c #218F20",
"a 	c #259125",
"b 	c #279327",
"c 	c #2A9429",
"d 	c #2B952C",
"e 	c #2E962D",
"f 	c #309730",
"g 	c #329833",
"h 	c #359934",
"i 	c #379A37",
"j 	c #399B39",
"k 	c #3B9D3B",
"l 	c #3D9E3D",
"m 	c #666666",
"n 	c #020302",
"o 	c #090909",
"p 	c #0E0E0E",
"q 	c #0E860D",
"r 	c #10870F",
"s 	c #1C1C1B",
"t 	c #4B4B4B",
"u 	c #1B8D1B",
"v 	c #1D8E1D",
"w 	c #208F1F",
"x 	c #229022",
"y 	c #249124",
"z 	c #080808",
"A 	c #101010",
"B 	c #181818",
"C 	c #1F2020",
"D 	c #282827",
"E 	c #2F3030",
"F 	c #3A9D3A",
"G 	c #3D9D3C",
"H 	c #3F9E3F",
"I 	c #040403",
"J 	c #CCCCCC",
"K 	c #070707",
"L 	c #0C0D0C",
"M 	c #131212",
"N 	c #181918",
"O 	c #0F860E",
"P 	c #118711",
"Q 	c #434343",
"R 	c #737373",
"S 	c #178B18",
"T 	c #1A8C1A",
"U 	c #838003",
"V 	c #1F8F1E",
"W 	c #229023",
"X 	c #279328",
"Y 	c #060605",
"Z 	c #0D0E0D",
"` 	c #151616",
" .	c #1E1E1E",
"..	c #262525",
"+.	c #2E2D2D",
"@.	c #353536",
"#.	c #3A9C39",
"$.	c #3C9C3C",
"%.	c #3E9E3E",
"&.	c #409F40",
"*.	c #0B0B0B",
"=.	c #E5E5E5",
"-.	c #0B0C0B",
";.	c #111111",
">.	c #171617",
",.	c #1D1D1C",
"'.	c #108710",
").	c #128813",
"!.	c #1B8C1C",
"~.	c #939022",
"{.	c #1F8F20",
"].	c #239122",
"^.	c #259124",
"/.	c #269227",
"(.	c #299428",
"_.	c #131314",
":.	c #1B1B1B",
"<.	c #242324",
"[.	c #2C2B2B",
"}.	c #333334",
"|.	c #3B3B3B",
"1.	c #409F3F",
"2.	c #42A042",
"3.	c #131313",
"4.	c #161616",
"5.	c #1C1B1B",
"6.	c #212121",
"7.	c #118811",
"8.	c #138914",
"9.	c #020202",
"0.	c #1C1C1C",
"a.	c #1B8D1A",
"b.	c #1D8E1C",
"c.	c #A2A041",
"d.	c #2A952A",
"e.	c #191919",
"f.	c #202121",
"g.	c #292929",
"h.	c #313131",
"i.	c #393939",
"j.	c #414141",
"k.	c #419F41",
"l.	c #43A042",
"m.	c #1A1B1B",
"n.	c #B2B2B2",
"o.	c #151514",
"p.	c #1A1A1A",
"q.	c #201F20",
"r.	c #252625",
"s.	c #138912",
"t.	c #1F1F1F",
"u.	c #208F20",
"v.	c #0E0D0E",
"w.	c #292A2A",
"x.	c #299429",
"y.	c #2C952C",
"z.	c #161617",
"A.	c #272626",
"B.	c #2F2F2E",
"C.	c #363637",
"D.	c #3E3E3E",
"E.	c #464746",
"F.	c #3D9E3E",
"G.	c #3F9F40",
"H.	c #44A145",
"I.	c #222222",
"J.	c #2A2A2A",
"K.	c #148A14",
"L.	c #168B16",
"M.	c #3B3C3B",
"N.	c #555555",
"O.	c #219021",
"P.	c #444444",
"Q.	c #2A942B",
"R.	c #2D962D",
"S.	c #2C2C2C",
"T.	c #343434",
"U.	c #3C3C3C",
"V.	c #444344",
"W.	c #4C4C4C",
"X.	c #41A041",
"Y.	c #44A143",
"Z.	c #46A246",
"`.	c #1D1E1D",
" +	c #232323",
".+	c #2F2E2E",
"++	c #168915",
"@+	c #1C8E1D",
"#+	c #239022",
"$+	c #259225",
"%+	c #289327",
"&+	c #29942A",
"*+	c #2E962E",
"=+	c #313231",
"-+	c #3A393A",
";+	c #424242",
">+	c #494A49",
",+	c #515251",
"'+	c #43A142",
")+	c #45A245",
"!+	c #47A247",
"~+	c #282728",
"{+	c #2D2D2E",
"]+	c #333333",
"^+	c #178A17",
"/+	c #198B19",
"(+	c #1E8D1D",
"_+	c #279226",
":+	c #2B942B",
"<+	c #2F9630",
"[+	c #329832",
"}+	c #349934",
"|+	c #369A36",
"1+	c #3B9C3A",
"2+	c #41A042",
"3+	c #44A144",
"4+	c #49A448",
"5+	c #262626",
"6+	c #323131",
"7+	c #373738",
"8+	c #239124",
"9+	c #2B942A",
"0+	c #2F962E",
"a+	c #319730",
"b+	c #359A35",
"c+	c #47A347",
"d+	c #4AA449",
"e+	c #4CA54B",
"f+	c #2B2B2A",
"g+	c #313031",
"h+	c #363636",
"i+	c #1A8C19",
"j+	c #1B8D1C",
"k+	c #232324",
"l+	c #454545",
"m+	c #2F2F30",
"n+	c #353534",
"o+	c #3A3B3B",
"p+	c #404040",
"q+	c #1B8C1B",
"r+	c #484848",
"s+	c #696969",
"t+	c #249123",
"u+	c #259226",
"v+	c #333434",
"w+	c #403F3F",
"x+	c #454445",
"y+	c #1F8E1E",
"z+	c #239023",
"A+	c #383838",
"B+	c #444443",
"C+	c #424243",
"D+	c #1F8E1F",
"        . . . . . . . . . . . . . . . . . . . . . . . . . . . . ",
"        . + @ # $ % & * = - ; > , ' ) ! ~ { ] ^ / ( _ : < [ } | ",
"        1 1 1 1 2 3 1 4 5 6 7 8 9 0 ! a b c d e f g h i j k l 1 ",
"m m m m n o p 1 q r s t - ; u v w x y ~ 1 z A B C D E < F G H I ",
"m J J J K L M N O P Q R S T U V ) W a X Y Z `  ...+.@.#.$.%.&.*.",
"m =.=.=.-.;.>.,.'.).5 - 7 !.~.{.].^./.(.-._.:.<.[.}.|.k l 1.2.3.",
"m J J J A 4.5.6.7.8.9.0.a.b.c.) 1 A X d.;.e.f.g.h.i.j.} %.k.l.m.",
"m n.n.n.o.p.q.r.s.5 t.i.8 9 u.].v.w.x.y.z.t.A.B.C.D.E.F.G.2.H.I.",
"m n.n.n.e.t.4 J.K.L.M.N.v ' O.y D P.Q.R.0.4 S.T.U.V.W.H X.Y.Z.w.",
"m n.n.n.`. +g..+++; T @+9 O.#+$+%+&+y.*+I.J.=+-+;+>+,+&.'+)+!+h.",
"m n.n.n.I.~+{+]+^+/+8 (+{.x y _+{ :+R.<+[+}+|+j 1+l G.2+3+Z.4+i.",
"m n.n.n.5+S.6+7+; T 1 6.) 8+~ { 9+y.0+a+_ b+< [ } | X.'+)+c+d+e+",
"m n.n.n.f+g+h+U.i+j+k+l+W $+. . . . . . . . . . . . . . . . . . ",
"m n.n.n.m+n+o+p+q+, r+s+t+u+. + @ # $ % & * = - ; > , ' ) ! ~ { ",
"m n.n.n.v+i.w+x+8 y+) z+a X 1 1 1 1 2 3 1 4 5 6 7 8 9 0 ! a b c ",
"m m m m A+D.B+D.9 u.m m m m n o p 1 q r s t - ; u v w x y ~ 1 z ",
"        D.C+D.D.D+) m J J J K L M N O P Q R S T U V ) W a X Y Z ",
"        . 7 q+9 u.z+m =.=.=.-.;.>.,.'.).5 - 7 !.~.{.].^./.(.-._.",
"        . . . . . . m J J J A 4.5.6.7.8.9.0.a.b.c.) 1 A X d.;.e.",
"                    m n.n.n.o.p.q.r.s.5 t.i.8 9 u.].v.w.x.y.z.t.",
"                    m n.n.n.e.t.4 J.K.L.M.N.v ' O.y D P.Q.R.0.4 ",
"                    m n.n.n.`. +g..+++; T @+9 O.#+$+%+&+y.*+I.J.",
"                    m n.n.n.I.~+{+]+^+/+8 (+{.x y _+{ :+R.<+[+}+",
"                    m n.n.n.5+S.6+7+; T 1 6.) 8+~ { 9+y.0+a+_ b+",
"                    m n.n.n.f+g+h+U.i+j+k+l+W $+. . . . . . . . ",
"                    m n.n.n.m+n+o+p+q+, r+s+t+u+. + @ # $ % & * ",
"                    m n.n.n.v+i.w+x+8 y+) z+a X 1 1 1 1 2 3 1 4 ",
"                    m m m m A+D.B+D.9 u.m m m m n o p 1 q r s t ",
"                            D.C+D.D.D+) m J J J K L M N O P Q R ",
"                            . 7 q+9 u.z+m =.=.=.-.;.>.,.'.).5 - ",
"                            . . . . . . m J J J A 4.5.6.7.8.9.0.",
"                                        m n.n.n.o.p.q.r.s.5 t.i."};
