/* XPM */
static char * down_xpm[] = {
"32 32 246 2",
"  	c None",
". 	c #272727",
"+ 	c #6F6F6F",
"@ 	c #396339",
"# 	c #2F742F",
"$ 	c #2C732D",
"% 	c #29712A",
"& 	c #277027",
"* 	c #246F24",
"= 	c #226E22",
"- 	c #1F6C20",
"; 	c #1C6B1C",
"> 	c #1A6A1A",
", 	c #186717",
"' 	c #156714",
") 	c #000000",
"! 	c #D3D3D3",
"~ 	c #61AF61",
"{ 	c #42A042",
"] 	c #3E9E3E",
"^ 	c #3B9D3A",
"/ 	c #379B37",
"( 	c #349933",
"_ 	c #2F9730",
": 	c #2C952C",
"< 	c #289328",
"[ 	c #259225",
"} 	c #219021",
"| 	c #146614",
"1 	c #3E9E3F",
"2 	c #3B9C3B",
"3 	c #30972F",
"4 	c #289329",
"5 	c #259124",
"6 	c #218F21",
"7 	c #156615",
"8 	c #42A142",
"9 	c #3F9F3F",
"0 	c #389B37",
"a 	c #339933",
"b 	c #309730",
"c 	c #299329",
"d 	c #259126",
"e 	c #156715",
"f 	c #62AF61",
"g 	c #43A043",
"h 	c #409F40",
"i 	c #3C9D3B",
"j 	c #389B38",
"k 	c #349935",
"l 	c #319831",
"m 	c #2D962D",
"n 	c #2A942A",
"o 	c #269227",
"p 	c #239023",
"q 	c #166715",
"r 	c #62B062",
"s 	c #44A143",
"t 	c #3D9D3C",
"u 	c #399C39",
"v 	c #359A36",
"w 	c #329832",
"x 	c #2F962F",
"y 	c #2B952B",
"z 	c #289228",
"A 	c #176817",
"B 	c #63B163",
"C 	c #45A144",
"D 	c #419F41",
"E 	c #3A9C3A",
"F 	c #369A37",
"G 	c #2C952D",
"H 	c #299429",
"I 	c #269226",
"J 	c #186918",
"K 	c #64B164",
"L 	c #45A245",
"M 	c #3F9F3E",
"N 	c #3C9C3C",
"O 	c #359935",
"P 	c #319731",
"Q 	c #2E962E",
"R 	c #2B942B",
"S 	c #1A691A",
"T 	c #65B164",
"U 	c #47A347",
"V 	c #44A044",
"W 	c #3C9D3D",
"X 	c #369A36",
"Y 	c #2D952D",
"Z 	c #1B6A1B",
"` 	c #66B266",
" .	c #49A348",
"..	c #41A041",
"+.	c #3E9F3E",
"@.	c #3B9D3B",
"#.	c #2F972F",
"$.	c #1D6B1D",
"%.	c #67B367",
"&.	c #4AA44A",
"*.	c #46A246",
"=.	c #3D9E3D",
"-.	c #349934",
";.	c #1F6C1F",
">.	c #68B369",
",.	c #4CA54C",
"'.	c #3F9E3F",
").	c #3C9D3C",
"!.	c #3A9C39",
"~.	c #369B36",
"{.	c #216D21",
"].	c #6AB46A",
"^.	c #4DA64D",
"/.	c #4BA44A",
"(.	c #47A248",
"_.	c #44A145",
":.	c #41A042",
"<.	c #359934",
"[.	c #236E24",
"}.	c #6CB46B",
"|.	c #4FA64F",
"1.	c #4AA34A",
"2.	c #47A246",
"3.	c #43A144",
"4.	c #409F41",
"5.	c #3F9E3E",
"6.	c #3A9B39",
"7.	c #5C9A5D",
"8.	c #52A851",
"9.	c #4EA64E",
"0.	c #287028",
"a.	c #959595",
"b.	c #486E48",
"c.	c #437543",
"d.	c #417441",
"e.	c #407340",
"f.	c #3E723D",
"g.	c #427D43",
"h.	c #81AC81",
"i.	c #5E9B5E",
"j.	c #53A953",
"k.	c #51A850",
"l.	c #4CA54B",
"m.	c #44A144",
"n.	c #2A722A",
"o.	c #297029",
"p.	c #267026",
"q.	c #256F25",
"r.	c #E5E5E5",
"s.	c #79BB79",
"t.	c #68B367",
"u.	c #64B165",
"v.	c #5FAF5E",
"w.	c #5CAD5C",
"x.	c #59AC58",
"y.	c #56AA56",
"z.	c #53A853",
"A.	c #51A751",
"B.	c #4BA54C",
"C.	c #49A349",
"D.	c #46A346",
"E.	c #43A042",
"F.	c #3B9D3C",
"G.	c #467145",
"H.	c #78BB78",
"I.	c #66B367",
"J.	c #63B164",
"K.	c #61B061",
"L.	c #5EAE5E",
"M.	c #5BAD5B",
"N.	c #58AC58",
"O.	c #50A751",
"P.	c #4EA74E",
"Q.	c #4BA54B",
"R.	c #49A449",
"S.	c #47A247",
"T.	c #43A143",
"U.	c #40A040",
"V.	c #3E9E3D",
"W.	c #266625",
"X.	c #77BB77",
"Y.	c #60AF60",
"Z.	c #5DAE5E",
"`.	c #5BAC5B",
" +	c #53A854",
".+	c #4FA64E",
"++	c #4DA54C",
"@+	c #48A348",
"#+	c #296729",
"$+	c #76BA76",
"%+	c #65B165",
"&+	c #62B063",
"*+	c #56AB56",
"=+	c #54A954",
"-+	c #51A852",
";+	c #4FA750",
">+	c #4DA54E",
",+	c #48A448",
"'+	c #46A245",
")+	c #2C6A2C",
"!+	c #65B265",
"~+	c #5DAE5D",
"{+	c #5BAD5C",
"]+	c #59AB59",
"^+	c #57AB57",
"/+	c #55A954",
"(+	c #53A852",
"_+	c #4FA74F",
":+	c #2E6B2E",
"<+	c #76BA75",
"[+	c #63B063",
"}+	c #60AF61",
"|+	c #5EAF5E",
"1+	c #5AAC5A",
"2+	c #57AB58",
"3+	c #56AA55",
"4+	c #52A852",
"5+	c #50A850",
"6+	c #326C32",
"7+	c #75BA76",
"8+	c #61AF60",
"9+	c #5DAD5D",
"0+	c #57AA57",
"a+	c #55AA55",
"b+	c #356E34",
"c+	c #77BA76",
"d+	c #66B366",
"e+	c #61B062",
"f+	c #5FB060",
"g+	c #5CAE5C",
"h+	c #58AB59",
"i+	c #386F38",
"j+	c #67B267",
"k+	c #63B162",
"l+	c #5FAF5F",
"m+	c #3A713A",
"n+	c #77BB78",
"o+	c #67B368",
"p+	c #3F723F",
"q+	c #79BB78",
"r+	c #69B369",
"s+	c #7DBE7D",
"t+	c #93C993",
"u+	c #457645",
"v+	c #323232",
"w+	c #759375",
"                                                                ",
"                                                                ",
"                  . + @ # $ % & * = - ; > , '                   ",
"                  ) ! ~ { ] ^ / ( _ : < [ } |                   ",
"                  ) ! ~ { 1 2 / ( 3 : 4 5 6 7                   ",
"                  ) ! ~ 8 9 2 0 a b : c d } e                   ",
"                  ) ! f g h i j k l m n o p q                   ",
"                  ) ! r s h t u v w x y z 5 A                   ",
"                  ) ! B C D ] E F a _ G H I J                   ",
"                  ) ! K L { M N j O P Q R z S                   ",
"                  ) ! T U V h W E X a b Y n Z                   ",
"                  ) ! `  .L ..+.@.j O w #.G $.                  ",
"                  ) ! %.&.*.s h =.E / -.P #.;.                  ",
"                  ) ! >.,. .L 8 '.).!.~.( l {.                  ",
"                  ) ! ].^./.(._.:.'.).u F <.[.                  ",
"                  ) ! }.|.,.1.2.3.4.5.i 6./ *                   ",
"                  ) ! 7.8.9.,. .*.s D '.t E 0.                  ",
"      a.b.c.d.e.f.g.h.i.j.k.9.l. .*.m...9 =.n.o.0.p.q.* *       ",
"      ) r.s.t.u.r v.w.x.y.z.A.9.B.C.D.C E.h 5.W F.E u j G.      ",
"        ) r.H.I.J.K.L.M.N.y.j.O.P.Q.R.S.L T.:.U.9 V.=.W.        ",
"          ) r.X.` B Y.Z.`.N.y. +A..+++&.@+D.C g { ..#+          ",
"            ) r.$+%+&+Y.Z.`.x.*+=+-+;+>+l.&.,+U '+)+            ",
"              ) r.$+!+r Y.~+{+]+^+/+(+O._+^.l.Q.:+              ",
"                ) r.<+!+[+}+|+w.1+2+3+=+4+5+_+6+                ",
"                  ) r.7+!+[+8+v.9+`.]+0+a+=+b+                  ",
"                    ) r.c+d+K e+f+L.g+1+h+i+                    ",
"                      ) r.X.j+u.k+~ l+L.m+                      ",
"                        ) r.n+o+` T r p+                        ",
"                          ) r.q+r+s+d.                          ",
"                            ) r.t+u+                            ",
"                              v+w+                              ",
"                                                                "};
