/* XPM */
static char * edit_xpm[] = {
"32 32 289 2",
"  	c None",
". 	c #999999",
"+ 	c #B2B2B2",
"@ 	c #EDEDED",
"# 	c #EEEEED",
"$ 	c #EFEEEF",
"% 	c #EFEFEF",
"& 	c #F0F0EF",
"* 	c #F0F0F0",
"= 	c #F0F0F1",
"- 	c #F1F1F1",
"; 	c #F1F0F1",
"> 	c #F1F0F0",
", 	c #F0EFF0",
"' 	c #EFEFF0",
") 	c #F0F1F1",
"! 	c #EEEEEE",
"~ 	c #EFEFEE",
"{ 	c #F1F2F2",
"] 	c #F2F1F1",
"^ 	c #F2F1F2",
"/ 	c #F2F2F2",
"( 	c #F2F2F1",
"_ 	c #E5E5E5",
": 	c #F0F1F0",
"< 	c #F3F2F3",
"[ 	c #F3F3F2",
"} 	c #F3F3F3",
"| 	c #F2F3F3",
"1 	c #F2F3F2",
"2 	c #F3F4F3",
"3 	c #F4F3F3",
"4 	c #F4F4F4",
"5 	c #F3F4F4",
"6 	c #F4F4F3",
"7 	c #F1F1F0",
"8 	c #F1F1F2",
"9 	c #F3F2F2",
"0 	c #F4F5F4",
"a 	c #F5F4F4",
"b 	c #F5F5F5",
"c 	c #F5F6F5",
"d 	c #F5F5F4",
"e 	c #F4F3F4",
"f 	c #F4F4F5",
"g 	c #F5F4F5",
"h 	c #F6F5F6",
"i 	c #F6F6F6",
"j 	c #F7F6F6",
"k 	c #F6F7F6",
"l 	c #F6F7F7",
"m 	c #F7F7F7",
"n 	c #F7F7F8",
"o 	c #F8F8F8",
"p 	c #F8F8F7",
"q 	c #F7F6F7",
"r 	c #EFF0F0",
"s 	c #CCCCCC",
"t 	c #F7F7F6",
"u 	c #F9F8F8",
"v 	c #F8F9F9",
"w 	c #F9F8F9",
"x 	c #F8F8F9",
"y 	c #F8F9F8",
"z 	c #F8F7F8",
"A 	c #F5F6F6",
"B 	c #F7F8F7",
"C 	c #F9F9F9",
"D 	c #F9FAF9",
"E 	c #F9FAFA",
"F 	c #FAF9FA",
"G 	c #F9F9FA",
"H 	c #EFEEEE",
"I 	c #EDEEEE",
"J 	c #F5F5F6",
"K 	c #FAFBFA",
"L 	c #FCFCFC",
"M 	c #FDFDFD",
"N 	c #FEFEFD",
"O 	c #FAFBFB",
"P 	c #EEEDED",
"Q 	c #EEEEEF",
"R 	c #FAFAFA",
"S 	c #FBFBFB",
"T 	c #FBFAFB",
"U 	c #EBECEC",
"V 	c #E4E4E5",
"W 	c #C1BFBA",
"X 	c #AEAEAE",
"Y 	c #A0947D",
"Z 	c #8B826E",
"` 	c #E8E8E8",
" .	c #F3F3F4",
"..	c #F8F7F7",
"+.	c #F1F2F1",
"@.	c #EAEAE9",
"#.	c #DFDDD8",
"$.	c #DDD3B6",
"%.	c #D8C59C",
"&.	c #E4D4A4",
"*.	c #9C917A",
"=.	c #9C9078",
"-.	c #DEDDDB",
";.	c #F4F5F5",
">.	c #E9E9E9",
",.	c #DFDEDA",
"'.	c #DCC696",
").	c #938973",
"!.	c #C6C1B5",
"~.	c #D6D6D6",
"{.	c #E6E5E5",
"].	c #EFF0EF",
"^.	c #EBEAEA",
"/.	c #E0DFDF",
"(.	c #D7CCB4",
"_.	c #DDC38C",
":.	c #E0C488",
"<.	c #C7BC9B",
"[.	c #AAA59A",
"}.	c #BCBCBC",
"|.	c #D5D5D5",
"1.	c #EBEBEB",
"2.	c #E1E2E2",
"3.	c #D8D1C2",
"4.	c #DBC492",
"5.	c #DDC287",
"6.	c #D9BF86",
"7.	c #B6AC8F",
"8.	c #8C8A85",
"9.	c #A3A4A4",
"0.	c #C2C2C2",
"a.	c #DADADA",
"b.	c #EEEFEF",
"c.	c #EDEDEE",
"d.	c #EAEAEB",
"e.	c #E4E3E3",
"f.	c #D9D6CE",
"g.	c #DBC188",
"h.	c #DBC087",
"i.	c #DEC287",
"j.	c #DCC186",
"k.	c #B3A98C",
"l.	c #7E7D7B",
"m.	c #989898",
"n.	c #B6B6B6",
"o.	c #D0D0D0",
"p.	c #E1E1E1",
"q.	c #ECEBEC",
"r.	c #EDECED",
"s.	c #979797",
"t.	c #E3E3E3",
"u.	c #DBDAD9",
"v.	c #D6C7A9",
"w.	c #DFC388",
"x.	c #DEC288",
"y.	c #DCC187",
"z.	c #DBC086",
"A.	c #AC9B76",
"B.	c #76746E",
"C.	c #818181",
"D.	c #99999A",
"E.	c #B4B3B4",
"F.	c #CDCCCC",
"G.	c #DEDEDE",
"H.	c #EAE9E9",
"I.	c #ECEDED",
"J.	c #919191",
"K.	c #DCDBDC",
"L.	c #D5CAB4",
"M.	c #DCC38D",
"N.	c #CBB381",
"O.	c #7B766C",
"P.	c #787878",
"Q.	c #8E8E8E",
"R.	c #A6A6A6",
"S.	c #BCBCBD",
"T.	c #DEDFDE",
"U.	c #E9E8E8",
"V.	c #EEEDEE",
"W.	c #F0EFEF",
"X.	c #EDEDEC",
"Y.	c #ECECEC",
"Z.	c #9B9487",
"`.	c #DAC394",
" +	c #C9B280",
".+	c #867E6D",
"++	c #727272",
"@+	c #878787",
"#+	c #9E9D9D",
"$+	c #B3B3B3",
"%+	c #C7C7C7",
"&+	c #D6D7D6",
"*+	c #E2E2E2",
"=+	c #E9EAE9",
"-+	c #EBECEB",
";+	c #CEB47D",
">+	c #DFC387",
",+	c #D4BB84",
"'+	c #958970",
")+	c #70706F",
"!+	c #828282",
"~+	c #D2D2D2",
"{+	c #E6E6E6",
"]+	c #ECECEB",
"^+	c #EEEFEE",
"/+	c #EBEBEC",
"(+	c #770000",
"_+	c #7C0000",
":+	c #9A3726",
"<+	c #A39474",
"[+	c #706E6B",
"}+	c #7C7C7C",
"|+	c #929392",
"1+	c #A8A8A8",
"2+	c #CDCDCD",
"3+	c #DBDBDB",
"4+	c #E3E4E4",
"5+	c #EDEEED",
"6+	c #EAEAEA",
"7+	c #7D0000",
"8+	c #7F0000",
"9+	c #BE8159",
"0+	c #B29F78",
"a+	c #747069",
"b+	c #767676",
"c+	c #8B8B8B",
"d+	c #A1A2A1",
"e+	c #C9C8C8",
"f+	c #D7D7D7",
"g+	c #700D0D",
"h+	c #7C766A",
"i+	c #707070",
"j+	c #848484",
"k+	c #9A9A9A",
"l+	c #B0B0AF",
"m+	c #C4C3C3",
"n+	c #DFDFDF",
"o+	c #E6E5E6",
"p+	c #EBEBEA",
"q+	c #ECEDEC",
"r+	c #E8E8E9",
"s+	c #7B0000",
"t+	c #776E5A",
"u+	c #6F6F6F",
"v+	c #7F7F7F",
"w+	c #949494",
"x+	c #AAAAAA",
"y+	c #CECECE",
"z+	c #E2E2E3",
"A+	c #ECEBEB",
"B+	c #E7E8E8",
"C+	c #6C0000",
"D+	c #590000",
"E+	c #575757",
"F+	c #919291",
"G+	c #A4A4A4",
"H+	c #B8B8B8",
"I+	c #E8E9E9",
"J+	c #E8E8E7",
"K+	c #E7E7E7",
"L+	c #B5B5B6",
"M+	c #C5C4C4",
"N+	c #D1D1D1",
"O+	c #DCDCDC",
"P+	c #ECECED",
"Q+	c #EAEBEA",
"R+	c #E7E7E8",
"S+	c #E6E7E6",
"T+	c #D8D8D8",
"U+	c #DFDFDE",
"V+	c #EBEAEB",
"W+	c #E9E9EA",
"X+	c #E8E9E8",
"Y+	c #E6E6E7",
"Z+	c #DEDEDD",
"`+	c #E3E2E2",
" @	c #EAE9EA",
".@	c #E9EAEA",
"+@	c #E8E7E8",
"@@	c #E5E4E5",
"#@	c #E5E6E5",
"$@	c #E6E7E7",
"%@	c #E7E6E7",
"&@	c #E5E6E6",
"*@	c #E5E5E6",
"=@	c #E5E5E4",
"-@	c #E4E3E4",
";@	c #E4E4E4",
">@	c #E2E3E2",
"        . . . . . . . . . . . . . . . . . . . . . +             ",
"        . @ # $ % & * * = - ; > - ; > * , ' % % ) . +           ",
"        . ! ~ % & > - { ] ^ / / / ( - - - ) % % ) . _ +         ",
"        . ~ % : - { ( < [ } } } } | | | / { ) % ) . ! _ +       ",
"        . , ; - / 1 } 2 3 4 4 4 4 5 6 } } / ^ % ) . $ ! _ +     ",
"        . 7 8 ( 9 6 6 0 a b b b c b d 4 e } [ % ) . % % % _ +   ",
"        . - / 9 2 f g h i i i j i i i b g 0 } % ) . . . . . . + ",
"        . ( 9 6 a b c k l m n o p m q j h b 4 r ) , s s s s s . ",
"        . | 6 4 b i t m o u v w x y o z m A b 4 } / { _ _ _ _ . ",
"        . } 6 b i k B o C D E F G C o o m t c b 4 } { - * H I . ",
"        . 4 J i m w E K L M N M O n 3 7 # P ! = 1 } [ / - ' Q . ",
"        . 4 b i m o C R S T R k [ U V W X Y Z ` ! ; [ / ; * % . ",
"        .  .a h m ..v u o j +.@.#.$.%.&.*.Z =.-.` , +.( ; ' ! . ",
"        . 2 4 b j m i ;.; >.,.'.&.&.&.&.&.).!.~.{.! - 8 7 ].! . ",
"        . } 4 4 g  .> ^./.(._.:.:.&.&.&.<.[.}.|._ # - > & % ! . ",
"        . 9 1 8 % 1.2.3.4.:.:.5.6.:.&.7.8.9.0.a.` b.* * ' ! c.. ",
"        . r I d.e.f.%.:.:.g.h.i.:.j.k.l.m.n.o.p.q.r ) * % ! r.. ",
"        s.>.t.u.v.w.:.x.y.z.:.i.A.B.C.D.E.F.G.H.% * > % H @ I.. ",
"        J.K.L.M.:.w.h.z.:.:.N.O.P.Q.R.S.o.T.U.V.> - W.% V.X.Y.. ",
"        Z.`.:.:.:.5.:.:. +.+++@+#+$+%+&+*+=+P * ) ' % ! @ @ -+. ",
"      ;+>+:.:.>+:.:.,+'+)+!+m.X 0.~+G.{+]+^+, * , Q ! @ Y./+^.. ",
"  (+_+:+:.:.:.:.z.<+[+}+|+1+}.2+3+4+^.! * - * , b.! 5+I.-+1.6+. ",
"7+8+8+_+9+:.>+0+a+b+c+d+n.e+f+p.` Y.b.% * * % Q ! P @ ]+1.6+H.. ",
"7+8+8+8+g+N.h+i+j+k+l+m+~+n+o+p+P ~ * % % H ! c.q+r.Y.1.6+@.r+. ",
"s+8+8+8+t+u+v+w+x+}.y+a.z+>.U c.$ ^+~ ! ! I @ X.Y.A+1.6+H.r+B+. ",
"  C+D+  E+F+G+H+%+|.n+{+^.q+I @ @ I @ @ @ Y.Y.1.1.^.6+@.I+J+K+. ",
"        i+L+M+N+O+z+` 6+P+q+Y.r.@ Y.q+Y.Y./+1.Q+^.>.>.>.R+K+S+. ",
"        j+o.T+U+_ ` =+1.A+1.1.]+q.1.1.1.V+6+6+W+>.X+` R+K+Y+o+. ",
"        J.Z+`+{+` >. @.@6+Q+6+Q+d.6+6+6+.@W+>.>.` +@K+{+{+_ @@. ",
"        . @@_ #@{+{+Y+K+K+K+K+K+K+K+K+$@%@{+&@{+*@@@=@t.t.`+*+. ",
"        . -@;@_ _ *@o+{.{+{+&@{+o+{+&@{+*@_ _ _ V e.t.t.>@*+p.. ",
"        . . . . . . . . . . . . . . . . . . . . . . . . . . . . "};
