/* XPM */
static char * help_xpm[] = {
"32 32 206 2",
"  	c None",
". 	c #999999",
"+ 	c #B2B2B2",
"@ 	c #EDEDED",
"# 	c #EEEEED",
"$ 	c #EFEEEF",
"% 	c #EFEFEF",
"& 	c #F0F0EF",
"* 	c #F0F0F0",
"= 	c #F0F0F1",
"- 	c #F1F1F1",
"; 	c #F1F0F1",
"> 	c #F1F0F0",
", 	c #F0EFF0",
"' 	c #EFEFF0",
") 	c #F0F1F1",
"! 	c #EEEEEE",
"~ 	c #EFEFEE",
"{ 	c #F1F2F2",
"] 	c #F2F1F1",
"^ 	c #F2F1F2",
"/ 	c #F2F2F2",
"( 	c #F2F2F1",
"_ 	c #E5E5E5",
": 	c #F0F1F0",
"< 	c #F3F2F3",
"[ 	c #F3F3F2",
"} 	c #F3F3F3",
"| 	c #F2F3F3",
"1 	c #F2F3F2",
"2 	c #F3F4F3",
"3 	c #F4F3F3",
"4 	c #F4F4F4",
"5 	c #F3F4F4",
"6 	c #F4F4F3",
"7 	c #F1F1F0",
"8 	c #F1F1F2",
"9 	c #F3F2F2",
"0 	c #F4F5F4",
"a 	c #F5F4F4",
"b 	c #F5F5F5",
"c 	c #F5F6F5",
"d 	c #F5F5F4",
"e 	c #F4F3F4",
"f 	c #F4F4F5",
"g 	c #F5F4F5",
"h 	c #F6F5F6",
"i 	c #F6F6F6",
"j 	c #F7F6F6",
"k 	c #F6F7F6",
"l 	c #F6F7F7",
"m 	c #F7F7F7",
"n 	c #F7F7F8",
"o 	c #F8F8F8",
"p 	c #F8F8F7",
"q 	c #F7F6F7",
"r 	c #EFF0F0",
"s 	c #CCCCCC",
"t 	c #F7F7F6",
"u 	c #F9F8F8",
"v 	c #F8F9F9",
"w 	c #F9F8F9",
"x 	c #F8F8F9",
"y 	c #F8F9F8",
"z 	c #F8F7F8",
"A 	c #F5F6F6",
"B 	c #F9FAFA",
"C 	c #FBFAFA",
"D 	c #FCFCFC",
"E 	c #FDE1E1",
"F 	c #FE8282",
"G 	c #FE4444",
"H 	c #FE1717",
"I 	c #FE0303",
"J 	c #FE0B0B",
"K 	c #FE2E2E",
"L 	c #FB7C7D",
"M 	c #F9EBEB",
"N 	c #F8F7F7",
"O 	c #F9F9F8",
"P 	c #FAFAFA",
"Q 	c #FD9595",
"R 	c #FF0000",
"S 	c #FD2A2A",
"T 	c #F7EDED",
"U 	c #F5F5F6",
"V 	c #EEEFEF",
"W 	c #FAFBFA",
"X 	c #FE2626",
"Y 	c #FE6969",
"Z 	c #FD7374",
"` 	c #FE2121",
" .	c #FA8D8D",
"..	c #F6F6F7",
"+.	c #EEEEEF",
"@.	c #F9F9F9",
"#.	c #FBFBFB",
"$.	c #FCB6B6",
"%.	c #FDB4B4",
"&.	c #FCFDFC",
"*.	c #FDFDFC",
"=.	c #FBFCFC",
"-.	c #FBDCDD",
";.	c #FB6060",
">.	c #F3F3F4",
",.	c #FAF9F9",
"'.	c #FCFBFB",
").	c #FBFCFB",
"!.	c #FCFCFB",
"~.	c #FBD7D7",
"{.	c #FA7070",
"].	c #FAF9FA",
"^.	c #FAFBFB",
"/.	c #FBFAFB",
"(.	c #FAFAFB",
"_.	c #FBEBEC",
":.	c #FD3636",
"<.	c #FE0101",
"[.	c #F7C5C5",
"}.	c #EFF0EF",
"|.	c #F9F9FA",
"1.	c #FAFAF9",
"2.	c #F9DAD9",
"3.	c #FA8888",
"4.	c #F8E5E6",
"5.	c #FE1F1F",
"6.	c #FE0505",
"7.	c #F9999A",
"8.	c #EDEDEE",
"9.	c #F7F8F7",
"0.	c #FA7E7F",
"a.	c #F9A1A1",
"b.	c #EDECED",
"c.	c #F6F6F5",
"d.	c #FA7171",
"e.	c #FD2121",
"f.	c #F5F3F4",
"g.	c #EFEEEE",
"h.	c #ECEDED",
"i.	c #F0EFEF",
"j.	c #EEEDEE",
"k.	c #EDEDEC",
"l.	c #ECECEC",
"m.	c #F7A8A8",
"n.	c #F97D7D",
"o.	c #F87D7D",
"p.	c #EBECEB",
"q.	c #F1F2F1",
"r.	c #F2F2F3",
"s.	c #FA5656",
"t.	c #EBEBEC",
"u.	c #EBEAEA",
"v.	c #EDEEED",
"w.	c #EBEBEB",
"x.	c #EAEAEA",
"y.	c #EEEDED",
"z.	c #ECECEB",
"A.	c #EAE9E9",
"B.	c #ECEDEC",
"C.	c #EAEAE9",
"D.	c #E8E8E9",
"E.	c #E9E9E9",
"F.	c #EAEBEA",
"G.	c #ECEBEB",
"H.	c #ECEBEC",
"I.	c #EBEAEB",
"J.	c #E9E9EA",
"K.	c #E8E9E8",
"L.	c #E8E8E8",
"M.	c #E7E7E8",
"N.	c #E7E7E7",
"O.	c #E6E6E7",
"P.	c #E6E5E6",
"Q.	c #E8E8E7",
"R.	c #E9E8E8",
"S.	c #EAE9EA",
"T.	c #E9EAEA",
"U.	c #EAEAEB",
"V.	c #E8E7E8",
"W.	c #E6E6E6",
"X.	c #E5E4E5",
"Y.	c #E7E6E7",
"Z.	c #E7E8E8",
"`.	c #E8E9E9",
" +	c #E7E8E7",
".+	c #E6E7E6",
"++	c #E4E4E4",
"@+	c #E6E6E5",
"#+	c #E6E7E7",
"$+	c #E8E7E7",
"%+	c #E7E7E6",
"&+	c #E4E5E5",
"*+	c #E3E4E3",
"=+	c #E3E3E3",
"-+	c #E5E6E5",
";+	c #E5E6E6",
">+	c #E5E5E6",
",+	c #E5E5E4",
"'+	c #E3E2E2",
")+	c #E2E2E2",
"!+	c #E4E3E4",
"~+	c #E6E5E5",
"{+	c #E4E4E5",
"]+	c #E4E3E3",
"^+	c #E2E3E2",
"/+	c #E1E1E1",
"    . . . . . . . . . . . . . . . . . . . . . +                 ",
"    . @ # $ % & * * = - ; > - ; > * , ' % % ) . +               ",
"    . ! ~ % & > - { ] ^ / / / ( - - - ) % % ) . _ +             ",
"    . ~ % : - { ( < [ } } } } | | | / { ) % ) . ! _ +           ",
"    . , ; - / 1 } 2 3 4 4 4 4 5 6 } } / ^ % ) . $ ! _ +         ",
"    . 7 8 ( 9 6 6 0 a b b b c b d 4 e } [ % ) . % % % _ +       ",
"    . - / 9 2 f g h i i i j i i i b g 0 } % ) . . . . . . +     ",
"    . ( 9 6 a b c k l m n o p m q j h b 4 r ) , s s s s s .     ",
"    . | 6 4 b i t m o u v w x y o z m A b 4 } / { _ _ _ _ .     ",
"    . 4 b i n o B C D E F G H I J K L M m k b 4 } / - * % .     ",
"    . 4 b i N O P P D Q R R R R R R R S T i U 4 } / - * V .     ",
"    . 4 U i m w B W D Q R X Y Z ` R R R  ...c 4 [ / - ' +..     ",
"    . 4 b i m o @.P #.$.%.&.*.=.-.R R R ;.i b e [ / ; * % .     ",
"    . >.a h m N v ,.P '.).!.).#.~.R R R {.i 4 e 1 ( ; ' ! .     ",
"    . 2 4 b j m o v ].P ^./.(._.:.R R <.[.b a } / 8 7 }.! .     ",
"    . } 4 4 h ..N u w |.1.,.2.X R R R 3.i b 4 [ / > & % ! .     ",
"    . 9 2 f b i l m p o u 4.5.R R 6.7.A b 4 } | - * ' ! 8..     ",
"    . { | >.a b c q m m 9.0.R R R a.i b 4 } < { ) * % ! b..     ",
"    . - / } >.4 d b c.i ..d.e.e.e.f.g a 2 9 / - > % g.@ h..     ",
"    . = - / | } 2 a 0 b b b b b b f 4 2 9 ^ ] - i.% j.k.l..     ",
"    . , : - 8 [ } 3 4 4 4 m.n.o.n.2 } 1 ] - ) ' % ! @ @ p..     ",
"    . +.& ) ; q./ 9 r.r.} s.R R R / ( q.; * , +.! @ l.t.u..     ",
"    . ! % ' * = - - q.{ / s.R R R - - - * , V ! v.h.p.w.x..     ",
"    . @ # ~ % % * : * > - s.R R R * * * % +.! y.@ z.w.x.A..     ",
"    . b.@ v.! ! ~ i.% * , & i.& * % % g.! 8.B.b.l.w.x.C.D..     ",
"    . E.E.C.x.x.F.w.G.w.w.z.H.w.w.w.I.x.x.J.E.K.L.M.N.O.P..     ",
"    . Q.R.E.E.E.S.T.x.F.x.F.U.x.x.x.T.J.E.E.L.V.N.W.W._ X..     ",
"    . Y.N.Z.Q.L.`.K.E.S.A.J.A.E.E.`.K.K.L. + +O..+W._ ++++.     ",
"    . @+W.O.#+N. +L.Z.L.L.L.L.K.L.L.V.$+%+N.W.@+_ &+++*+=+.     ",
"    . X._ -+W.W.O.N.N.N.N.N.N.N.N.#+Y.W.;+W.>+X.,+=+=+'+)+.     ",
"    . !+++_ _ >+P.~+W.W.;+W.P.W.;+W.>+_ _ _ {+]+=+=+^+)+/+.     ",
"    . . . . . . . . . . . . . . . . . . . . . . . . . . . .     "};
