/* XPM */
static char * info_xpm[] = {
"32 32 167 2",
"  	c None",
". 	c #FFFF00",
"+ 	c #FBFABE",
"@ 	c #FBFBC3",
"# 	c #FBFBC6",
"$ 	c #FCFBC7",
"% 	c #FBFBC5",
"& 	c #FBFBC2",
"* 	c #FAFABE",
"= 	c #FAF9B7",
"- 	c #FBFABF",
"; 	c #FBFBC7",
"> 	c #FBFBCC",
", 	c #FCFBD1",
"' 	c #FCFCD2",
") 	c #FCFBD0",
"! 	c #FBFBCD",
"~ 	c #FBFBC0",
"{ 	c #FAF9B3",
"] 	c #FBFBBE",
"^ 	c #FCFBC6",
"/ 	c #FBFCCF",
"( 	c #FCFCD7",
"_ 	c #FCFCDB",
": 	c #FDFCDE",
"< 	c #FDFCDB",
"[ 	c #FDFCD6",
"} 	c #FCFBCF",
"| 	c #FAF9AD",
"1 	c #FBF9B8",
"2 	c #FCFBCD",
"3 	c #FDFDDF",
"4 	c #FEFDE5",
"5 	c #FDFEE9",
"6 	c #FEFDE6",
"7 	c #FDFCDF",
"8 	c #FBFAC3",
"9 	c #FAFAB8",
"0 	c #FAF9AF",
"a 	c #FAF9BB",
"b 	c #FBFAC6",
"c 	c #FDFCDC",
"d 	c #FEFEEF",
"e 	c #FEFEF4",
"f 	c #FDFEEF",
"g 	c #FDFEE6",
"h 	c #FDFDDC",
"i 	c #FAFABB",
"j 	c #F9F9A5",
"k 	c #FAF9B1",
"l 	c #FBFABC",
"m 	c #FDFCDD",
"n 	c #FEFDE9",
"o 	c #FFFFFF",
"p 	c #FFFEF4",
"q 	c #FDFEE8",
"r 	c #FDFDDE",
"s 	c #FDFBD2",
"t 	c #FBFABB",
"u 	c #FAF8A5",
"v 	c #FAF8A4",
"w 	c #FCFCD0",
"x 	c #FCFCDC",
"y 	c #FDFDE6",
"z 	c #FDFDE5",
"A 	c #FDFDDB",
"B 	c #FCFCD1",
"C 	c #FAF9B0",
"D 	c #F9F8A4",
"E 	c #F9F8A2",
"F 	c #FAF8AD",
"G 	c #FCFAC3",
"H 	c #FCFCCD",
"I 	c #FCFCD6",
"J 	c #FEFDE8",
"K 	c #FBFCCC",
"L 	c #FBFAC2",
"M 	c #FAF9B8",
"N 	c #F9F79F",
"O 	c #F9F9AA",
"P 	c #FBF9B3",
"Q 	c #FBFABD",
"R 	c #FCFDDC",
"S 	c #FAFAB4",
"T 	c #FAF8A9",
"U 	c #F9F89F",
"V 	c #F9F89A",
"W 	c #F9F8A5",
"X 	c #FAF9AE",
"Y 	c #FCFAC7",
"Z 	c #FDFCD2",
"` 	c #FBFAC7",
" .	c #FBF9B7",
"..	c #F9F89B",
"+.	c #F9F795",
"@.	c #F9F89E",
"#.	c #F9F9A7",
"$.	c #FAFAB7",
"%.	c #FCFBC2",
"&.	c #FBFAB7",
"*.	c #F9F79E",
"=.	c #F8F68F",
"-.	c #F8F798",
";.	c #F9F8A0",
">.	c #FBFABA",
",.	c #F9F8A8",
"'.	c #F8F898",
").	c #F8F78F",
"!.	c #F7F787",
"~.	c #F8F790",
"{.	c #F9F797",
"].	c #FAF8AA",
"^.	c #F9F8A9",
"/.	c #F9F798",
"(.	c #7F7F7F",
"_.	c #999999",
":.	c #F7F680",
"<.	c #F7F688",
"[.	c #F8F795",
"}.	c #F8F79F",
"|.	c #F9F9A2",
"1.	c #F8F78E",
"2.	c #F8F788",
"3.	c #BFBFBF",
"4.	c #B2B2B2",
"5.	c #ABABAB",
"6.	c #F6F57E",
"7.	c #F8F685",
"8.	c #F8F78B",
"9.	c #F8F794",
"0.	c #F8F897",
"a.	c #F8F899",
"b.	c #F8F89A",
"c.	c #F9F79A",
"d.	c #F8F791",
"e.	c #F7F68B",
"f.	c #F7F685",
"g.	c #FDFD00",
"h.	c #D3D3D3",
"i.	c #A1A1A1",
"j.	c #F7F57C",
"k.	c #F7F582",
"l.	c #F7F686",
"m.	c #F8F68A",
"n.	c #F8F68C",
"o.	c #F8F68E",
"p.	c #F7F68D",
"q.	c #F8F78A",
"r.	c #F8F686",
"s.	c #F7F581",
"t.	c #B9B9B9",
"u.	c #C4C4C4",
"v.	c #F7F477",
"w.	c #F6F57C",
"x.	c #F7F67E",
"y.	c #F7F682",
"z.	c #F7F683",
"A.	c #F7F583",
"B.	c #666666",
"C.	c #CACACA",
"D.	c #878787",
"E.	c #B8B8B8",
"F.	c #C3C3C3",
"G.	c #D2D2D2",
"H.	c #E0E0E0",
"I.	c #C6C6C6",
"J.	c #AAAAAA",
"                                                                ",
"                                                                ",
"                                                                ",
"                                . . . . . . .                   ",
"                            . . + @ # $ % & * . .               ",
"                          . = - ; > , ' ) ! ; ~ = .             ",
"                        . { ] ^ / ( _ : < [ } # + { .           ",
"                      . | 1 & 2 [ 3 4 5 6 7 ( 2 8 9 | .         ",
"                      . 0 a b ) c 6 d e f g h ) # i 0 .         ",
"                    . j k l $ ' m n e o p q r s $ t k u .       ",
"                    . v 0 t b w x y d e f z A B # t C D .       ",
"                    . E F 1 G H I 3 6 J 4 3 [ K L M | E .       ",
"                    . N O P Q ; } I < m R I ) $ + S T U .       ",
"                    . V W X = - Y H ) Z B 2 ` ~  .X D ...       ",
"                    . +.@.#.C $.+ @ # $ # %.+ &.0 #.*.+..       ",
"                    . =.-.;.#.X S 9 >.t >.9 S X ,.;.'.)..       ",
"                    . !.~.{.@.v ].| C k 0 | ^.D U /.~..         ",
"                  (._.:.<.=.[.V }.E D j D |.U ..[.1.2..         ",
"                (.3.4.5.6.7.8.~.9.0.a.b.c.{.9.d.e.f.. g.        ",
"              (._.4.h.3.i.j.k.l.m.n.o.=.1.p.q.r.s.. .           ",
"            (.3.4.t.3.u.4._.v.w.x.y.z.z.A.k.x.. .               ",
"          (._.4.h.3.i.4.3.4.(.. . . . . . . .                   ",
"        (.3.4.t.3.u.4._.4.(.B.                                  ",
"      (._.4.h.3.i.4.3.4.(.B.                                    ",
"      (.3.C.3.u.4._.4.(.B.                                      ",
"      D.C.C.E.4.3.4.(.B.                                        ",
"      F.G.E.3.4.4.(.B.                                          ",
"        H.I.J.4.(.B.                                            ",
"          I.B.B.B.                                              ",
"                                                                ",
"                                                                ",
"                                                                "};
