/* XPM */
static char * me1001_delete_xpm[] = {
"32 32 145 2",
"  	c None",
". 	c #FF0000",
"+ 	c #007F00",
"@ 	c #724600",
"# 	c #098409",
"$ 	c #0D850D",
"% 	c #108710",
"& 	c #148914",
"* 	c #188B18",
"= 	c #1B8D1C",
"- 	c #208F20",
"; 	c #249125",
"> 	c #299328",
", 	c #5A7523",
"' 	c #FB0200",
") 	c #595959",
"! 	c #575758",
"~ 	c #555556",
"{ 	c #535454",
"] 	c #168A16",
"^ 	c #1A8C19",
"/ 	c #1E8D1D",
"( 	c #229021",
"_ 	c #269226",
": 	c #3B8726",
"< 	c #E80F04",
"[ 	c #666666",
"} 	c #535353",
"| 	c #515251",
"1 	c #505050",
"2 	c #4D4D4E",
"3 	c #198B19",
"4 	c #033D03",
"5 	c #289328",
"6 	c #B11200",
"7 	c #CCCCCC",
"8 	c #4D4D4D",
"9 	c #4C4B4C",
"0 	c #494949",
"a 	c #484848",
"b 	c #1C8D1C",
"c 	c #7C5A19",
"d 	c #E5E5E5",
"e 	c #474747",
"f 	c #454545",
"g 	c #444343",
"h 	c #414142",
"i 	c #208F1F",
"j 	c #FF7C7C",
"k 	c #FF0707",
"l 	c #FF1B1B",
"m 	c #FF7D7D",
"n 	c #FF7979",
"o 	c #FF1919",
"p 	c #FF4545",
"q 	c #424142",
"r 	c #3F3F3F",
"s 	c #3D3D3D",
"t 	c #3C3C3C",
"u 	c #249123",
"v 	c #AE8B8B",
"w 	c #FC0404",
"x 	c #AE8D8D",
"y 	c #A2A2A2",
"z 	c #A89797",
"A 	c #F41313",
"B 	c #DA3F3F",
"C 	c #B2B2B2",
"D 	c #3B3B3B",
"E 	c #3A3A39",
"F 	c #373838",
"G 	c #363636",
"H 	c #279328",
"I 	c #8A8A8A",
"J 	c #DF2727",
"K 	c #FC0202",
"L 	c #B16060",
"M 	c #8D8D8D",
"N 	c #958383",
"O 	c #FA0606",
"P 	c #A46F6F",
"Q 	c #353535",
"R 	c #343434",
"S 	c #313232",
"T 	c #30302F",
"U 	c #2B952B",
"V 	c #9B9B9B",
"W 	c #9C9999",
"X 	c #B07A7A",
"Y 	c #A78686",
"Z 	c #A58989",
"` 	c #9B9999",
" .	c #2F3030",
"..	c #2D2D2D",
"+.	c #2B2C2C",
"@.	c #2A292A",
"#.	c #2F962F",
"$.	c #292929",
"%.	c #272728",
"&.	c #262526",
"*.	c #232424",
"=.	c #339934",
"-.	c #979797",
";.	c #232423",
">.	c #212122",
",.	c #1F2020",
"'.	c #1E1E1E",
").	c #389B38",
"!.	c #898989",
"~.	c #1E1D1D",
"{.	c #1C1C1C",
"].	c #191919",
"^.	c #181818",
"/.	c #3C9D3C",
"(.	c #171817",
"_.	c #161615",
":.	c #141413",
"<.	c #121212",
"[.	c #409F40",
"}.	c #797979",
"|.	c #111211",
"1.	c #0F1010",
"2.	c #0E0E0D",
"3.	c #0C0C0C",
"4.	c #45A244",
"5.	c #4AA44B",
"6.	c #0B0B0C",
"7.	c #0A0A0A",
"8.	c #070808",
"9.	c #050606",
"0.	c #49A349",
"a.	c #4FA64F",
"b.	c #060506",
"c.	c #030404",
"d.	c #020101",
"e.	c #000000",
"f.	c #4DA64D",
"g.	c #4EA74E",
"h.	c #4FA74F",
"i.	c #51A851",
"j.	c #53A852",
"k.	c #55AA54",
"l.	c #57AB56",
"m.	c #59AC59",
"n.	c #50A74F",
"                                                                ",
"                                                                ",
"                                                                ",
"                                                                ",
"                        . . .               . . . . .           ",
"                      . . . . .           . . . . . .           ",
"                      . . . . . . .     . . . . . . .           ",
"                        . . . . . . . . . . . . . .             ",
"                            . . . . . . . . . .                 ",
"                              . . . . . . .                     ",
"        + + + + + + + + + + + @ . . . . . .                     ",
"        + # $ % & * = - ; > , ' . . . . . . .                   ",
"        ) ! ~ { ] ^ / ( _ : < . . . . . . . . .                 ",
"[ [ [ [ } | 1 2 3 4 4 4 5 6 . . . .   . . . . . .               ",
"[ 7 7 7 8 9 0 a b 4 [ 4 c . . . . .     . . . . . .   [       [ ",
"[ d d d e f g h i 4 [ j k . . . l j m m n o . . . . p m m m m [ ",
"[ 7 7 7 q r s t u 4 [ v . . . w x y y y y z A . . . B y y y y [ ",
"[ C C C D E F G H 4 [ I J . K L M M M M M M N J . O P M M M M [ ",
"[ C C C Q R S T U 4 [ V W X Y V V V V V V V V V Z ` V V V V V [ ",
"[ C C C  ...+.@.#.4 [ M M M M M M M M M M M M M M M M M M M M [ ",
"[ C C C $.%.&.*.=.4 [ -.-.-.-.-.-.-.-.-.-.-.-.-.-.-.-.-.-.-.-.[ ",
"[ C C C ;.>.,.'.).4 [ !.!.!.!.!.!.!.!.!.!.!.!.!.!.!.!.!.!.!.!.[ ",
"[ C C C ~.{.].^./.4 [ -.-.-.-.-.-.-.-.-.-.-.-.-.-.-.-.-.-.-.-.[ ",
"[ C C C (._.:.<.[.4 [ }.}.}.}.}.}.}.}.}.}.}.}.}.}.}.}.}.}.}.}.[ ",
"[ C C C |.1.2.3.4.4 [ 4 5.4 [ 4 +                     [       [ ",
"[ [ [ [ 6.7.8.9.0.4 4 4 a.4 4 4 +                               ",
"        b.c.d.e.f.g.h.i.j.k.l.m.+                               ",
"        + n.n.+ + + + + + + + + +                               ",
"        + + + +                                                 ",
"                                                                ",
"                                                                ",
"                                                                "};
