/* XPM */
static char * me1001_add_xpm[] = {
"32 32 120 2",
"  	c None",
". 	c #007F00",
"+ 	c #098409",
"@ 	c #0D850D",
"# 	c #108710",
"$ 	c #148914",
"% 	c #188B18",
"& 	c #1B8D1C",
"* 	c #208F20",
"= 	c #249125",
"- 	c #299328",
"; 	c #2C962D",
"> 	c #319831",
", 	c #595959",
"' 	c #575758",
") 	c #555556",
"! 	c #535454",
"~ 	c #168A16",
"{ 	c #1A8C19",
"] 	c #1E8D1D",
"^ 	c #229021",
"/ 	c #269226",
"( 	c #2A942A",
"_ 	c #2E962E",
": 	c #329832",
"< 	c #666666",
"[ 	c #535353",
"} 	c #515251",
"| 	c #505050",
"1 	c #4D4D4E",
"2 	c #198B19",
"3 	c #033D03",
"4 	c #289328",
"5 	c #CCCCCC",
"6 	c #4D4D4D",
"7 	c #4C4B4C",
"8 	c #494949",
"9 	c #484848",
"0 	c #1C8D1C",
"a 	c #29942A",
"b 	c #E5E5E5",
"c 	c #474747",
"d 	c #454545",
"e 	c #444343",
"f 	c #414142",
"g 	c #208F1F",
"h 	c #FF7D7D",
"i 	c #424142",
"j 	c #3F3F3F",
"k 	c #3D3D3D",
"l 	c #3C3C3C",
"m 	c #249123",
"n 	c #A2A2A2",
"o 	c #B2B2B2",
"p 	c #3B3B3B",
"q 	c #3A3A39",
"r 	c #373838",
"s 	c #363636",
"t 	c #279328",
"u 	c #8A8A8A",
"v 	c #8D8D8D",
"w 	c #353535",
"x 	c #343434",
"y 	c #313232",
"z 	c #30302F",
"A 	c #2B952B",
"B 	c #9B9B9B",
"C 	c #2F3030",
"D 	c #2D2D2D",
"E 	c #2B2C2C",
"F 	c #2A292A",
"G 	c #2F962F",
"H 	c #292929",
"I 	c #272728",
"J 	c #262526",
"K 	c #232424",
"L 	c #339934",
"M 	c #979797",
"N 	c #232423",
"O 	c #212122",
"P 	c #1F2020",
"Q 	c #1E1E1E",
"R 	c #389B38",
"S 	c #898989",
"T 	c #1E1D1D",
"U 	c #1C1C1C",
"V 	c #191919",
"W 	c #181818",
"X 	c #3C9D3C",
"Y 	c #171817",
"Z 	c #161615",
"` 	c #141413",
" .	c #121212",
"..	c #409F40",
"+.	c #797979",
"@.	c #111211",
"#.	c #0F1010",
"$.	c #0E0E0D",
"%.	c #0C0C0C",
"&.	c #45A244",
"*.	c #4AA44B",
"=.	c #0B0B0C",
"-.	c #0A0A0A",
";.	c #070808",
">.	c #050606",
",.	c #49A349",
"'.	c #4FA64F",
").	c #060506",
"!.	c #030404",
"~.	c #020101",
"{.	c #000000",
"].	c #4DA64D",
"^.	c #4EA74E",
"/.	c #4FA74F",
"(.	c #51A851",
"_.	c #53A852",
":.	c #55AA54",
"<.	c #57AB56",
"[.	c #59AC59",
"}.	c #50A74F",
"                                                                ",
"                                                                ",
"                                                                ",
"                                                                ",
"                                                                ",
"                                                                ",
"                                                                ",
"        . . . . . . . . . . . . .                               ",
"        . + @ # $ % & * = - ; > .                               ",
"        , ' ) ! ~ { ] ^ / ( _ : .                               ",
"< < < < [ } | 1 2 3 3 3 4 3 3 3 .                               ",
"< 5 5 5 6 7 8 9 0 3 < 3 a 3 < 3 .                   <         < ",
"< b b b c d e f g 3 < h h h h h h h h h h h h h h h h h h h h < ",
"< 5 5 5 i j k l m 3 < n n n n n n n n n n n n n n n n n n n n < ",
"< o o o p q r s t 3 < u v v v v v v v v v v v v v v v v v v v < ",
"< o o o w x y z A 3 < B B B B B B B B B B B B B B B B B B B B < ",
"< o o o C D E F G 3 < v v v v v v v v v v v v v v v v v v v v < ",
"< o o o H I J K L 3 < M M M M M M M M M M M M M M M M M M M M < ",
"< o o o N O P Q R 3 < S S S S S S S S S S S S S S S S S S S S < ",
"< o o o T U V W X 3 < M M M M M M M M M M M M M M M M M M M M < ",
"< o o o Y Z `  ...3 < +.+.+.+.+.+.+.+.+.+.+.+.+.+.+.+.+.+.+.+.< ",
"< o o o @.#.$.%.&.3 < 3 *.3 < 3 .                   <         < ",
"< < < < =.-.;.>.,.3 3 3 '.3 3 3 .                               ",
"        ).!.~.{.].^./.(._.:.<.[..                               ",
"        . }.}.. . . . . . . . . .                               ",
"        . . . .                                                 ",
"                                                                ",
"                                                                ",
"                                                                ",
"                                                                ",
"                                                                ",
"                                                                "};
