/* XPM */
static char * MEIcon_xpm[] = {
"16 16 16 1",
" 	c None",
".	c #FFFFFF",
"+	c #FFA1A1",
"@	c #FFA8A8",
"#	c #FF9B9B",
"$	c #FF0000",
"%	c #FF3F3F",
"&	c #FF5757",
"*	c #FF7D7D",
"=	c #FF6C6C",
"-	c #FF5B5B",
";	c #FF9797",
">	c #FF5959",
",	c #FFB1B1",
"'	c #FF8C8C",
")	c #FF5C5C",
"................",
"................",
"................",
"++.....@#.$%%%%$",
"+&*...=$-.$$$$$$",
"+***;*$$>.$$*;,,",
"'*******).$$$$*.",
"*$******;.%%%%*.",
"*$$%****;.;;;;;;",
"*$$$$=**;.;;;;;;",
"'%=====',.;;;;;;",
"................",
"................",
"................",
"................",
"................"};
