/* XPM */
static char * multisig_xpm[] = {
"32 32 457 2",
"  	c None",
". 	c #FC4C00",
"+ 	c #FB4B00",
"@ 	c #FA4B00",
"# 	c #F94B00",
"$ 	c #DF570D",
"% 	c #7C7C38",
"& 	c #598745",
"* 	c #4D8A47",
"= 	c #4B8845",
"- 	c #498743",
"; 	c #478541",
"> 	c #45843E",
", 	c #42823C",
"' 	c #41823B",
") 	c #3F8039",
"! 	c #3D8037",
"~ 	c #3C8136",
"{ 	c #3B7E35",
"] 	c #377131",
"^ 	c #346A2D",
"/ 	c #31682B",
"( 	c #306F29",
"_ 	c #31772A",
": 	c #317A2B",
"< 	c #307929",
"[ 	c #2E7627",
"} 	c #2D7526",
"| 	c #2C7425",
"1 	c #2B7324",
"2 	c #2A7324",
"3 	c #297324",
"4 	c #297323",
"5 	c #2D7222",
"6 	c #56691A",
"7 	c #B3570B",
"8 	c #D44F0D",
"9 	c #4D633E",
"0 	c #3F6340",
"a 	c #3F773F",
"b 	c #458745",
"c 	c #458945",
"d 	c #448943",
"e 	c #418640",
"f 	c #3E853F",
"g 	c #3A813B",
"h 	c #367B36",
"i 	c #327532",
"j 	c #347C34",
"k 	c #337B32",
"l 	c #314531",
"m 	c #313830",
"n 	c #2C372C",
"o 	c #215121",
"p 	c #266B26",
"q 	c #287628",
"r 	c #287728",
"s 	c #267626",
"t 	c #257625",
"u 	c #257624",
"v 	c #247523",
"w 	c #237323",
"x 	c #206E20",
"y 	c #1E671E",
"z 	c #215122",
"A 	c #294D20",
"B 	c #94450D",
"C 	c #C7440C",
"D 	c #373737",
"E 	c #353535",
"F 	c #2F552F",
"G 	c #609A5F",
"H 	c #93BE93",
"I 	c #92BF92",
"J 	c #90BD90",
"K 	c #8EBD8F",
"L 	c #8BB98C",
"M 	c #428342",
"N 	c #265A26",
"O 	c #2E712E",
"P 	c #2F742F",
"Q 	c #303C30",
"R 	c #313131",
"S 	c #2B2E2B",
"T 	c #183818",
"U 	c #215F20",
"V 	c #257025",
"W 	c #267826",
"X 	c #76AC76",
"Y 	c #7DB27C",
"Z 	c #7CB27C",
"` 	c #7BB27B",
" .	c #7BB07B",
"..	c #4F904F",
"+.	c #165216",
"@.	c #212621",
"#.	c #222222",
"$.	c #6A2A0F",
"%.	c #C0420C",
"&.	c #363636",
"*.	c #343434",
"=.	c #213B21",
"-.	c #549B54",
";.	c #5DA15D",
">.	c #5A9F5B",
",.	c #579F58",
"'.	c #559D55",
").	c #539C53",
"!.	c #3D893D",
"~.	c #1A411A",
"{.	c #296629",
"].	c #2C702C",
"^.	c #2A3F2A",
"/.	c #282E28",
"(.	c #222822",
"_.	c #133113",
":.	c #1E5A1D",
"<.	c #226A22",
"[.	c #257B25",
"}.	c #388B38",
"|.	c #378B37",
"1.	c #368A36",
"2.	c #358A35",
"3.	c #2B842C",
"4.	c #114211",
"5.	c #1E211E",
"6.	c #20201F",
"7.	c #4B200E",
"8.	c #BE410C",
"9.	c #343334",
"0.	c #1C321C",
"a.	c #4F994E",
"b.	c #4C974B",
"c.	c #499649",
"d.	c #469445",
"e.	c #439243",
"f.	c #409140",
"g.	c #3A883A",
"h.	c #284428",
"i.	c #658D65",
"j.	c #679467",
"k.	c #608460",
"l.	c #576E57",
"m.	c #546654",
"n.	c #577057",
"o.	c #527B52",
"p.	c #286027",
"q.	c #217622",
"r.	c #228022",
"s.	c #217F21",
"t.	c #207E20",
"u.	c #1F7D1F",
"v.	c #1E7D1E",
"w.	c #1D7D1E",
"x.	c #0E3A0E",
"y.	c #1B1D1B",
"z.	c #1D1D1D",
"A.	c #3F1C0D",
"B.	c #BD410C",
"C.	c #343535",
"D.	c #333333",
"E.	c #1B301B",
"F.	c #4D994D",
"G.	c #4B974A",
"H.	c #489548",
"I.	c #459444",
"J.	c #429241",
"K.	c #3F903F",
"L.	c #398739",
"M.	c #556455",
"N.	c #C9CACA",
"O.	c #969696",
"P.	c #959595",
"Q.	c #949494",
"R.	c #939393",
"S.	c #929292",
"T.	c #868585",
"U.	c #3E553E",
"V.	c #1D6E1D",
"W.	c #1F7E1E",
"X.	c #1D7C1D",
"Y.	c #1C7C1C",
"Z.	c #1B7C1B",
"`.	c #1B7B1A",
" +	c #0C390C",
".+	c #191B19",
"++	c #1B1A1B",
"@+	c #3C1A0C",
"#+	c #BD410B",
"$+	c #323233",
"%+	c #1B2F1B",
"&+	c #4C984D",
"*+	c #49964A",
"=+	c #479447",
"-+	c #439343",
";+	c #3E903D",
">+	c #378637",
",+	c #334133",
"'+	c #737373",
")+	c #585858",
"!+	c #585757",
"~+	c #575757",
"{+	c #575657",
"]+	c #565656",
"^+	c #5A5A5A",
"/+	c #3A4A3A",
"(+	c #19661A",
"_+	c #1D7D1D",
":+	c #1B7C1C",
"<+	c #1A7B1A",
"[+	c #197A19",
"}+	c #187A18",
"|+	c #0B380B",
"1+	c #171917",
"2+	c #181818",
"3+	c #3B190A",
"4+	c #BD400B",
"5+	c #333334",
"6+	c #323232",
"7+	c #4B974B",
"8+	c #489648",
"9+	c #469446",
"0+	c #429242",
"a+	c #3F913F",
"b+	c #3C8F3C",
"c+	c #368536",
"d+	c #112A11",
"e+	c #1A3D1A",
"f+	c #183917",
"g+	c #143215",
"h+	c #133013",
"i+	c #123012",
"j+	c #112F12",
"k+	c #113111",
"l+	c #103510",
"m+	c #186819",
"n+	c #177917",
"o+	c #157816",
"p+	c #157814",
"q+	c #147814",
"r+	c #093709",
"s+	c #141614",
"t+	c #161516",
"u+	c #3A180A",
"v+	c #BC400B",
"w+	c #313232",
"x+	c #1A2F1A",
"y+	c #4A974A",
"z+	c #489647",
"A+	c #459344",
"B+	c #419241",
"C+	c #3E903E",
"D+	c #3B8E3B",
"E+	c #358535",
"F+	c #2B432B",
"G+	c #738F73",
"H+	c #749173",
"I+	c #728E72",
"J+	c #718D71",
"K+	c #708D70",
"L+	c #708C70",
"M+	c #5F7D5E",
"N+	c #224C22",
"O+	c #186C18",
"P+	c #167916",
"Q+	c #127713",
"R+	c #117611",
"S+	c #083608",
"T+	c #121413",
"U+	c #131313",
"V+	c #391708",
"W+	c #479547",
"X+	c #449344",
"Y+	c #3D8F3D",
"Z+	c #3A8E3A",
"`+	c #348434",
" @	c #546354",
".@	c #BEBEBE",
"+@	c #808080",
"@@	c #7E7E7E",
"#@	c #7D7D7D",
"$@	c #7C7B7C",
"%@	c #7A7A7A",
"&@	c #747474",
"*@	c #3B513B",
"=@	c #156715",
"-@	c #177916",
";@	c #147714",
">@	c #127612",
",@	c #107510",
"'@	c #0F740F",
")@	c #0E740E",
"!@	c #073507",
"~@	c #101210",
"{@	c #111111",
"]@	c #381607",
"^@	c #333332",
"/@	c #4C984C",
"(@	c #459445",
"_@	c #3F9140",
":@	c #2C3B2C",
"<@	c #6A6B6A",
"[@	c #585958",
"}@	c #575857",
"|@	c #565756",
"1@	c #595A59",
"2@	c #374737",
"3@	c #136213",
"4@	c #1B7B1B",
"5@	c #147815",
"6@	c #137613",
"7@	c #053505",
"8@	c #0E100E",
"9@	c #0E0E0E",
"0@	c #371506",
"a@	c #313031",
"b@	c #1D2E18",
"c@	c #829756",
"d@	c #B9B68D",
"e@	c #B8B58C",
"f@	c #B7B48B",
"g@	c #B5B48A",
"h@	c #B4B388",
"i@	c #608037",
"j@	c #203620",
"k@	c #516951",
"l@	c #4E624E",
"m@	c #4B5B4C",
"n@	c #4B5A4B",
"o@	c #4A5A4A",
"p@	c #3F503F",
"q@	c #163216",
"r@	c #2F5D10",
"s@	c #9FA773",
"t@	c #A6AB7A",
"u@	c #A5AB79",
"v@	c #A5AA78",
"w@	c #A4A978",
"x@	c #6E8B42",
"y@	c #113203",
"z@	c #0C0E0C",
"A@	c #0C0C0C",
"B@	c #361405",
"C@	c #303030",
"D@	c #1E2A16",
"E@	c #766222",
"F@	c #766322",
"G@	c #736020",
"H@	c #715E1D",
"I@	c #705D1C",
"J@	c #6E5C1A",
"K@	c #645317",
"L@	c #536353",
"M@	c #CBCBCB",
"N@	c #989898",
"O@	c #979797",
"P@	c #949394",
"Q@	c #868786",
"R@	c #394B39",
"S@	c #454B0B",
"T@	c #5E5A09",
"U@	c #5B5707",
"V@	c #595605",
"W@	c #585504",
"X@	c #575402",
"Y@	c #555001",
"Z@	c #1C2901",
"`@	c #0A0C0A",
" #	c #0A0A0A",
".#	c #361304",
"+#	c #BE410B",
"@#	c #1A311A",
"##	c #356F35",
"$#	c #3B7E3B",
"%#	c #3B823B",
"&#	c #388037",
"*#	c #357E35",
"=#	c #2D712D",
"-#	c #215921",
";#	c #344634",
">#	c #555555",
",#	c #545454",
"'#	c #535353",
")#	c #525252",
"!#	c #384838",
"~#	c #0D4B0E",
"{#	c #0E620E",
"]#	c #0D6B0D",
"^#	c #0A690A",
"/#	c #076807",
"(#	c #046204",
"_#	c #014F01",
":#	c #012B01",
"<#	c #080A07",
"[#	c #070707",
"}#	c #3B1403",
"|#	c #CB4D0A",
"1#	c #44582A",
"2#	c #264724",
"3#	c #224822",
"4#	c #255025",
"5#	c #20451F",
"6#	c #1B3D1B",
"7#	c #193A18",
"8#	c #173817",
"9#	c #163816",
"0#	c #163A16",
"a#	c #194319",
"b#	c #1E481D",
"c#	c #193C18",
"d#	c #153515",
"e#	c #143314",
"f#	c #133213",
"g#	c #123212",
"h#	c #123312",
"i#	c #0F380F",
"j#	c #0D410C",
"k#	c #0A3C0A",
"l#	c #083208",
"m#	c #062E06",
"n#	c #052E05",
"o#	c #032C03",
"p#	c #022D02",
"q#	c #023101",
"r#	c #023501",
"s#	c #0E2F01",
"t#	c #5D2B00",
"u#	c #DE4F07",
"v#	c #965B1B",
"w#	c #7B591D",
"x#	c #745B1F",
"y#	c #745B1E",
"z#	c #70561B",
"A#	c #6C5219",
"B#	c #6A5017",
"C#	c #694F16",
"D#	c #694F15",
"E#	c #695015",
"F#	c #6A5515",
"G#	c #665012",
"H#	c #634C10",
"I#	c #624B0F",
"J#	c #614A0D",
"K#	c #60490D",
"L#	c #5F4A0B",
"M#	c #604C0B",
"N#	c #604F0A",
"O#	c #5E4C09",
"P#	c #5B4707",
"Q#	c #594506",
"R#	c #584505",
"S#	c #574404",
"T#	c #574403",
"U#	c #574702",
"V#	c #5A4901",
"W#	c #704400",
"X#	c #A03F00",
"                                                                ",
"                                                                ",
"                                                                ",
"                                                                ",
"                                                                ",
"                                                                ",
". . . . . . . . . . . . . . + @ # @ + . . . . . . . . . . . .   ",
"$ % & * = - ; > , ' ) ! ~ { ] ^ / ( _ : < [ } | 1 2 3 4 5 6 7   ",
"8 9 0 a b c d e f g h i j k l m n o p q r s t u v w x y z A B   ",
"C D E F G H I J K L M N O P Q R S T U V W X Y Z `  ...+.@.#.$.  ",
"%.&.*.=.-.;.>.,.'.).!.~.{.].^./.(._.:.<.[.}.}.|.1.2.3.4.5.6.7.  ",
"8.E 9.0.a.b.c.d.e.f.g.h.i.j.k.l.m.n.o.p.q.r.s.t.u.v.w.x.y.z.A.  ",
"B.C.D.E.F.G.H.I.J.K.L.M.N.O.P.Q.R.S.T.U.V.t.W.X.Y.Z.`. +.+++@+  ",
"#+*.$+%+&+*+=+-+f.;+>+,+'+)+!+~+{+]+^+/+(+_+:+<+[+}+}+|+1+2+3+  ",
"4+5+6+%+7+8+9+0+a+b+c+d+e+f+g+h+i+j+k+l+m+`.}+n+o+p+q+r+s+t+u+  ",
"v+D.w+x+y+z+A+B+C+D+E+F+G+H+I+J+K+L+M+N+O+}+P+q+Q+R+R+S+T+U+V+  ",
"v+D.R x+y+W+X+B+Y+Z+`+ @.@+@@@#@$@%@&@*@=@-@;@>@,@'@)@!@~@{@]@  ",
"v+^@R x+7+/@c.(@0+_@`+:@<@[@[@}@}@|@1@2@3@4@[+-@5@6@)@7@8@9@0@  ",
"v+6+a@b@c@d@e@f@g@h@i@j@k@l@m@n@o@o@p@q@r@s@t@u@v@w@x@y@z@A@B@  ",
"4+6+C@D@E@F@G@H@I@J@K@L@M@N@O@O.P.P@Q@R@S@T@U@V@W@X@Y@Z@`@ #.#  ",
"+#w+C@@###$#%#&#*#=#-#;#'+>#,#,#'#)#~+!#~#{#]#^#/#(#_#:#<#[#}#  ",
"|#1#2#3#4#5#6#7#8#9#0#a#b#c#d#e#f#g#h#i#j#k#l#m#n#o#p#q#r#s#t#  ",
"u#v#w#x#y#z#A#B#C#D#E#F#F#G#H#I#J#K#L#M#N#O#P#Q#R#S#T#U#V#W#X#  ",
"                                                                ",
"                                                                ",
"                                                                ",
"                                                                ",
"                                                                ",
"                                                                ",
"                                                                ",
"                                                                ",
"                                                                "};
