/* XPM */
static char * multisigs_xpm[] = {
"32 32 340 2",
"  	c None",
". 	c #FC4C00",
"+ 	c #FB4B00",
"@ 	c #FA4B00",
"# 	c #F94B00",
"$ 	c #8D7832",
"% 	c #70813E",
"& 	c #4C8E4C",
"* 	c #4A8D4A",
"= 	c #498C48",
"- 	c #468B46",
"; 	c #458A45",
"> 	c #438944",
", 	c #428842",
"' 	c #3F863F",
") 	c #3E863E",
"! 	c #3D853D",
"~ 	c #3B833B",
"{ 	c #3A833A",
"] 	c #388338",
"^ 	c #367F36",
"/ 	c #337C33",
"( 	c #30782F",
"_ 	c #2D742D",
": 	c #2C732C",
"< 	c #2C762C",
"[ 	c #2C792C",
"} 	c #2D7C2D",
"| 	c #2D7C2C",
"1 	c #2B7A2A",
"2 	c #297929",
"3 	c #297829",
"4 	c #287727",
"5 	c #277726",
"6 	c #267626",
"7 	c #6D7F3C",
"8 	c #498649",
"9 	c #458346",
"0 	c #448345",
"a 	c #438444",
"b 	c #418141",
"c 	c #3F7F3F",
"d 	c #3D7D3C",
"e 	c #3B7C3A",
"f 	c #397939",
"g 	c #397A39",
"h 	c #367936",
"i 	c #357935",
"j 	c #357B36",
"k 	c #367E36",
"l 	c #368035",
"m 	c #314A31",
"n 	c #313D30",
"o 	c #2E392E",
"p 	c #2B3F2B",
"q 	c #236023",
"r 	c #286E28",
"s 	c #2A7829",
"t 	c #29792A",
"u 	c #287527",
"v 	c #267226",
"w 	c #236E23",
"x 	c #236C22",
"y 	c #226C22",
"z 	c #226B21",
"A 	c #F44900",
"B 	c #383838",
"C 	c #363637",
"D 	c #353535",
"E 	c #366A36",
"F 	c #488A48",
"G 	c #4A8F4A",
"H 	c #4E9A4F",
"I 	c #4C984C",
"J 	c #4A964A",
"K 	c #479548",
"L 	c #459446",
"M 	c #3C863C",
"N 	c #377E38",
"O 	c #2B662C",
"P 	c #307430",
"Q 	c #337B32",
"R 	c #30762F",
"S 	c #313D31",
"T 	c #323332",
"U 	c #313131",
"V 	c #292F29",
"W 	c #194519",
"X 	c #225F22",
"Y 	c #277127",
"Z 	c #277427",
"` 	c #287B28",
" .	c #277C27",
"..	c #298328",
"+.	c #288329",
"@.	c #288327",
"#.	c #278226",
"$.	c #EC4700",
"%.	c #373737",
"&.	c #363636",
"*.	c #343534",
"=.	c #244724",
"-.	c #488B48",
";.	c #BCD5BB",
">.	c #BBD5BB",
",.	c #BAD5BA",
"'.	c #B9D4B9",
").	c #B8D4B8",
"!.	c #B8D3B8",
"~.	c #B7D3B7",
"{.	c #377E37",
"].	c #1E491F",
"^.	c #2A642A",
"/.	c #2F752F",
"(.	c #2D722E",
"_.	c #2F3A2F",
":.	c #323132",
"<.	c #303030",
"[.	c #262A27",
"}.	c #113212",
"|.	c #1D561C",
"1.	c #246E24",
"2.	c #236F24",
"3.	c #267B26",
"4.	c #AECEAE",
"5.	c #ADCDAD",
"6.	c #ACCDAC",
"7.	c #E64500",
"8.	c #373636",
"9.	c #343434",
"0.	c #172E17",
"a.	c #519A51",
"b.	c #4E994E",
"c.	c #4C974C",
"d.	c #49964A",
"e.	c #479648",
"f.	c #459445",
"g.	c #439343",
"h.	c #419241",
"i.	c #3E903E",
"j.	c #153415",
"k.	c #245924",
"l.	c #2D712D",
"m.	c #2B702B",
"n.	c #2A3E2B",
"o.	c #272A27",
"p.	c #1F251F",
"q.	c #103010",
"r.	c #1C541B",
"s.	c #226B22",
"t.	c #216A21",
"u.	c #278327",
"v.	c #268125",
"w.	c #248025",
"x.	c #248124",
"y.	c #228022",
"z.	c #227F22",
"A.	c #E44400",
"B.	c #343334",
"C.	c #122512",
"D.	c #509A4F",
"E.	c #4D984D",
"F.	c #4B974A",
"G.	c #499649",
"H.	c #479546",
"I.	c #449344",
"J.	c #429241",
"K.	c #3F9040",
"L.	c #3E8F3D",
"M.	c #112B11",
"N.	c #205120",
"O.	c #296929",
"P.	c #276827",
"Q.	c #1F5520",
"R.	c #143914",
"S.	c #0D270D",
"T.	c #0D260D",
"U.	c #123712",
"V.	c #1A511A",
"W.	c #1F621E",
"X.	c #1E611D",
"Y.	c #248225",
"Z.	c #238023",
"`.	c #217F21",
" +	c #207E20",
".+	c #1F7E1F",
"++	c #E34400",
"@+	c #353636",
"#+	c #343535",
"$+	c #333333",
"%+	c #112311",
"&+	c #4F994E",
"*+	c #4A974A",
"=+	c #489548",
"-+	c #469445",
";+	c #439243",
">+	c #419141",
",+	c #3E903F",
"'+	c #3C8E3C",
")+	c #0F270F",
"!+	c #FFFFFF",
"~+	c #666666",
"{+	c #174F17",
"]+	c #207E1F",
"^+	c #1D7D1E",
"/+	c #1D7C1D",
"(+	c #333434",
"_+	c #323232",
":+	c #112211",
"<+	c #4D994E",
"[+	c #4C974B",
"}+	c #479446",
"|+	c #449444",
"1+	c #429242",
"2+	c #40913F",
"3+	c #3E903D",
"4+	c #3B8E3B",
"5+	c #0D220D",
"6+	c #313030",
"7+	c #2E2F2F",
"8+	c #2D2D2D",
"9+	c #2C2B2C",
"0+	c #2A2A29",
"a+	c #292828",
"b+	c #103710",
"c+	c #217F20",
"d+	c #1E7E1E",
"e+	c #1D7C1C",
"f+	c #1B7B1B",
"g+	c #1A7B1A",
"h+	c #323233",
"i+	c #4A974B",
"j+	c #489648",
"k+	c #469446",
"l+	c #3F903E",
"m+	c #3C8F3C",
"n+	c #3A8D3A",
"o+	c #0C200C",
"p+	c #0B2A0B",
"q+	c #1E7D1F",
"r+	c #1B7B1C",
"s+	c #187B19",
"t+	c #187A18",
"u+	c #333233",
"v+	c #313232",
"w+	c #439242",
"x+	c #409140",
"y+	c #3D903E",
"z+	c #3C8E3B",
"A+	c #398D39",
"B+	c #153815",
"C+	c #153915",
"D+	c #113011",
"E+	c #0E2A0F",
"F+	c #0D280D",
"G+	c #0C280C",
"H+	c #0B270C",
"I+	c #0B280B",
"J+	c #0C2D0C",
"K+	c #0E350E",
"L+	c #1C7D1D",
"M+	c #1B7B1A",
"N+	c #197B19",
"O+	c #177916",
"P+	c #157816",
"Q+	c #323333",
"R+	c #112210",
"S+	c #4B984B",
"T+	c #499749",
"U+	c #BA6619",
"V+	c #D75A0D",
"W+	c #333334",
"X+	c #102210",
"Y+	c #4B974B",
"Z+	c #D75A0E",
"`+	c #313130",
" @	c #323231",
".@	c #313031",
"+@	c #B6D2B6",
"@@	c #333332",
"#@	c #BD6619",
"$@	c #B96317",
"%@	c #112411",
"&@	c #2B592B",
"*@	c #2F652F",
"=@	c #303131",
"-@	c #2F2F30",
";@	c #152D15",
">@	c #377337",
",@	c #3B7D3B",
"'@	c #53622B",
")@	c #274F27",
"!@	c #1E3F1E",
"~@	c #204420",
"{@	c #234B23",
"]@	c #1D401D",
"^@	c #F24900",
"/@	c #796728",
"(@	c #52622B",
"_@	c #306430",
":@	c #306730",
"<@	c #316931",
"[@	c #2D612C",
"}@	c #F84B00",
"|@	c #E84600",
"1@	c #EA4600",
"2@	c #E54400",
"3@	c #459344",
"4@	c #3F913F",
"5@	c #3D8F3D",
"6@	c #3A8D3B",
"7@	c #388C38",
"8@	c #0E250E",
"9@	c #184218",
"0@	c #1B4C1B",
"a@	c #1A4919",
"b@	c #174618",
"c@	c #164516",
"d@	c #154415",
"e@	c #144314",
"f@	c #134312",
"g@	c #124412",
"h@	c #469546",
"i@	c #449343",
"j@	c #3F903F",
"k@	c #3C8E3D",
"l@	c #3A8E3A",
"m@	c #378C37",
"n@	c #B96518",
"o@	c #D65A0D",
"p@	c #489547",
"q@	c #BC6518",
"r@	c #BA6316",
"s@	c #2A5D2A",
"t@	c #3C7F3C",
"u@	c #439143",
"v@	c #1E421E",
"w@	c #163216",
"x@	c #2E632D",
"y@	c #285A28",
". . . . . . . . . . . . . . . . . . + @ # # @ + . . . . . . . . ",
". $ % & * = - ; > , ' ) ! ~ { ] ] ^ / ( _ : < [ } | 1 2 3 4 5 6 ",
"@ 7 8 9 0 a b c d e f g h i j k l / m n o p q r s t u v w x y z ",
"A B C D E F G H I J K L M N O P Q R S T U V W X Y Z `  ...+.@.#.",
"$.%.&.*.=.-.;.>.,.'.).!.~.{.].^./.(._.:.<.[.}.|.1.2.3.4.5.5.6.6.",
"7.8.D 9.0.a.b.c.d.e.f.g.h.i.j.k.l.m.n.V o.p.q.r.s.t.u.v.w.x.y.z.",
"A.&.9.B.C.D.E.F.G.H.I.J.K.L.M.N.O.P.Q.R.S.T.U.V.W.X.Y.Z.z.`. +.+",
"++@+#+$+%+&+I *+=+-+;+>+,+'+)+!+!+!+!+!+!+!+!+!+~+{+y.`.]+.+^+/+",
"++D (+_+:+<+[+G.}+|+1+2+3+4+5+!+(+_+6+7+8+9+0+a+~+b+c+.+d+e+f+g+",
"++9.$+h+:+E.i+j+k+g.>+l+m+n+o+~+~+~+~+~+~+~+~+~+~+p+q+e+r+g+s+t+",
"++9.u+v+:+c.G.j+f.w+x+y+z+A+5+B+C+D+E+F+F+G+H+I+J+K+L+M+N+t+O+P+",
"++9.Q+U R+S+T+U+V+. . . . . . . . . . . . . . . . + @ # # @ + . ",
"++W+T U X+Y+G.Z+$ % & * = - ; > , ' ) ! ~ { ] ] ^ / ( _ : < [ } ",
"++$+_+`+X+F.j+@ 7 8 9 0 a b c d e f g h i j k l / m n o p q r s ",
"++$+ @.@X+i+}+A B C D E F G H I J K L M N O P Q R S T U V W X Y ",
"++u+:.<.X+J +@$.%.&.*.=.-.;.>.,.'.).!.~.{.].^./.(._.:.<.[.}.|.1.",
"++@@U <.X+#@$@7.8.D 9.0.a.b.c.d.e.f.g.h.i.j.k.l.m.n.V o.p.q.r.s.",
"A.@@U <.%@&@*@A.&.9.B.C.D.E.F.G.H.I.J.K.L.M.N.O.P.Q.R.S.T.U.V.W.",
"7.T =@-@;@>@,@++@+#+$+%+&+I *+=+-+;+>+,+'+)+!+!+!+!+!+!+!+!+!+~+",
"$.'@)@!@~@{@]@++D (+_+:+<+[+G.}+|+1+2+3+4+5+!+(+_+6+7+8+9+0+a+~+",
"^@/@(@_@:@<@[@++9.$+h+:+E.i+j+k+g.>+l+m+n+o+~+~+~+~+~+~+~+~+~+~+",
"}@^@$.|@1@$.2@++9.u+v+:+c.G.j+f.w+x+y+z+A+5+B+C+D+E+F+F+G+H+I+J+",
"              ++9.Q+U R+S+T+H.3@1+4@5@6@7@8@9@0@a@b@c@d@e@e@f@g@",
"              ++W+T U X+Y+G.h@i@h.j@k@l@m@8@!+!+!+!+!+!+!+!+!+~+",
"              ++$+_+`+X+F.j+L n@o@. . . . . . . . . . . . . . . ",
"              ++$+ @.@X+i+p@f.V+$ % & * = - ; > , ' ) ! ~ { ] ] ",
"              ++u+:.<.X+J ).).@ 7 8 9 0 a b c d e f g h i j k l ",
"              ++@@U <.X+#@q@r@A B C D E F G H I J K L M N O P Q ",
"              A.@@U <.%@&@:@s@$.%.&.*.=.-.;.>.,.'.).!.~.{.].^./.",
"              7.T =@-@;@>@t@u@7.8.D 9.0.a.b.c.d.e.f.g.h.i.j.k.l.",
"              $.'@)@!@~@{@v@w@A.&.9.B.C.D.E.F.G.H.I.J.K.L.M.N.O.",
"              ^@/@(@_@:@<@x@y@++@+#+$+%+&+I *+=+-+;+>+,+'+)+!+!+"};
