/* XPM */
static char *dummy[]={
"32 32 334 2",
"Qt c None",
".z c #000000",
"dk c #0000ff",
".a c #007f00",
"#2 c #020202",
".T c #020302",
".P c #020303",
"#. c #040403",
".b c #048104",
".c c #068206",
"#d c #070707",
"cw c #080808",
".U c #090909",
".d c #098408",
".Q c #0a0a0a",
"cg c #0a0a0b",
"## c #0a0b0b",
"#v c #0b0b0b",
"#A c #0b0c0b",
"cf c #0b200b",
".e c #0b840b",
"#e c #0c0d0c",
".A c #0c850c",
"bW c #0d0c0d",
"cH c #0d0d0d",
"bV c #0d220d",
".f c #0d860d",
"ao c #0e0d0e",
".V c #0e0e0e",
".W c #0e860d",
".B c #0e860e",
"#h c #0f860e",
"cx c #100f0f",
"#W c #101010",
"bU c #103610",
".g c #10860f",
".X c #10870f",
"#D c #108710",
"#a c #111111",
"#i c #118711",
"#0 c #118811",
".h c #118812",
"#w c #121212",
"#E c #128813",
"#f c #131212",
"#S c #131313",
"al c #138912",
".i c #138913",
"#1 c #138914",
"aD c #148a14",
"cI c #151414",
"ai c #151514",
".D c #158915",
"#X c #161616",
"aZ c #168915",
".j c #168a16",
"aE c #168b16",
"#B c #171617",
"bh c #178a17",
".E c #178b17",
"#l c #178b18",
"cy c #181717",
".6 c #181818",
"#g c #181918",
".k c #188b18",
"#x c #191919",
"cT c #192d19",
"bi c #198b19",
".F c #198c19",
"#T c #1a1a1a",
"ae c #1a1b1b",
"bO c #1a8c19",
"#m c #1a8c1a",
".l c #1a8d1b",
"c. c #1b8c1b",
"#F c #1b8c1c",
"#4 c #1b8d1a",
".0 c #1b8d1b",
"bP c #1b8d1c",
"#Y c #1c1b1b",
".Y c #1c1c1b",
"#3 c #1c1c1c",
"cJ c #1c1c1d",
".G c #1c8d1c",
"a0 c #1c8e1d",
"#C c #1d1d1c",
"aW c #1d1e1d",
".m c #1d8d1d",
"#5 c #1d8e1c",
".1 c #1d8e1d",
"bj c #1e8d1d",
".H c #1e8e1e",
"am c #1f1f1f",
"ct c #1f8e1e",
"cQ c #1f8e1f",
"#o c #1f8f1e",
".n c #1f8f1f",
"#H c #1f8f20",
"aj c #201f20",
"#U c #202121",
".2 c #208f1f",
"an c #208f20",
"#Z c #212121",
"cU c #212221",
".I c #218f20",
".o c #218f21",
"aH c #219021",
"ay c #222222",
"c6 c #224622",
".3 c #229022",
"#p c #229023",
"aX c #232323",
"bQ c #232324",
"c7 c #233823",
"a1 c #239022",
"cu c #239023",
"#I c #239122",
".p c #239123",
"bA c #239124",
"#M c #242324",
".C c #242424",
"cb c #249123",
".4 c #249124",
"ak c #252625",
"#J c #259124",
".J c #259125",
"a2 c #259225",
"cc c #259226",
"#q c #262525",
"bx c #262626",
".5 c #269226",
"#K c #269227",
"c8 c #272727",
"bk c #279226",
"bS c #279327",
"#7 c #279328",
"be c #282728",
"aI c #282827",
"af c #282828",
"az c #282929",
"a3 c #289327",
"bl c #289328",
"cG c #289329",
"cd c #289428",
"#9 c #292929",
"ap c #292a2a",
"#L c #299428",
"aq c #299429",
"a4 c #29942a",
"aC c #2a2a2a",
"ce c #2a942a",
"aK c #2a942b",
"#8 c #2a952a",
"bL c #2b2b2a",
"bB c #2b942a",
"bm c #2b942b",
"bT c #2b952b",
"cv c #2b952c",
"#N c #2c2b2b",
"by c #2c2c2c",
"ar c #2c952c",
"bf c #2d2d2e",
"df c #2d952c",
".q c #2d952d",
"aL c #2d962d",
"#r c #2e2d2d",
".K c #2e962d",
"a5 c #2e962e",
"aY c #2f2e2e",
"as c #2f2f2e",
"b6 c #2f2f30",
".7 c #2f3030",
"bC c #2f962e",
".r c #2f962f",
"bn c #2f9630",
"aA c #30302f",
"aT c #303130",
".L c #309730",
"bM c #313031",
"a. c #313131",
"bD c #319730",
".s c #319831",
"bz c #323131",
"c5 c #329832",
".M c #329833",
"bg c #333333",
"#O c #333334",
"cq c #333434",
"dg c #339834",
".t c #339933",
"aM c #343434",
"cW c #353435",
"b7 c #353534",
"#s c #353536",
"dh c #359a35",
"bN c #363636",
"at c #363637",
"aU c #373738",
".N c #379a37",
"bb c #383838",
".8 c #389b38",
"a# c #393939",
"bo c #399b39",
"a6 c #3a393a",
"b8 c #3a3b3b",
"#t c #3a9c39",
".u c #3a9c3a",
"#P c #3b3b3b",
"aF c #3b3c3b",
"bp c #3b9c3a",
"bX c #3b9c3b",
".O c #3b9d3b",
"aN c #3c3c3c",
"ab c #3c9d3c",
".9 c #3d9d3c",
"ch c #3d9e3c",
"bq c #3d9e3d",
"aw c #3d9e3e",
"au c #3e3e3e",
"#u c #3e9e3e",
".v c #3e9f3f",
"bc c #3f3f3f",
"aQ c #3f9e3f",
"br c #3f9f40",
"cr c #403f3f",
"bu c #403f40",
"b9 c #404040",
"#Q c #409f3f",
"b. c #409f40",
".w c #40a040",
"aa c #414141",
"ac c #419f41",
"cV c #41a040",
"bE c #41a041",
"bs c #41a042",
"a7 c #424242",
"cP c #424243",
"cK c #429f41",
"bY c #42a041",
"#R c #42a042",
"cz c #42a142",
"#j c #434343",
"ad c #43a042",
".x c #43a043",
"bF c #43a142",
"ci c #43a143",
"di c #43a144",
"aO c #444344",
"cF c #444443",
"aJ c #444444",
"aR c #44a143",
"ax c #44a145",
"c9 c #44a244",
"bZ c #44a245",
"cs c #454445",
"bR c #454545",
"b# c #45a245",
"bv c #464647",
"av c #464746",
"cj c #46a245",
"aS c #46a246",
"ba c #47a247",
"d. c #47a346",
".y c #47a347",
"c# c #484848",
"dj c #48a348",
"a8 c #494a49",
"b0 c #49a348",
".R c #49a349",
"bt c #49a448",
"bG c #4aa449",
"#b c #4aa44a",
"ck c #4aa54a",
".Z c #4b4b4b",
"d# c #4ba44b",
"b1 c #4ba54b",
"#y c #4ba54c",
"aP c #4c4c4c",
"bH c #4ca54b",
"cl c #4ca54d",
"#V c #4da54d",
"cL c #4da64c",
"cA c #4da64e",
"cX c #4e4e4e",
"b2 c #4ea54e",
"ag c #4ea64e",
"bI c #4ea74e",
"aB c #4fa64f",
"da c #4fa74f",
"b3 c #50a750",
"cY c #50a850",
"a9 c #515251",
"bJ c #51a751",
"aV c #51a851",
"b4 c #52a852",
"cZ c #52a853",
"bd c #53a852",
"co c #53a853",
"bw c #53a953",
"db c #54a954",
"bK c #54a955",
"aG c #555555",
"c0 c #55a954",
"cD c #55aa54",
"b5 c #56aa56",
"dc c #56ab56",
"c1 c #57ab57",
"cp c #57ab58",
"cE c #59ab59",
"dd c #59ac59",
"cO c #5aac5a",
"c2 c #5cad5b",
"de c #5cae5c",
".S c #666666",
"ca c #696969",
"#k c #737373",
"cR c #827f00",
"cm c #827f01",
"#n c #838003",
"c3 c #8c8914",
"cS c #8e8c1a",
"cB c #928f20",
"cn c #929020",
"#G c #939022",
"c4 c #9d9a36",
"cM c #a1a040",
"cC c #a29f41",
"#6 c #a2a041",
"cN c #b1af61",
"ah c #b2b2b2",
"#c c #cccccc",
"#z c #e5e5e5",
".# c #ff0000",
"dl c #ffffff",
"QtQtQtQtQtQtQtQtQtQtQtQtQtQtQtQtQtQtQtQtQtQtQtQtQtQtQtQtQtQtQtQt",
"QtQtQtQtQtQtQtQtQtQtQtQtQtQtQtQtQtQtQtQtQtQtQtQtQtQtQtQtQtQtQtQt",
"QtQtQtQtQtQtQtQtQtQtQtQtQtQtQtQtQtQtQt.#.#QtQtQtQtQtQt.#QtQtQtQt",
"QtQtQtQtQtQtQtQtQtQtQtQtQtQtQtQtQtQtQtQtQt.#.#QtQtQt.#QtQtQtQtQt",
"QtQtQtQtQtQtQtQtQtQtQtQtQtQtQtQtQtQtQtQtQtQtQt.#.#.#QtQtQtQtQtQt",
"QtQtQtQt.a.a.a.a.a.a.a.a.a.a.a.a.a.a.a.a.a.a.a.a.a.#.a.a.a.a.a.a",
"QtQtQtQt.a.b.c.d.e.f.g.h.i.j.k.l.m.n.o.p.q.r.s.t.#.u.#.v.w.x.y.a",
"QtQtQtQt.z.z.z.z.A.B.z.C.D.E.F.G.H.I.p.J.K.L.M.#.N.O.#.z.P.Q.R.a",
".S.S.S.S.T.U.V.z.W.X.Y.Z.j.k.0.1.2.3.4.5.6.#.#.7.8.9.##.###a#b.a",
".S#c#c#c#d#e#f#g#h#i#j#k#l#m#n#o.o#p.J.#.##q#r#s#t#u.##v#w#x#y.a",
".S#z#z#z#A#a#B#C#D#E.D.j.F#F#G#H#I#J#K#L#M#N#O#P.O#Q#R#S#T#U#V.a",
".S#c#c#c#W#X#Y#Z#0#1#2#3#4#5#6.o.z#W#7#8#9a.a#aaabacadae#Zafag.a",
".Sahahahai#Tajakal.Dama#.G.Han#Iaoapaqarasatauavaw#RaxayazaAaB.a",
".Sahahah#xam.CaCaDaEaFaG.1.naH.4aIaJaKaLaMaNaOaPaQaRaSapaTaUaV.a",
".SahahahaWaX#9aYaZ.k#ma0.HaHa1a2a3a4ara5a6a7a8a9b.b#baa.bbbcbd.a",
".Sahahahaybebfbgbhbi.Gbj#H.3.4bkblbmaLbnbobpbqbrbsaSbta#bubvbw.a",
".SahahahbxbybzaU.k#m.z#Z.obA.5blbBarbCbD.uab.vbEbF.ybGbHbIbJbK.a",
".SahahahbLbMbNaNbObPbQbR#pa2bSaqbTbUbVbWbXaw#QbYbZb0b1b2b3b4b5.a",
".Sahahahb6b7b8b9c..mc#cacbcccdce.qcfcg#wchaQbEcicjckclcmcncocp.a",
".Sahahahcqa#crcs.Gct.ocu.J#7cecva5cwcxcyawb.cz.QaX#ycAcBcCcDcE.a",
".S.S.S.SbbaucFau.Han.3.4.5cGbTaL.LcHcIcJaQcKaRama#cLaBcMcNb5cO.a",
"QtQtQtQtaucPauaucQ.o.pa2#7cRcSa5.scT#TcUcVcib#cWcXagcYcZc0c1c2.a",
"QtQtQtQt.a.Fc..Hancu#JbSaqc3c4.Lc5c6c7c8bYc9d.btd#dab4dbdcddde.a",
"QtQtQtQt.a.a.a.a.a.a.a.abBdf.r.sdgdh.8.udiaSdjbGcl.a.a.a.a.a.a.a",
"QtQtQtQtQtQtQtQtQtQtQtQtQtQtQtQtdkQtQtQtQtQtQtQtQtQtQtQtQtQtQtQt",
"QtQtQtQtQtQtQtQtQtQtQtQtQtQtQtQtdkQtQtQtQtQtQtQtQtQtQtQtQtQtQtQt",
"QtQtQtQtQtQtQtQtQtQtQtQtQtQtQtdkdldkQtQtQtQtQtQtQtQtQtQtQtQtQtQt",
"QtQtQtQtQtQtQtQtQtQtQtQtQtQtQtQtdkQtQtQtQtQtQtQtQtQtQtQtQtQtQtQt",
"dkdkdkdkdkdkdkdkdkdkdkdkdkdkdkdkdkdkdkdkdkdkdkdkdkdkdkdkdkdkdkdk",
"dkdkdkdkdkdkdkdkdkdkdkdkdkdkdkdkdkdkdkdkdkdkdkdkdkdkdkdkdkdkdkdk",
"dkdkdkdkdkdkdkdkdkdkdkdkdkdkdkdkdkdkdkdkdkdkdkdkdkdkdkdkdkdkdkdk",
"dkdkdkdkdkdkdkdkdkdkdkdkdkdkdkdkdkdkdkdkdkdkdkdkdkdkdkdkdkdkdkdk"};
