/* XPM */
static char * quit_xpm[] = {
"32 32 71 1",
" 	c None",
".	c #FF0000",
"+	c #FF3D3D",
"@	c #FFB8B8",
"#	c #FFCCCC",
"$	c #FF2A2A",
"%	c #FF6666",
"&	c #FF2929",
"*	c #FF5757",
"=	c #FF2424",
"-	c #FF1818",
";	c #FF8282",
">	c #FFC3C3",
",	c #FFFFFF",
"'	c #FFF0F0",
")	c #FFBDBD",
"!	c #FF6464",
"~	c #FF1515",
"{	c #FF9797",
"]	c #FFF7F7",
"^	c #FFEBEB",
"/	c #FF5252",
"(	c #FFE3E3",
"_	c #FF7979",
":	c #FFA4A4",
"<	c #FFF5F5",
"[	c #FF8F8F",
"}	c #FF2020",
"|	c #FF7A7A",
"1	c #FF8888",
"2	c #FF1212",
"3	c #FF5858",
"4	c #FF9F9F",
"5	c #FF8A8A",
"6	c #FFE8E8",
"7	c #FF5050",
"8	c #FFD2D2",
"9	c #FFACAC",
"0	c #FF2C2C",
"a	c #FF0F0F",
"b	c #FF9494",
"c	c #FFB3B3",
"d	c #FF5959",
"e	c #FF0303",
"f	c #FFA3A3",
"g	c #FF5C5C",
"h	c #FF5F5F",
"i	c #FF5A5A",
"j	c #FF1A1A",
"k	c #FF6A6A",
"l	c #FF5B5B",
"m	c #FFBFBF",
"n	c #FF2626",
"o	c #FF6262",
"p	c #FFDFDF",
"q	c #FF4646",
"r	c #FFE9E9",
"s	c #FF7D7D",
"t	c #FF0808",
"u	c #FF6868",
"v	c #FF1C1C",
"w	c #FFBBBB",
"x	c #FF3131",
"y	c #FF7474",
"z	c #FFDEDE",
"A	c #FFAEAE",
"B	c #FF3737",
"C	c #FFA9A9",
"D	c #FFC9C9",
"E	c #FF1010",
"F	c #FF3030",
"             ......             ",
"         ..............         ",
"        ................        ",
"      ....................      ",
"     ......................     ",
"    ...........++...........    ",
"   ............@@............   ",
"   ............##............   ",
"  .............##.............  ",
" ...........$%&##&*=........... ",
" .........-;>,%##%')!-......... ",
" ........~{],^/##/^,(_~........ ",
" .......~:,<[}.##..|<^12........",
"........3,'4}..##...5'67........",
"........8,90...##...ab,c........",
".......$,^de...ff..../^<$.......",
".......g,>$..........$>,h.......",
".......i,cj..........jc,k.......",
".......l,mn..........nm,o.......",
" ......+,pq..........qp,+.......",
" .......r,st........ts,r....... ",
" .......k,6u........u6,k....... ",
" .......vw,^g......g^,wv....... ",
"  ......ex>,^@yuuy@^,>xe......  ",
"   ........fz],,,,]zA}.......   ",
"   .........B;CD>C;B.........   ",
"    ..........EF$E..........    ",
"     ......................     ",
"      ....................      ",
"        ................        ",
"         ..............         ",
"             ......             "};
