/* XPM */
static char * ranges_xpm[] = {
"32 32 188 2",
"  	c None",
". 	c #4F4F4F",
"+ 	c #464646",
"@ 	c #343434",
"# 	c #676767",
"$ 	c #323232",
"% 	c #AEAEAE",
"& 	c #5B5B5B",
"* 	c #8E8E8E",
"= 	c #4A4A4A",
"- 	c #777777",
"; 	c #6B6B6B",
"> 	c #979797",
", 	c #424242",
"' 	c #9B9B9B",
") 	c #797979",
"! 	c #D7D7D7",
"~ 	c #D2D2D2",
"{ 	c #CCCCCD",
"] 	c #C7C7C8",
"^ 	c #E8E8E8",
"/ 	c #E3E3E3",
"( 	c #DFDFDF",
"_ 	c #D9D8D9",
": 	c #D4D4D4",
"< 	c #CECECE",
"[ 	c #C9C9C9",
"} 	c #C3C3C3",
"| 	c #BEBEBE",
"1 	c #EFEFEF",
"2 	c #EBEBEB",
"3 	c #E5E5E5",
"4 	c #E0E1E0",
"5 	c #DADADA",
"6 	c #D5D6D6",
"7 	c #CFCFCF",
"8 	c #CACBCA",
"9 	c #C4C4C4",
"0 	c #BFBFBF",
"a 	c #B9B9B9",
"b 	c #B3B4B3",
"c 	c #F8F8F8",
"d 	c #F2F2F2",
"e 	c #EDEDED",
"f 	c #E7E7E7",
"g 	c #E1E2E2",
"h 	c #DBDBDB",
"i 	c #D6D6D6",
"j 	c #D0D0D0",
"k 	c #CBCBCB",
"l 	c #C5C5C5",
"m 	c #BFBFC0",
"n 	c #B4B4B4",
"o 	c #969696",
"p 	c #FBFAFB",
"q 	c #E1E1E2",
"r 	c #DBDCDB",
"s 	c #C5C4C5",
"t 	c #B4B3B4",
"u 	c #313131",
"v 	c #F5F6F5",
"w 	c #F6F6F6",
"x 	c #F4F4F4",
"y 	c #EFF0EF",
"z 	c #E0E0E0",
"A 	c #DBDADB",
"B 	c #D5D5D6",
"C 	c #CACACA",
"D 	c #BFBFBE",
"E 	c #B4B4B3",
"F 	c #ADADAD",
"G 	c #A8A8A8",
"H 	c #F1F0F1",
"I 	c #F1F1F1",
"J 	c #BEBFBE",
"K 	c #AEADAD",
"L 	c #B3B3B3",
"M 	c #D9D9D9",
"N 	c #B8B7B8",
"O 	c #ACACAC",
"P 	c #A7A8A7",
"Q 	c #000000",
"R 	c #EAEAEA",
"S 	c #B1B1B1",
"T 	c #8D8D8D",
"U 	c #A4A4A4",
"V 	c #B0B0B0",
"W 	c #B5B5B5",
"X 	c #C6C6C6",
"Y 	c #D2D1D2",
"Z 	c #CCCCCC",
"` 	c #C7C7C7",
" .	c #C1C1C1",
"..	c #BCBCBD",
"+.	c #B6B6B6",
"@.	c #B2B2B1",
"#.	c #ABACAC",
"$.	c #A6A7A6",
"%.	c #292929",
"&.	c #858586",
"*.	c #9C9C9C",
"=.	c #B7B7B8",
"-.	c #C8C8C9",
";.	c #D3D3D4",
">.	c #C0BFBF",
",.	c #BBBBBB",
"'.	c #AAAAAA",
").	c #A5A5A6",
"!.	c #333333",
"~.	c #686868",
"{.	c #7F7F7F",
"].	c #717171",
"^.	c #8C8C8C",
"/.	c #A7A7A7",
"(.	c #EEEEED",
"_.	c #DADAD9",
":.	c #CCCBCB",
"<.	c #C6C6C7",
"[.	c #C2C2C2",
"}.	c #BDBDBD",
"|.	c #B8B8B8",
"1.	c #B2B2B2",
"2.	c #AEAEAD",
"3.	c #A3A3A3",
"4.	c #69696A",
"5.	c #303030",
"6.	c #3B3B3B",
"7.	c #1F1F1F",
"8.	c #E0DFDF",
"9.	c #EEEEEE",
"0.	c #C8C8C8",
"a.	c #C4C3C4",
"b.	c #BABABA",
"c.	c #ABABAB",
"d.	c #A6A6A6",
"e.	c #A1A1A1",
"f.	c #2B2B2B",
"g.	c #868686",
"h.	c #545454",
"i.	c #767676",
"j.	c #B7B8B7",
"k.	c #C8C9C8",
"l.	c #A9A9A9",
"m.	c #9F9E9F",
"n.	c #444445",
"o.	c #CECECF",
"p.	c #C2C3C2",
"q.	c #C6C7C7",
"r.	c #C0C0C0",
"s.	c #BBBCBC",
"t.	c #B4B3B3",
"u.	c #AFAFAF",
"v.	c #A1A1A0",
"w.	c #C9C8C8",
"x.	c #C6C5C6",
"y.	c #C3C3C4",
"z.	c #C1C1C2",
"A.	c #B7B7B7",
"B.	c #ACABAB",
"C.	c #A6A6A7",
"D.	c #A2A2A2",
"E.	c #9D9D9D",
"F.	c #C1C0C1",
"G.	c #BAB9B9",
"H.	c #9F9F9F",
"I.	c #797878",
"J.	c #111111",
"K.	c #BDBDBC",
"L.	c #BCBBBC",
"M.	c #BBBABB",
"N.	c #B2B1B1",
"O.	c #A3A3A4",
"P.	c #444444",
"Q.	c #666666",
"R.	c #AFB0AF",
"S.	c #A0A0A0",
"T.	c #79797A",
"U.	c #757676",
"V.	c #747575",
"W.	c #999999",
"X.	c #A7A7A8",
"Y.	c #A5A5A5",
"Z.	c #6A6A6A",
"`.	c #262626",
" +	c #383838",
".+	c #373737",
"++	c #363636",
"@+	c #353535",
"                                                                ",
"                                                                ",
"                                                                ",
"                                                                ",
"      . +     @ #                             $ +               ",
"      % &     * =                             * -               ",
"      ;       > ,                             ' )               ",
"                            ! ~ { ]                             ",
"                      ^ / ( _ : < [ } |                         ",
"                    1 2 3 4 5 6 7 8 9 0 a b                     ",
"                  c d e f g h i j k l m a n o                   ",
"                p c d e f q r i j k s m a t ' u                 ",
"              v w x y 2 3 z A B 7 C 9 D a E F G                 ",
"              H I J K L } ( M : < [ } | N L O P Q               ",
"              R S T U V W X i Y Z `  ...+.@.#.$.;               ",
"    %.        3 &.*.=.-.7 l ;.7 C l >.,.W V '.).; Q   !.  ~.{.].",
"    $         ( ^./.` z (._.7 :.<.[.}.|.1.2.G 3.4.Q   5.  6.| ~.",
"    7.        5 T /.` 8.9.5 Z 0.a.0 b.W V c.d.e.~.Q   f.  g.h.i.",
"              : l U j.k.j Z ` a.0 ,.+.1.F l.3.m.n.Q             ",
"              o.7 p.p.X ` q.} r.s.|.t.u.'.d.v.*.Q Q             ",
"                w.0.` x.y.z.| ,.A.E u.B.C.D.E.- Q               ",
"                9 } [.F.0 ..G.A.L V O G 3.H.I.J.Q               ",
"                  K.L.M.a A.n N.% c./.O.H.' P.Q                 ",
"                    Q.+.n 1.R.F './.3.S.T.!.Q Q                 ",
"                      U.V.W.'.X.Y.D.Z.~.Q Q Q                   ",
"                        Q `. +.+++@+Q Q Q Q                     ",
"                              Q Q Q Q                           ",
"                                                                ",
"                                                                ",
"                                                                ",
"                                                                ",
"                                                                "};
