/* XPM */
static char * range_xpm[] = {
"32 32 285 2",
"  	c None",
". 	c #5E5E5E",
"+ 	c #494949",
"@ 	c #4D4D4D",
"# 	c #767676",
"$ 	c #778088",
"% 	c #B6CEE2",
"& 	c #BDE0FD",
"* 	c #B0DBFC",
"= 	c #93C2E7",
"- 	c #648EB0",
"; 	c #919BA3",
"> 	c #C9DCEB",
", 	c #67727A",
"' 	c #424C54",
") 	c #3D4A54",
"! 	c #546E83",
"~ 	c #8EC6F2",
"{ 	c #6C8AA2",
"] 	c #4F4F4F",
"^ 	c #464646",
"/ 	c #343434",
"( 	c #676767",
"_ 	c #7E8891",
": 	c #DAEEFD",
"< 	c #D4DCE2",
"[ 	c #373839",
"} 	c #CCDEEE",
"| 	c #B9D6ED",
"1 	c #A5D0F0",
"2 	c #99CFFA",
"3 	c #80C5FA",
"4 	c #5B83A3",
"5 	c #AEAEAE",
"6 	c #5B5B5B",
"7 	c #8E8E8E",
"8 	c #4A4A4A",
"9 	c #BCD6EA",
"0 	c #D3DCE3",
"a 	c #51585E",
"b 	c #525F69",
"c 	c #8FB4D1",
"d 	c #99D0FB",
"e 	c #80C4FA",
"f 	c #6BACDE",
"g 	c #6B6B6B",
"h 	c #979797",
"i 	c #424242",
"j 	c #414141",
"k 	c #BDE0FC",
"l 	c #CDE8FD",
"m 	c #D1E4F3",
"n 	c #AFC0CD",
"o 	c #B9D2E6",
"p 	c #90AAC0",
"q 	c #29353F",
"r 	c #77A6CC",
"s 	c #7CC3FA",
"t 	c #69BAF9",
"u 	c #D7D7D7",
"v 	c #D2D2D2",
"w 	c #CCCCCD",
"x 	c #C7C7C8",
"y 	c #3D3D3D",
"z 	c #B1DAFB",
"A 	c #BDE1FC",
"B 	c #C6E5FD",
"C 	c #B1DBFC",
"D 	c #415566",
"E 	c #5D89AB",
"F 	c #75C0FA",
"G 	c #62B7F9",
"H 	c #E8E8E8",
"I 	c #E3E3E3",
"J 	c #DFDFDF",
"K 	c #D9D8D9",
"L 	c #D4D4D4",
"M 	c #CECECE",
"N 	c #C9C9C9",
"O 	c #A8A8A8",
"P 	c #444445",
"Q 	c #91BEE1",
"R 	c #A7D7FB",
"S 	c #A5CEEF",
"T 	c #9BC1DF",
"U 	c #9FCDF1",
"V 	c #8CBADD",
"W 	c #2A3C4B",
"X 	c #5D93BE",
"Y 	c #5DA2D7",
"Z 	c #EFEFEF",
"` 	c #EBEBEB",
" .	c #E5E5E5",
"..	c #E0E1E0",
"+.	c #DADADA",
"@.	c #D5D6D6",
"#.	c #CFCFCF",
"$.	c #CACBCA",
"%.	c #BEBEBF",
"&.	c #6F6F6F",
"*.	c #597285",
"=.	c #94CDFA",
"-.	c #80ADD1",
";.	c #3C505F",
">.	c #2F404C",
",.	c #2D3F4D",
"'.	c #456D8D",
").	c #6BB4EE",
"!.	c #5EB5F8",
"~.	c #4A6880",
"{.	c #F8F8F8",
"].	c #F2F2F2",
"^.	c #EDEDED",
"/.	c #E7E7E7",
"(.	c #E1E2E2",
"_.	c #DBDBDB",
":.	c #D6D6D6",
"<.	c #D0D0D0",
"[.	c #CBCBCB",
"}.	c #BBBBBB",
"|.	c #727273",
"1.	c #474747",
"2.	c #54728A",
"3.	c #7CC3F9",
"4.	c #75BFF9",
"5.	c #5EB5F9",
"6.	c #5881A1",
"7.	c #FBFAFB",
"8.	c #E1E1E2",
"9.	c #DBDCDB",
"0.	c #818181",
"a.	c #151515",
"b.	c #181818",
"c.	c #4E6C83",
"d.	c #69ABDE",
"e.	c #69B9F9",
"f.	c #63B7F9",
"g.	c #F5F6F5",
"h.	c #F6F6F6",
"i.	c #F4F4F4",
"j.	c #EFF0EF",
"k.	c #E0E0E0",
"l.	c #DBDADB",
"m.	c #D5D5D6",
"n.	c #C2C2C2",
"o.	c #898989",
"p.	c #505050",
"q.	c #0D0E0D",
"r.	c #3E3E3E",
"s.	c #656465",
"t.	c #3C3C3C",
"u.	c #2A2A2A",
"v.	c #5D5D5D",
"w.	c #F1F0F1",
"x.	c #F1F1F1",
"y.	c #BEBFBE",
"z.	c #AEADAD",
"A.	c #B3B3B3",
"B.	c #C3C3C3",
"C.	c #D9D9D9",
"D.	c #CDCDCE",
"E.	c #868686",
"F.	c #777777",
"G.	c #141414",
"H.	c #0A0A0A",
"I.	c #A2A2A2",
"J.	c #A7A7A7",
"K.	c #909090",
"L.	c #101010",
"M.	c #2D2D2D",
"N.	c #EAEAEA",
"O.	c #B1B1B1",
"P.	c #8D8D8D",
"Q.	c #A4A4A4",
"R.	c #B0B0B0",
"S.	c #B5B5B5",
"T.	c #C6C6C6",
"U.	c #A9A8A8",
"V.	c #7B7B7B",
"W.	c #0E0E0E",
"X.	c #3A3A3A",
"Y.	c #B6B6B6",
"Z.	c #B2B2B1",
"`.	c #ABACAC",
" +	c #A6A7A6",
".+	c #292929",
"++	c #858586",
"@+	c #9C9C9C",
"#+	c #B7B7B8",
"$+	c #C8C8C9",
"%+	c #8A8A8A",
"&+	c #7D7D7D",
"*+	c #0B0B0B",
"=+	c #A9A9A9",
"-+	c #AAAAAA",
";+	c #A5A5A6",
">+	c #000000",
",+	c #333333",
"'+	c #686868",
")+	c #7F7F7F",
"!+	c #717171",
"~+	c #323232",
"{+	c #8C8C8C",
"]+	c #C7C7C7",
"^+	c #D5D5D5",
"/+	c #797979",
"(+	c #6D6D6D",
"_+	c #4E4E4E",
":+	c #BDBDBD",
"<+	c #B8B8B8",
"[+	c #B2B2B2",
"}+	c #AEAEAD",
"|+	c #A3A3A3",
"1+	c #69696A",
"2+	c #303030",
"3+	c #3B3B3B",
"4+	c #BEBEBE",
"5+	c #1F1F1F",
"6+	c #3F3F3F",
"7+	c #111111",
"8+	c #4F4E4F",
"9+	c #AFAFAF",
"0+	c #BABABA",
"a+	c #ABABAB",
"b+	c #A6A6A6",
"c+	c #A1A1A1",
"d+	c #2B2B2B",
"e+	c #545454",
"f+	c #C5C5C5",
"g+	c #B7B8B7",
"h+	c #C8C9C8",
"i+	c #5F5F5F",
"j+	c #080808",
"k+	c #BFBFBF",
"l+	c #ADADAD",
"m+	c #9F9E9F",
"n+	c #CECECF",
"o+	c #C2C3C2",
"p+	c #B8B9B9",
"q+	c #5C5C5C",
"r+	c #454545",
"s+	c #BBBCBC",
"t+	c #B4B3B3",
"u+	c #A1A1A0",
"v+	c #C9C8C8",
"w+	c #C8C8C8",
"x+	c #C6C5C6",
"y+	c #C3C3C4",
"z+	c #C1C1C2",
"A+	c #B7B7B7",
"B+	c #B4B4B3",
"C+	c #ACABAB",
"D+	c #A6A6A7",
"E+	c #9D9D9D",
"F+	c #C4C4C4",
"G+	c #C1C0C1",
"H+	c #BCBCBD",
"I+	c #BAB9B9",
"J+	c #ACACAC",
"K+	c #9F9F9F",
"L+	c #797878",
"M+	c #BDBDBC",
"N+	c #BCBBBC",
"O+	c #BBBABB",
"P+	c #B9B9B9",
"Q+	c #B4B4B4",
"R+	c #B2B1B1",
"S+	c #A3A3A4",
"T+	c #9B9B9B",
"U+	c #444444",
"V+	c #666666",
"W+	c #AFB0AF",
"X+	c #A0A0A0",
"Y+	c #79797A",
"Z+	c #757676",
"`+	c #747575",
" @	c #999999",
".@	c #A7A7A8",
"+@	c #A5A5A5",
"@@	c #6A6A6A",
"#@	c #262626",
"$@	c #383838",
"%@	c #373737",
"&@	c #363636",
"*@	c #353535",
"                                                                ",
"                                            . + @ @ + .         ",
"                                        # + $ % & * = - + #     ",
"                                        + ; > , ' ) ! ~ { +     ",
"      ] ^     / (                     + _ : < [ } | 1 2 3 4 +   ",
"      5 6     7 8                     + 9 : 0 [ a b c d e f +   ",
"      g       h i                     j k l m n o p q r s t j   ",
"                            u v w x   y z A B B A C D E F G j   ",
"                      H I J K L M N O P Q R S T U V W X t Y +   ",
"                    Z `  ...+.@.#.$.%.&.*.=.-.;.>.,.'.).!.~..   ",
"                  {.].^./.(._.:.<.[.}.|.1.2.3 3 3.4.t 5.6.+     ",
"                7.{.].^./.8.9.:.<.[.0.. a.b.c.d.e.f.Y ~.+ #     ",
"              g.h.i.j.`  .k.l.m.n.o.p.a.q.r.s.t.u.r.^ v.        ",
"              w.x.y.z.A.B.J C.D.E.F.G.H.^ I.J.K.L.M.            ",
"              N.O.P.Q.R.S.T.U.E.V.G.W.X.Y.Z.`. +g               ",
"    .+         .++@+#+$+M %+&+K.G.*+i =+S.R.-+;+g >+  ,+  '+)+!+",
"    ~+        J {+J.]+^+/+(+E.G.G._+:+<+[+}+O |+1+>+  2+  3+4+'+",
"    5+        +.P.J.]+I.6+K.G.7+8+9+0+S.R.a+b+c+'+>+  d+  E.e+# ",
"              L f+Q.g+h+i+j+G._+k+}.Y.[+l+=+|+m+P >+            ",
"              n+#.o+o+T.p+q+r+R.s+<+t+9+-+b+u+@+>+>+            ",
"                v+w+]+x+y+z+4+}.A+B+9+C+D+I.E+F.>+              ",
"                F+B.n.G+k+H+I+A+A.R.J+O |+K+L+7+>+              ",
"                  M+N+O+P+A+Q+R+5 a+J.S+K+T+U+>+                ",
"                    V+Y.Q+[+W+l+-+J.|+X+Y+,+>+>+                ",
"                      Z+`+ @-+.@+@I.@@'+>+>+>+                  ",
"                        >+#@$@%@&@*@>+>+>+>+                    ",
"                              >+>+>+>+                          ",
"                                                                ",
"                                                                ",
"                                                                ",
"                                                                ",
"                                                                "};
