/* XPM */
static char * remoteDevice_xpm[] = {
"32 32 266 2",
"  	c None",
". 	c #4040A8",
"+ 	c #1F1FA6",
"@ 	c #1817A3",
"# 	c #1717A3",
"$ 	c #1616A3",
"% 	c #1515A3",
"& 	c #1414A3",
"* 	c #1313A3",
"= 	c #1212A3",
"- 	c #1111A3",
"; 	c #1010A3",
"> 	c #0F0FA3",
", 	c #0E0EA3",
"' 	c #0D0EA3",
") 	c #0D0DA3",
"! 	c #0C0CA3",
"~ 	c #0B0BA3",
"{ 	c #0A0AA3",
"] 	c #1919AA",
"^ 	c #4040A3",
"/ 	c #3939C8",
"( 	c #5656FF",
"_ 	c #5454FF",
": 	c #5252FF",
"< 	c #504FFF",
"[ 	c #4D4EFF",
"} 	c #4B4CFF",
"| 	c #4949FF",
"1 	c #4747FF",
"2 	c #4645FF",
"3 	c #4343FF",
"4 	c #4141FF",
"5 	c #3F3FFF",
"6 	c #3D3DFF",
"7 	c #3B3BFF",
"8 	c #3939FF",
"9 	c #3737FF",
"0 	c #3435FF",
"a 	c #3232FF",
"b 	c #3030FF",
"c 	c #2E2EFF",
"d 	c #2C2CFF",
"e 	c #2A2AFF",
"f 	c #2828FF",
"g 	c #2626FF",
"h 	c #2424FF",
"i 	c #2222FF",
"j 	c #1818A7",
"k 	c #6A6A6A",
"l 	c #353535",
"m 	c #0F0F0F",
"n 	c #0A0A34",
"o 	c #2E2EC3",
"p 	c #5555FF",
"q 	c #5353FF",
"r 	c #5151FF",
"s 	c #4E4EFF",
"t 	c #4C4DFF",
"u 	c #4A4BFF",
"v 	c #4848FF",
"w 	c #4646FF",
"x 	c #4444FF",
"y 	c #4242FF",
"z 	c #4040FF",
"A 	c #3E3EFF",
"B 	c #3C3CFF",
"C 	c #3A39FF",
"D 	c #3838FF",
"E 	c #3636FF",
"F 	c #3333FF",
"G 	c #3131FF",
"H 	c #2F2FFF",
"I 	c #2D2DFF",
"J 	c #2B2BFF",
"K 	c #2929FF",
"L 	c #2727FF",
"M 	c #2525FF",
"N 	c #2323FF",
"O 	c #2121FF",
"P 	c #0808A0",
"Q 	c #EBEBEB",
"R 	c #E0E0E0",
"S 	c #A2A2C5",
"T 	c #2E2DC3",
"U 	c #4E4DFF",
"V 	c #4B4BFF",
"W 	c #494AFF",
"X 	c #4545FF",
"Y 	c #4142FF",
"Z 	c #3839FF",
"` 	c #3637FF",
" .	c #3535FF",
"..	c #3332FF",
"+.	c #3130FF",
"@.	c #2C2DFF",
"#.	c #2B2AFF",
"$.	c #2221FF",
"%.	c #201FFF",
"&.	c #3B3B3B",
"*.	c #BEBEBE",
"=.	c #999999",
"-.	c #6E6E92",
";.	c #2D2DC3",
">.	c #4F4FFF",
",.	c #4D4DFF",
"'.	c #4B4AFF",
").	c #4243FF",
"!.	c #3A3AFF",
"~.	c #3334FF",
"{.	c #3132FF",
"].	c #2D2EFF",
"^.	c #2A29FF",
"/.	c #1F1FFF",
"(.	c #2C2CC3",
"_.	c #5050FF",
":.	c #4C4CFF",
"<.	c #4A49FF",
"[.	c #4847FF",
"}.	c #2928FF",
"|.	c #2020FF",
"1.	c #1E1EFF",
"2.	c #0707A0",
"3.	c #5051FF",
"4.	c #4948FF",
"5.	c #4647FF",
"6.	c #3434FF",
"7.	c #302FFF",
"8.	c #2C2BFF",
"9.	c #2728FF",
"0.	c #1D1DFF",
"a.	c #2B2CC3",
"b.	c #4A4AFF",
"c.	c #4546FF",
"d.	c #403FFF",
"e.	c #2726FF",
"f.	c #1C1CFF",
"g.	c #2B2BC3",
"h.	c #4445FF",
"i.	c #4342FF",
"j.	c #2E2DFF",
"k.	c #2324FF",
"l.	c #1B1BFF",
"m.	c #2A2AC3",
"n.	c #4C4BFF",
"o.	c #3233FF",
"p.	c #1C1BFF",
"q.	c #1A19FF",
"r.	c #0706A0",
"s.	c #4544FF",
"t.	c #3D3CFF",
"u.	c #2526FF",
"v.	c #1919FF",
"w.	c #0606A0",
"x.	c #424242",
"y.	c #2929C3",
"z.	c #4241FF",
"A.	c #2425FF",
"B.	c #2223FF",
"C.	c #2021FF",
"D.	c #1A1AFF",
"E.	c #1818FF",
"F.	c #727272",
"G.	c #868686",
"H.	c #606060",
"I.	c #454569",
"J.	c #4140FF",
"K.	c #3F3EFF",
"L.	c #3C3DFF",
"M.	c #3938FF",
"N.	c #1918FF",
"O.	c #1717FF",
"P.	c #000041",
"Q.	c #2928C3",
"R.	c #3B3CFF",
"S.	c #393AFF",
"T.	c #2322FF",
"U.	c #1616FF",
"V.	c #0505A0",
"W.	c #3A3AC5",
"X.	c #4040EE",
"Y.	c #3D3DED",
"Z.	c #3C3BED",
"`.	c #3A39ED",
" +	c #3838ED",
".+	c #3636ED",
"++	c #3434ED",
"@+	c #3332ED",
"#+	c #3031ED",
"$+	c #2F2FED",
"%+	c #2D2DED",
"&+	c #2B2BED",
"*+	c #2929ED",
"=+	c #2827ED",
"-+	c #2625ED",
";+	c #2424ED",
">+	c #2222ED",
",+	c #2020ED",
"'+	c #1F1EED",
")+	c #1D1DED",
"!+	c #1B1BED",
"~+	c #1919ED",
"{+	c #1717ED",
"]+	c #1515ED",
"^+	c #1414ED",
"/+	c #1515EF",
"(+	c #2727AB",
"_+	c #3E3E9A",
":+	c #090983",
"<+	c #00007F",
"[+	c #252576",
"}+	c #282875",
"|+	c #06067E",
"1+	c #161689",
"2+	c #49499F",
"3+	c #666666",
"4+	c #696969",
"5+	c #808080",
"6+	c #7C7C7C",
"7+	c #A5A4A4",
"8+	c #9E9E9E",
"9+	c #979797",
"0+	c #7E7E7E",
"a+	c #8C8C8B",
"b+	c #818181",
"c+	c #787878",
"d+	c #797979",
"e+	c #9A9A9A",
"f+	c #848484",
"g+	c #7A7B7B",
"h+	c #777776",
"i+	c #737373",
"j+	c #868585",
"k+	c #ACACAC",
"l+	c #ABABAB",
"m+	c #AAABAA",
"n+	c #AAAAAA",
"o+	c #A9A9A9",
"p+	c #A8A9A8",
"q+	c #A8A7A8",
"r+	c #A7A7A7",
"s+	c #A6A6A6",
"t+	c #A6A5A5",
"u+	c #A1A1A2",
"v+	c #848585",
"w+	c #7D7D7D",
"x+	c #757574",
"y+	c #727171",
"z+	c #6D6D6E",
"A+	c #6E6E6E",
"B+	c #909091",
"C+	c #9D9D9D",
"D+	c #9D9D9C",
"E+	c #9C9C9C",
"F+	c #9B9B9B",
"G+	c #9A9A9B",
"H+	c #999A99",
"I+	c #999998",
"J+	c #989898",
"K+	c #959696",
"L+	c #787778",
"M+	c #747473",
"N+	c #707070",
"O+	c #6F6F6F",
"P+	c #808181",
"Q+	c #8A8B8B",
"                                                                ",
"                                                                ",
"                                                                ",
"        . + @ # $ $ % % & * * = = - - ; > > , ' ) ! ! ~ ~ { ] ^ ",
"        / ( _ : < [ } | 1 2 3 4 5 6 7 8 9 0 a b c d e f g h i j ",
"k l m n o p q r s t u v w x y z A B C D E F G H I J K L M N O P ",
"k Q R S T _ : < U V W 1 X 3 Y 5 6 7 Z `  ...+.c @.#.f g h $.%.P ",
"&.*.=.-.;.q r >.,.'.| w x ).z A B !.D E ~.{.b ].J ^.L M N O /.P ",
"&.*.=.-.(.: _.s :.<.[.X 3 Y 5 6 7 Z 9  .F +.H I #.}.g h i |.1.2.",
"&.*.=.-.(.3.>.,.V 4.5.x y z A B !.D E 6.a 7.I 8.^.9.M N O /.0.2.",
"&.*.=.-.a._.s :.b.[.c.3 4 d.6 7 8 9  .F +.H d e f e.h i |.1.f.2.",
"&.*.=.-.g.>.,.V v 5.h.i.z A B !.D E ~.a 7.j.8.^.L M k.O /.0.l.2.",
"&.*.=.-.m.s n.b.v X 3 Y 5 6 7 Z 9  .o.G H @.e f g h i |.1.p.q.r.",
"&.*.=.-.m.[ V | 1 s.3 4 A t.!.D E 6.a b ].d K 9.u.N O /.0.l.v.w.",
"x.*.=.-.y.:.<.v c.3 z.d.6 7 8 9  .F G H I J K L A.B.C.1.f.D.E.w.",
"F.G.H.I.y.V | 1 X y J.K.L.!.M.E 6.a b c J K 9.M N O /.0.l.N.O.w.",
"      P.Q.b.v w x 4 5 6 R.S.9  .F G H I #.f g A.T.|.1.f.D.E.U.V.",
"        W.X.Y.Z.`. +.+++@+#+$+%+&+*+=+-+;+>+,+'+)+!+~+{+]+^+/+(+",
"        _+:+<+<+<+<+<+<+<+<+<+<+<+[+}+}+|+<+<+<+<+<+<+<+<+<+1+2+",
"                                  3+3+3+                        ",
"                                  4+3+4+                        ",
"                                  5+5+6+                        ",
"                                    7+                          ",
"                                    8+                          ",
"                                  9+0+a+                        ",
"                                  b+c+d+                        ",
"                              e+f+g+h+i+F.j+                    ",
"        k+l+m+n+o+p+q+r+s+t+u+v+w+d+x+y+z+A+B+8+C+D+E+F+G+H+I+J+",
"                              K+b+L+M+N+O+P+Q+                  ",
"                                                                ",
"                                                                ",
"                                                                "};
