/* XPM */
static char * remoteDevice_unplugged_xpm[] = {
"32 32 303 2",
"  	c None",
". 	c #FF0000",
"+ 	c #3F3F9D",
"@ 	c #0E0E8A",
"# 	c #050587",
"$ 	c #040487",
"% 	c #040386",
"& 	c #47015F",
"* 	c #DA0012",
"= 	c #D60014",
"- 	c #210172",
"; 	c #030286",
"> 	c #020387",
", 	c #020287",
"' 	c #171790",
") 	c #4747A0",
"! 	c #3E3ECA",
"~ 	c #5656FF",
"{ 	c #5454FF",
"] 	c #5252FF",
"^ 	c #504FFF",
"/ 	c #4E4EFF",
"( 	c #4C4CFF",
"_ 	c #4A4AFF",
": 	c #4747FF",
"< 	c #4645FF",
"[ 	c #4343FF",
"} 	c #4141FF",
"| 	c #3F3FFF",
"1 	c #4C38EB",
"2 	c #BA155A",
"3 	c #FE0001",
"4 	c #FD0002",
"5 	c #BC0E50",
"6 	c #4527E1",
"7 	c #2A2AFF",
"8 	c #2828FF",
"9 	c #2726FF",
"0 	c #2424FF",
"a 	c #2222FF",
"b 	c #2020AA",
"c 	c #686868",
"d 	c #282828",
"e 	c #000000",
"f 	c #000034",
"g 	c #2E2EC3",
"h 	c #5555FF",
"i 	c #5353FF",
"j 	c #5151FF",
"k 	c #4F4FFF",
"l 	c #4C4DFF",
"m 	c #4B4BFF",
"n 	c #4948FF",
"o 	c #4646FF",
"p 	c #4444FF",
"q 	c #4242FF",
"r 	c #4040FF",
"s 	c #3E3FFF",
"t 	c #93218D",
"u 	c #F90207",
"v 	c #F00412",
"w 	c #B71159",
"x 	c #EE0414",
"y 	c #F90108",
"z 	c #A4126E",
"A 	c #2E28FA",
"B 	c #2727FF",
"C 	c #2526FF",
"D 	c #2323FF",
"E 	c #2121FF",
"F 	c #0808A0",
"G 	c #757575",
"H 	c #D2D2D2",
"I 	c #C8C8C8",
"J 	c #9191B4",
"K 	c #5050FF",
"L 	c #4E4DFF",
"M 	c #4848FF",
"N 	c #4545FF",
"O 	c #4142FF",
"P 	c #403FFF",
"Q 	c #6930C6",
"R 	c #E8071E",
"S 	c #FD0103",
"T 	c #9F1978",
"U 	c #412FED",
"V 	c #961882",
"W 	c #F80208",
"X 	c #F7020A",
"Y 	c #9E1273",
"Z 	c #2C25F8",
"` 	c #2020FF",
" .	c #3B3B3B",
"..	c #BEBEBE",
"+.	c #999999",
"@.	c #6E6E92",
"#.	c #2D2DC3",
"$.	c #4D4DFF",
"%.	c #4B4AFF",
"&.	c #4949FF",
"*.	c #4243FF",
"=.	c #4041FF",
"-.	c #423DFA",
";.	c #B51761",
">.	c #C50F49",
",.	c #3E31F1",
"'.	c #3132FF",
").	c #332FFB",
"!.	c #AA1267",
"~.	c #FA0105",
"{.	c #E8041B",
"].	c #5E1BBB",
"^.	c #1F1FFF",
"/.	c #5352FF",
"(.	c #4A49FF",
"_.	c #4847FF",
":.	c #3F40FF",
"<.	c #413CFA",
"[.	c #A61B73",
"}.	c #FB0105",
"|.	c #DD092B",
"1.	c #6528C1",
"2.	c #3433FE",
"3.	c #3131FF",
"4.	c #2F2FFF",
"5.	c #4128E6",
"6.	c #A91166",
"7.	c #F4020C",
"8.	c #DE0526",
"9.	c #4F1DCC",
"0.	c #1E1EFF",
"a.	c #0708A0",
"b.	c #2C2CC3",
"c.	c #3C3CFF",
"d.	c #4935EB",
"e.	c #7128B5",
"f.	c #592CD2",
"g.	c #3833FA",
"h.	c #3232FF",
"i.	c #3030FF",
"j.	c #2E2EFF",
"k.	c #2C2CFE",
"l.	c #3627F0",
"m.	c #541FCA",
"n.	c #431FDC",
"o.	c #2722FA",
"p.	c #1E1DFF",
"q.	c #0707A0",
"r.	c #2B2CC3",
"s.	c #4546FF",
"t.	c #3E3DFF",
"u.	c #3B3BFF",
"v.	c #3939FF",
"w.	c #3737FF",
"x.	c #3535FF",
"y.	c #3333FF",
"z.	c #2D2DFF",
"A.	c #2928FF",
"B.	c #1C1CFF",
"C.	c #2B2BC3",
"D.	c #4445FF",
"E.	c #3A3AFF",
"F.	c #3838FF",
"G.	c #3636FF",
"H.	c #3434FF",
"I.	c #302FFF",
"J.	c #2C2CFF",
"K.	c #2A29FF",
"L.	c #2728FF",
"M.	c #2625FF",
"N.	c #2324FF",
"O.	c #2122FF",
"P.	c #1F20FF",
"Q.	c #1D1DFF",
"R.	c #1B1BFF",
"S.	c #2B2AC3",
"T.	c #4344FF",
"U.	c #3D3DFF",
"V.	c #3536FF",
"W.	c #2B2BFF",
"X.	c #2829FF",
"Y.	c #2524FF",
"Z.	c #1A1AFF",
"`.	c #0706A0",
" +	c #2A2AC3",
".+	c #4D4EFF",
"++	c #4544FF",
"@+	c #3F3EFF",
"#+	c #3D3CFF",
"$+	c #3B3AFF",
"%+	c #2626FF",
"&+	c #1919FF",
"*+	c #0606A0",
"=+	c #2929C3",
"-+	c #4443FF",
";+	c #3E3EFF",
">+	c #3C3BFF",
",+	c #3635FF",
"'+	c #2929FF",
")+	c #2425FF",
"!+	c #1818FF",
"~+	c #6E6E6E",
"{+	c #A9A9A9",
"]+	c #848484",
"^+	c #5F5F82",
"/+	c #3C3DFF",
"(+	c #3A3BFF",
"_+	c #3736FF",
":+	c #1717FF",
"<+	c #000032",
"[+	c #2928C3",
"}+	c #4241FF",
"|+	c #393AFF",
"1+	c #3837FF",
"2+	c #2B2AFF",
"3+	c #2627FF",
"4+	c #2322FF",
"5+	c #1B1AFF",
"6+	c #1616FF",
"7+	c #0505A0",
"8+	c #3635CA",
"9+	c #3839FF",
"0+	c #3637FF",
"a+	c #3435FF",
"b+	c #1D1EFF",
"c+	c #1515FF",
"d+	c #1B1BA9",
"e+	c #3E3EA0",
"f+	c #101091",
"g+	c #08088D",
"h+	c #07078D",
"i+	c #07068D",
"j+	c #06068D",
"k+	c #141487",
"l+	c #151587",
"m+	c #04048D",
"n+	c #03038D",
"o+	c #161696",
"p+	c #4545A1",
"q+	c #666666",
"r+	c #7B7B7B",
"s+	c #727272",
"t+	c #777777",
"u+	c #A5A4A4",
"v+	c #9B9B9B",
"w+	c #828282",
"x+	c #8F8F8F",
"y+	c #858585",
"z+	c #787878",
"A+	c #7C7D7C",
"B+	c #A09FA0",
"C+	c #878686",
"D+	c #737473",
"E+	c #737373",
"F+	c #8C8B8B",
"G+	c #B2B2B2",
"H+	c #B0B1B1",
"I+	c #B0B1B0",
"J+	c #B0B0AF",
"K+	c #AFAFAF",
"L+	c #AFAFAE",
"M+	c #AEAEAE",
"N+	c #ADADAD",
"O+	c #ACACAC",
"P+	c #A7A7A7",
"Q+	c #868687",
"R+	c #7D7E7E",
"S+	c #79797A",
"T+	c #727271",
"U+	c #6F706F",
"V+	c #959696",
"W+	c #A5A5A5",
"X+	c #A5A5A4",
"Y+	c #A4A4A4",
"Z+	c #A3A3A3",
"`+	c #A2A2A2",
" @	c #A1A1A2",
".@	c #A1A1A1",
"+@	c #A0A0A0",
"@@	c #9F9E9F",
"#@	c #9D9E9E",
"$@	c #9D9D9D",
"%@	c #9B9C9C",
"&@	c #9A9A9B",
"*@	c #9A9A9A",
"=@	c #999898",
"-@	c #989898",
";@	c #979898",
">@	c #969696",
",@	c #959596",
"'@	c #8F8F90",
")@	c #7F7F80",
"!@	c #747474",
"~@	c #707170",
"{@	c #7A7A7A",
"]@	c #878787",
"^@	c #8D8D8E",
"/@	c #8D8D8C",
"(@	c #8B8B8A",
"_@	c #8A8A8A",
":@	c #888889",
"<@	c #888888",
"[@	c #868686",
"                                                                ",
"                                . . .         . . . . .         ",
"                                . . . . .   . . . . . .         ",
"                                  . . . . . . . . . .           ",
"                                    . . . . . .                 ",
"        + @ # # # # $ $ $ $ $ $ $ % & * . . . = - ; > , , , ' ) ",
"        ! ~ { ] ^ / ( _ : < [ } | 1 2 3 . 3 . 4 5 6 7 8 9 0 a b ",
"c d e f g h i j k l m n o p q r s t u . v w x . y z A B C D E F ",
"G H I J g { ] K L ( _ M N [ O P Q R . S T U V W . X Y Z 0 a ` F ",
" ...+.@.#.i j k $.%.&.o p *.=.-.;.3 3 >.,.'.).!.~.. {.].D E ^.F ",
" ...+.@.#./.K / ( (._.N [ q :.<.[.}.|.1.2.3.4.5.6.7.8.9.a ` 0.a.",
" ...+.@.b.j k $.m &.: p *.} s c.d.e.f.g.h.i.j.k.l.m.n.o.E ^.p.q.",
" ...+.@.r.K / ( _ _.s.p } P t.u.v.w.x.y.3.4.z.7 A.B 0 a ` 0.B.q.",
" ...+.@.C.k $.m &.: D.[ r s c.E.F.G.H.h.I.j.J.K.L.M.N.O.P.Q.R.q.",
" ...+.@.S./ ( _ M N T.O | U.u.v.w.V.y.3.4.z.W.X.9 Y.D ` 0.B.Z.`.",
" ...+.@. +.+m &.: ++[ } @+#+$+F.G.H.h.i.j.J.7 L.%+D E ^.Q.R.&+*+",
" ...+.@.=+( _ M o -+q r ;+>+v.w.,+y.3.4.z.W.'+B )+D E 0.B.Z.!+*+",
"~+{+]+^+=+m &.: N [ } @+/+(+v._+x.h.i.j.J.7 8 M.N.O.P.Q.R.&+:+*+",
"c d e <+[+%.M o p }+| ;+c.|+1+x.y.3.4.z.2+8 3+)+4+` 0.B.5+!+6+7+",
"        8+&.: N -+} | U.u.9+0+a+y.i.j.J.7 8 %+0 a ` b+R.&+:+c+d+",
"        e+f+g+g+h+h+h+h+i+j+j+j+j+k+l+l+j+m+m+m+m+m+n+n+n+n+o+p+",
"                                  q+q+q+                        ",
"                                  q+q+q+                        ",
"                                  r+s+t+                        ",
"                                    u+                          ",
"                                    u+                          ",
"                                  v+w+x+                        ",
"                                  y+z+A+                        ",
"                              B+C+r+t+D+E+F+                    ",
"        G+H+I+J+K+L+M+N+O+O+P+Q+R+S+G T+~+U+V+W+X+Y+Z+`+ @.@+@+@",
"        @@#@$@%@&@*@=@-@;@>@,@'@)@z+!@~@~+{@]@^@/@F+(@_@:@<@]@[@",
"                                                                "};
