/* XPM */
static char * remoteDeviceInfo_xpm[] = {
"32 32 316 2",
"  	c None",
". 	c #4040A8",
"+ 	c #1F1FA6",
"@ 	c #1817A3",
"# 	c #1717A3",
"$ 	c #1616A3",
"% 	c #1515A3",
"& 	c #1414A3",
"* 	c #1313A3",
"= 	c #1212A3",
"- 	c #1111A3",
"; 	c #1010A3",
"> 	c #0F0FA3",
", 	c #0E0EA3",
"' 	c #0D0EA3",
") 	c #0D0DA3",
"! 	c #0C0CA3",
"~ 	c #0B0BA3",
"{ 	c #0A0AA3",
"] 	c #1919AA",
"^ 	c #4040A3",
"/ 	c #3939C8",
"( 	c #5656FF",
"_ 	c #5454FF",
": 	c #5252FF",
"< 	c #504FFF",
"[ 	c #4D4EFF",
"} 	c #4B4CFF",
"| 	c #4949FF",
"1 	c #4747FF",
"2 	c #4645FF",
"3 	c #4343FF",
"4 	c #4141FF",
"5 	c #3F3FFF",
"6 	c #3D3DFF",
"7 	c #3B3BFF",
"8 	c #3939FF",
"9 	c #3737FF",
"0 	c #3435FF",
"a 	c #3232FF",
"b 	c #3030FF",
"c 	c #2E2EFF",
"d 	c #2C2CFF",
"e 	c #2A2AFF",
"f 	c #2828FF",
"g 	c #2626FF",
"h 	c #2424FF",
"i 	c #2222FF",
"j 	c #1818A7",
"k 	c #6A6A6A",
"l 	c #353535",
"m 	c #0F0F0F",
"n 	c #0A0A34",
"o 	c #2E2EC3",
"p 	c #5555FF",
"q 	c #5353FF",
"r 	c #5151FF",
"s 	c #4E4EFF",
"t 	c #4C4DFF",
"u 	c #4A4BFF",
"v 	c #4848FF",
"w 	c #4646FF",
"x 	c #4444FF",
"y 	c #573BE1",
"z 	c #92288C",
"A 	c #B41E5D",
"B 	c #C51845",
"C 	c #BA1A52",
"D 	c #932286",
"E 	c #4731E7",
"F 	c #3433FF",
"G 	c #3131FF",
"H 	c #2F2FFF",
"I 	c #2D2DFF",
"J 	c #2B2BFF",
"K 	c #2929FF",
"L 	c #2727FF",
"M 	c #2525FF",
"N 	c #2323FF",
"O 	c #2121FF",
"P 	c #0808A0",
"Q 	c #EBEBEB",
"R 	c #E0E0E0",
"S 	c #A2A2C5",
"T 	c #2E2DC3",
"U 	c #4E4DFF",
"V 	c #4B4BFF",
"W 	c #494AFF",
"X 	c #4545FF",
"Y 	c #892C99",
"Z 	c #EB0F12",
"` 	c #DD1225",
" .	c #D8132C",
"..	c #E90F14",
"+.	c #EE0E0E",
"@.	c #C41644",
"#.	c #442FE8",
"$.	c #3130FF",
"%.	c #2C2DFF",
"&.	c #2B2AFF",
"*.	c #2221FF",
"=.	c #201FFF",
"-.	c #3B3B3B",
";.	c #BEBEBE",
">.	c #999999",
",.	c #6E6E92",
"'.	c #2D2DC3",
").	c #4F4FFF",
"!.	c #4D4DFF",
"~.	c #4B4AFF",
"{.	c #4243FF",
"].	c #7730B2",
"^.	c #982582",
"/.	c #712EB6",
"(.	c #6B2EBD",
"_.	c #B11B5E",
":.	c #DF1120",
"<.	c #6B27B5",
"[.	c #2D2EFF",
"}.	c #2A29FF",
"|.	c #1F1FFF",
"1.	c #2C2CC3",
"2.	c #5050FF",
"3.	c #4C4CFF",
"4.	c #4A49FF",
"5.	c #4847FF",
"6.	c #4142FF",
"7.	c #473DF4",
"8.	c #433CF7",
"9.	c #3D38F8",
"0.	c #932285",
"a.	c #6B25B4",
"b.	c #2928FF",
"c.	c #2020FF",
"d.	c #1E1EFF",
"e.	c #0707A0",
"f.	c #5051FF",
"g.	c #4948FF",
"h.	c #4647FF",
"i.	c #4242FF",
"j.	c #4040FF",
"k.	c #3E3EFF",
"l.	c #3C3CFF",
"m.	c #3E39F9",
"n.	c #7929A8",
"o.	c #DD1223",
"p.	c #B91751",
"q.	c #3E2DEC",
"r.	c #2C2BFF",
"s.	c #2728FF",
"t.	c #1D1DFF",
"u.	c #2B2CC3",
"v.	c #4A4AFF",
"w.	c #4546FF",
"x.	c #403FFF",
"y.	c #3E3AFB",
"z.	c #7C29A6",
"A.	c #DC1225",
"B.	c #ED0E0F",
"C.	c #C01648",
"D.	c #5629CF",
"E.	c #2726FF",
"F.	c #1C1CFF",
"G.	c #2B2BC3",
"H.	c #4445FF",
"I.	c #4342FF",
"J.	c #5633D9",
"K.	c #C31846",
"L.	c #C11747",
"M.	c #542BD2",
"N.	c #312FFE",
"O.	c #2E2DFF",
"P.	c #2324FF",
"Q.	c #1B1BFF",
"R.	c #2A2AC3",
"S.	c #4C4BFF",
"T.	c #5033DF",
"U.	c #8F238A",
"V.	c #9C1F78",
"W.	c #7226AD",
"X.	c #1C1BFF",
"Y.	c #1A19FF",
"Z.	c #0706A0",
"`.	c #4544FF",
" +	c #3D3CFF",
".+	c #3A3AFF",
"++	c #4435EE",
"@+	c #642CC1",
"#+	c #6B29B8",
"$+	c #532CD4",
"%+	c #2526FF",
"&+	c #1919FF",
"*+	c #0606A0",
"=+	c #424242",
"-+	c #2929C3",
";+	c #4241FF",
">+	c #602EC9",
",+	c #CA163D",
"'+	c #E1111F",
")+	c #9B1D78",
"!+	c #2425FF",
"~+	c #2223FF",
"{+	c #2021FF",
"]+	c #1A1AFF",
"^+	c #1818FF",
"/+	c #727272",
"(+	c #868686",
"_+	c #606060",
":+	c #454569",
"<+	c #4140FF",
"[+	c #3F3EFF",
"}+	c #3C3DFF",
"|+	c #3938FF",
"1+	c #622DC5",
"2+	c #D5132E",
"3+	c #A21B6D",
"4+	c #1918FF",
"5+	c #1717FF",
"6+	c #000041",
"7+	c #2928C3",
"8+	c #3B3CFF",
"9+	c #393AFF",
"0+	c #4532EA",
"a+	c #6F27B1",
"b+	c #7724A5",
"c+	c #5A27C9",
"d+	c #2322FF",
"e+	c #1616FF",
"f+	c #0505A0",
"g+	c #3A3AC5",
"h+	c #4040EE",
"i+	c #3D3DED",
"j+	c #3C3BED",
"k+	c #3A39ED",
"l+	c #3838ED",
"m+	c #3636ED",
"n+	c #3434ED",
"o+	c #3332ED",
"p+	c #3031ED",
"q+	c #2F2FED",
"r+	c #2D2DED",
"s+	c #2B2BED",
"t+	c #2929ED",
"u+	c #2827ED",
"v+	c #2625ED",
"w+	c #2424ED",
"x+	c #2222ED",
"y+	c #2020ED",
"z+	c #1F1EED",
"A+	c #1D1DED",
"B+	c #1B1BED",
"C+	c #1919ED",
"D+	c #1717ED",
"E+	c #1515ED",
"F+	c #1414ED",
"G+	c #1515EF",
"H+	c #2727AB",
"I+	c #3E3E9A",
"J+	c #090983",
"K+	c #00007F",
"L+	c #252576",
"M+	c #282875",
"N+	c #06067E",
"O+	c #161689",
"P+	c #49499F",
"Q+	c #666666",
"R+	c #696969",
"S+	c #808080",
"T+	c #7C7C7C",
"U+	c #A5A4A4",
"V+	c #9E9E9E",
"W+	c #979797",
"X+	c #7E7E7E",
"Y+	c #8C8C8B",
"Z+	c #818181",
"`+	c #787878",
" @	c #797979",
".@	c #9A9A9A",
"+@	c #848484",
"@@	c #7A7B7B",
"#@	c #777776",
"$@	c #737373",
"%@	c #868585",
"&@	c #ACACAC",
"*@	c #ABABAB",
"=@	c #AAABAA",
"-@	c #AAAAAA",
";@	c #A9A9A9",
">@	c #A8A9A8",
",@	c #A8A7A8",
"'@	c #A7A7A7",
")@	c #A6A6A6",
"!@	c #A6A5A5",
"~@	c #A1A1A2",
"{@	c #848585",
"]@	c #7D7D7D",
"^@	c #757574",
"/@	c #727171",
"(@	c #6D6D6E",
"_@	c #6E6E6E",
":@	c #909091",
"<@	c #9D9D9D",
"[@	c #9D9D9C",
"}@	c #9C9C9C",
"|@	c #9B9B9B",
"1@	c #9A9A9B",
"2@	c #999A99",
"3@	c #999998",
"4@	c #989898",
"5@	c #959696",
"6@	c #787778",
"7@	c #747473",
"8@	c #707070",
"9@	c #6F6F6F",
"0@	c #808181",
"a@	c #8A8B8B",
"                                                                ",
"                                                                ",
"                                                                ",
"        . + @ # $ $ % % & * * = = - - ; > > , ' ) ! ! ~ ~ { ] ^ ",
"        / ( _ : < [ } | 1 2 3 4 5 6 7 8 9 0 a b c d e f g h i j ",
"k l m n o p q r s t u v w x y z A B C D E F G H I J K L M N O P ",
"k Q R S T _ : < U V W 1 X 3 Y Z `  ...+.@.#.$.c %.&.f g h *.=.P ",
"-.;.>.,.'.q r ).!.~.| w x {.].^./.(._.+.:.<.b [.J }.L M N O |.P ",
"-.;.>.,.1.: 2.s 3.4.5.X 3 6.7.8.7 9.0.+.:.a.H I &.b.g h i c.d.e.",
"-.;.>.,.1.f.).!.V g.h.x i.j.k.l.m.n.o.+.p.q.I r.}.s.M N O |.t.e.",
"-.;.>.,.u.2.s 3.v.5.w.3 4 x.6 y.z.A.B.C.D.H d e f E.h i c.d.F.e.",
"-.;.>.,.G.).!.V v h.H.I.j.k.l.J.K.Z L.M.N.O.r.}.L M P.O |.t.Q.e.",
"-.;.>.,.R.s S.v.v X 3 6.5 6 7 T.U.V.W.G H %.e f g h i c.d.X.Y.Z.",
"-.;.>.,.R.[ V | 1 `.3 4 k. +.+++@+#+$+b [.d K s.%+N O |.t.Q.&+*+",
"=+;.>.,.-+3.4.v w.3 ;+x.6 7 8 >+,+'+)+H I J K L !+~+{+d.F.]+^+*+",
"/+(+_+:+-+V | 1 X i.<+[+}+.+|+1+2++.3+c J K s.M N O |.t.Q.4+5+*+",
"      6+7+v.v w x 4 5 6 8+9+9 0+a+b+c+I &.f g !+d+c.d.F.]+^+e+f+",
"        g+h+i+j+k+l+m+n+o+p+q+r+s+t+u+v+w+x+y+z+A+B+C+D+E+F+G+H+",
"        I+J+K+K+K+K+K+K+K+K+K+K+K+L+M+M+N+K+K+K+K+K+K+K+K+K+O+P+",
"                                  Q+Q+Q+                        ",
"                                  R+Q+R+                        ",
"                                  S+S+T+                        ",
"                                    U+                          ",
"                                    V+                          ",
"                                  W+X+Y+                        ",
"                                  Z+`+ @                        ",
"                              .@+@@@#@$@/+%@                    ",
"        &@*@=@-@;@>@,@'@)@!@~@{@]@ @^@/@(@_@:@V+<@[@}@|@1@2@3@4@",
"                              5@Z+6@7@8@9@0@a@                  ",
"                                                                ",
"                                                                ",
"                                                                "};
