/* XPM */
static char * save_xpm[] = {
"32 32 531 2",
"  	c None",
". 	c #5B5B5B",
"+ 	c #575656",
"@ 	c #565756",
"# 	c #575657",
"$ 	c #575757",
"% 	c #585757",
"& 	c #575858",
"* 	c #585958",
"= 	c #585959",
"- 	c #595959",
"; 	c #5A5A5A",
"> 	c #5A5B5B",
", 	c #5B5B5C",
"' 	c #5C5C5C",
") 	c #5D5D5D",
"! 	c #5E5E5E",
"~ 	c #5F5F5F",
"{ 	c #606060",
"] 	c #626162",
"^ 	c #636363",
"/ 	c #646464",
"( 	c #656565",
"_ 	c #676766",
": 	c #686868",
"< 	c #696969",
"[ 	c #6A6A6B",
"} 	c #6F6F6F",
"| 	c #3C3C3C",
"1 	c #364536",
"2 	c #2F4F30",
"3 	c #2E532E",
"4 	c #2E542E",
"5 	c #30552F",
"6 	c #315631",
"7 	c #325631",
"8 	c #335833",
"9 	c #355935",
"0 	c #365A36",
"a 	c #385B38",
"b 	c #3A5C39",
"c 	c #3B5D3B",
"d 	c #3C5E3D",
"e 	c #3E5F3E",
"f 	c #3F6040",
"g 	c #416141",
"h 	c #446343",
"i 	c #456545",
"j 	c #476647",
"k 	c #496649",
"l 	c #4A684A",
"m 	c #4C654C",
"n 	c #505B4F",
"o 	c #525252",
"p 	c #535353",
"q 	c #545455",
"r 	c #6F6F70",
"s 	c #3A3A3A",
"t 	c #3A3B3B",
"u 	c #3B3B3B",
"v 	c #3B3A3A",
"w 	c #205F20",
"x 	c #0C7B0D",
"y 	c #098309",
"z 	c #0B840C",
"A 	c #0E860E",
"B 	c #118811",
"C 	c #148913",
"D 	c #178A17",
"E 	c #1A8C1A",
"F 	c #1D8E1D",
"G 	c #208F20",
"H 	c #239022",
"I 	c #269226",
"J 	c #299429",
"K 	c #2C952C",
"L 	c #2F972F",
"M 	c #329832",
"N 	c #369A35",
"O 	c #389B39",
"P 	c #3C9D3C",
"Q 	c #3F9F3F",
"R 	c #42A042",
"S 	c #459846",
"T 	c #4B7A4B",
"U 	c #4B4C4B",
"V 	c #444444",
"W 	c #383838",
"X 	c #393838",
"Y 	c #126D11",
"Z 	c #058105",
"` 	c #078307",
" .	c #0A840A",
"..	c #0D860D",
"+.	c #108710",
"@.	c #138913",
"#.	c #168A16",
"$.	c #198C19",
"%.	c #1C8E1C",
"&.	c #1F8F1F",
"*.	c #229022",
"=.	c #299329",
"-.	c #2F962F",
";.	c #359A36",
">.	c #389C38",
",.	c #3C9D3B",
"'.	c #3F9F3E",
").	c #45A145",
"!.	c #4A8C49",
"~.	c #444544",
"{.	c #333333",
"].	c #363636",
"^.	c #0C700C",
"/.	c #038003",
"(.	c #068206",
"_.	c #088409",
":.	c #0C860D",
"<.	c #0F8710",
"[.	c #138813",
"}.	c #168915",
"|.	c #198B19",
"1.	c #1C8D1C",
"2.	c #1F8E1F",
"3.	c #259226",
"4.	c #2F972E",
"5.	c #359A35",
"6.	c #399B38",
"7.	c #3B9D3B",
"8.	c #3F9E3E",
"9.	c #489048",
"0.	c #4C4C4C",
"a.	c #494A4A",
"b.	c #4A4A4A",
"c.	c #676767",
"d.	c #343434",
"e.	c #B8BDB8",
"f.	c #DCE2DB",
"g.	c #DCE2DC",
"h.	c #DDE3DD",
"i.	c #DDE3DC",
"j.	c #DEE3DE",
"k.	c #DEE4DF",
"l.	c #DFE5DF",
"m.	c #DFE4DF",
"n.	c #E0E5E0",
"o.	c #E1E6E0",
"p.	c #E1E6E1",
"q.	c #C1C6C2",
"r.	c #4E4E4E",
"s.	c #504F50",
"t.	c #323232",
"u.	c #C1C1C1",
"v.	c #E7E7E7",
"w.	c #E7E8E7",
"x.	c #E8E7E8",
"y.	c #E7E8E8",
"z.	c #E8E8E8",
"A.	c #E8E9E8",
"B.	c #E9E9E9",
"C.	c #EAEAE9",
"D.	c #E9EAEA",
"E.	c #C8C8C8",
"F.	c #4B4B4B",
"G.	c #4D4D4C",
"H.	c #303030",
"I.	c #C1C0C0",
"J.	c #E0E4E1",
"K.	c #AECDAE",
"L.	c #AECEAE",
"M.	c #AFCDAE",
"N.	c #AFCEAF",
"O.	c #AECEAF",
"P.	c #AFCFAF",
"Q.	c #B0CFAF",
"R.	c #B0CFB0",
"S.	c #E4E7E4",
"T.	c #4D4C4D",
"U.	c #2E2E2E",
"V.	c #C0BFBF",
"W.	c #E0E3E0",
"X.	c #AECDAF",
"Y.	c #AFCEAE",
"Z.	c #AFCDAF",
"`.	c #AFCFB0",
" +	c #E4E7E3",
".+	c #C8C7C8",
"++	c #494849",
"@+	c #4B4B4C",
"#+	c #2C2C2C",
"$+	c #2D2C2D",
"%+	c #BFBFC0",
"&+	c #E6E6E6",
"*+	c #E6E7E6",
"=+	c #E7E7E6",
"-+	c #E6E7E7",
";+	c #E8E7E7",
">+	c #E7E7E8",
",+	c #E8E8E9",
"'+	c #EAEAEA",
")+	c #484748",
"!+	c #494949",
"~+	c #4A4A4B",
"{+	c #292A2A",
"]+	c #2A2A2A",
"^+	c #2A2B2A",
"/+	c #2A2B2B",
"(+	c #BEBFBF",
"_+	c #E5E6E6",
":+	c #DFE3DF",
"<+	c #E0E4DF",
"[+	c #E0E3DF",
"}+	c #E0E4E0",
"|+	c #E1E4E0",
"1+	c #E1E4E1",
"2+	c #E1E5E1",
"3+	c #E2E5E2",
"4+	c #E2E6E1",
"5+	c #E2E6E2",
"6+	c #E8E9E9",
"7+	c #C7C7C7",
"8+	c #464646",
"9+	c #484848",
"0+	c #626161",
"a+	c #282828",
"b+	c #BEBEBE",
"c+	c #DBE1DB",
"d+	c #7BB67B",
"e+	c #7CB67C",
"f+	c #7CB77C",
"g+	c #7CB77D",
"h+	c #7DB77C",
"i+	c #7DB77D",
"j+	c #7DB87D",
"k+	c #DEE5DE",
"l+	c #444545",
"m+	c #262626",
"n+	c #BDBEBD",
"o+	c #E6E6E5",
"p+	c #E7E6E6",
"q+	c #E8E8E7",
"r+	c #EAE9EA",
"s+	c #434444",
"t+	c #454545",
"u+	c #474747",
"v+	c #5F5F60",
"w+	c #242424",
"x+	c #252424",
"y+	c #BDBDBD",
"z+	c #E6E6E7",
"A+	c #E7E6E7",
"B+	c #E9E8E9",
"C+	c #C6C7C6",
"D+	c #424343",
"E+	c #5E5E5F",
"F+	c #222222",
"G+	c #222322",
"H+	c #232322",
"I+	c #BCBDBC",
"J+	c #DBE2DB",
"K+	c #89BC8A",
"L+	c #8ABC8A",
"M+	c #8ABD8B",
"N+	c #8BBD8B",
"O+	c #8BBE8B",
"P+	c #8BBF8B",
"Q+	c #8CBF8B",
"R+	c #C6C6C6",
"S+	c #414241",
"T+	c #434443",
"U+	c #202020",
"V+	c #202021",
"W+	c #212121",
"X+	c #A1A1A2",
"Y+	c #E1E2E2",
"Z+	c #D0DCD0",
"`+	c #D1DCD0",
" @	c #D1DCD1",
".@	c #D1DCD2",
"+@	c #D1DDD1",
"@@	c #D1DDD2",
"#@	c #D2DDD2",
"$@	c #D2DED2",
"%@	c #D3DED2",
"&@	c #D3DED3",
"*@	c #D3DFD3",
"=@	c #E5E7E5",
"-@	c #AFAFAF",
";@	c #414141",
">@	c #424242",
",@	c #1E1E1E",
"'@	c #1F1E1E",
")@	c #1F1F1F",
"!@	c #616161",
"~@	c #A5A5A5",
"{@	c #C7C7C8",
"]@	c #C9C9C8",
"^@	c #C9C9C9",
"/@	c #CAC9C9",
"(@	c #C9C9CA",
"_@	c #CACACA",
":@	c #CBCBCB",
"<@	c #CBCCCB",
"[@	c #CCCCCC",
"}@	c #CDCCCC",
"|@	c #CDCDCD",
"1@	c #B1B1B2",
"2@	c #787778",
"3@	c #40403F",
"4@	c #434343",
"5@	c #1C1C1C",
"6@	c #1D1C1C",
"7@	c #1D1D1C",
"8@	c #1D1D1D",
"9@	c #1D1E1E",
"0@	c #1E1E1F",
"a@	c #1F1F20",
"b@	c #232222",
"c@	c #252525",
"d@	c #272728",
"e@	c #292929",
"f@	c #2B2A2A",
"g@	c #2F2F2F",
"h@	c #313031",
"i@	c #333233",
"j@	c #383837",
"k@	c #393939",
"l@	c #3C3D3D",
"m@	c #3F3E3F",
"n@	c #414140",
"o@	c #5C5B5C",
"p@	c #1A1A1A",
"q@	c #1B1A1A",
"r@	c #1B1B1B",
"s@	c #1C1D1D",
"t@	c #1F2020",
"u@	c #242323",
"v@	c #252524",
"w@	c #2B2B2B",
"x@	c #2C2D2C",
"y@	c #302F2F",
"z@	c #333433",
"A@	c #353535",
"B@	c #373637",
"C@	c #383839",
"D@	c #3E3E3E",
"E@	c #3F3F40",
"F@	c #5B5A5A",
"G@	c #181818",
"H@	c #191819",
"I@	c #191919",
"J@	c #191A1A",
"K@	c #232424",
"L@	c #292828",
"M@	c #2D2D2D",
"N@	c #2F2E2E",
"O@	c #303031",
"P@	c #323332",
"Q@	c #373838",
"R@	c #3D3D3D",
"S@	c #3F3F3F",
"T@	c #161616",
"U@	c #161716",
"V@	c #171717",
"W@	c #181717",
"X@	c #1E1E1D",
"Y@	c #222223",
"Z@	c #262526",
"`@	c #272727",
" #	c #2D2E2E",
".#	c #302F30",
"+#	c #313231",
"@#	c #353534",
"##	c #373737",
"$#	c #3A3B3A",
"%#	c #3C3D3C",
"&#	c #3E3F3E",
"*#	c #404040",
"=#	c #141414",
"-#	c #141415",
";#	c #151515",
">#	c #151616",
",#	c #161617",
"'#	c #2B2B2C",
")#	c #2F302F",
"!#	c #313131",
"~#	c #353636",
"{#	c #373837",
"]#	c #3D3C3C",
"^#	c #3B3A3B",
"/#	c #373736",
"(#	c #363635",
"_#	c #3C3C3B",
":#	c #121212",
"<#	c #131312",
"[#	c #131313",
"}#	c #141314",
"|#	c #151615",
"1#	c #3B3C3C",
"2#	c #808080",
"3#	c #A0A0A0",
"4#	c #A8A7A8",
"5#	c #A8A8A8",
"6#	c #A9A9A9",
"7#	c #AAAAAA",
"8#	c #ABAAAB",
"9#	c #ACACAC",
"0#	c #ADACAD",
"a#	c #ADAEAE",
"b#	c #B0B0B0",
"c#	c #B2B3B2",
"d#	c #ADADAD",
"e#	c #8B8B8B",
"f#	c #4F4F4F",
"g#	c #3F3E3E",
"h#	c #595859",
"i#	c #101010",
"j#	c #111010",
"k#	c #111111",
"l#	c #9D9C9D",
"m#	c #A5A5A6",
"n#	c #767676",
"o#	c #717272",
"p#	c #737373",
"q#	c #909090",
"r#	c #ABABAC",
"s#	c #AEAEAE",
"t#	c #B1B0B0",
"u#	c #B2B2B2",
"v#	c #B3B3B3",
"w#	c #ACACAD",
"x#	c #626262",
"y#	c #585858",
"z#	c #0E0E0E",
"A#	c #0F0F0F",
"B#	c #111110",
"C#	c #505050",
"D#	c #A4A4A4",
"E#	c #6C6C6D",
"F#	c #A8A9A9",
"G#	c #A9AAA9",
"H#	c #ABABAB",
"I#	c #AEAEAF",
"J#	c #B1B1B1",
"K#	c #B3B3B2",
"L#	c #B4B4B4",
"M#	c #3C3B3C",
"N#	c #3E3D3E",
"O#	c #0C0C0D",
"P#	c #0D0D0D",
"Q#	c #0D0D0E",
"R#	c #0F1010",
"S#	c #111211",
"T#	c #A2A3A2",
"U#	c #A3A3A3",
"V#	c #252626",
"W#	c #282829",
"X#	c #6C6B6C",
"Y#	c #A8A8A7",
"Z#	c #A9A9A8",
"`#	c #A9A9AA",
" $	c #AEADAE",
".$	c #686969",
"+$	c #333434",
"@$	c #3A393A",
"#$	c #0A0A0A",
"$$	c #0A0B0A",
"%$	c #0B0B0B",
"&$	c #0C0C0C",
"*$	c #0E0F0E",
"=$	c #10100F",
"-$	c #4E4E4D",
";$	c #A1A1A1",
">$	c #6A6A6A",
",$	c #A7A7A6",
"'$	c #ABACAC",
")$	c #AFAEAE",
"!$	c #B1B2B1",
"~$	c #686869",
"{$	c #565757",
"]$	c #080908",
"^$	c #090909",
"/$	c #9FA0A0",
"($	c #222323",
"_$	c #6A6969",
":$	c #A6A6A5",
"<$	c #A7A7A7",
"[$	c #A9A8A8",
"}$	c #AFB0AF",
"|$	c #B0B1B1",
"1$	c #333232",
"2$	c #3A3A3B",
"3$	c #575756",
"4$	c #060606",
"5$	c #070707",
"6$	c #9E9E9E",
"7$	c #9F9F9F",
"8$	c #2D2C2C",
"9$	c #A6A6A6",
"0$	c #ABAAAA",
"a$	c #B0B1B0",
"b$	c #686768",
"c$	c #343534",
"d$	c #373636",
"e$	c #040404",
"f$	c #050404",
"g$	c #080708",
"h$	c #9D9D9D",
"i$	c #2C2B2C",
"j$	c #A4A4A5",
"k$	c #A8A7A7",
"l$	c #A9A8A9",
"m$	c #020302",
"n$	c #030303",
"o$	c #050505",
"p$	c #060607",
"q$	c #0A0B0B",
"r$	c #0C0D0C",
"s$	c #9C9C9B",
"t$	c #7A7A7A",
"u$	c #787878",
"v$	c #A5A6A6",
"w$	c #AEAFAF",
"x$	c #676768",
"y$	c #030202",
"z$	c #090808",
"A$	c #9C9B9B",
"B$	c #9D9D9C",
"C$	c #9F9FA0",
"D$	c #A6A5A6",
"E$	c #B1B2B2",
"F$	c #676867",
"  . + @ # $ % & * = - - ; > , ' ) ! ! ~ { ] ^ / ( ( _ : < [ }   ",
"| | | | 1 2 3 4 5 6 7 8 9 0 a b c d e f g h i j k l m n o p q r ",
"s t u v w x y z A B C D E F G H I J K L M N O P Q R S T U V V : ",
"W     X Y Z `  ...+.@.#.$.%.&.*.I =.K -.M ;.>.,.'.R ).!.~.{.{./ ",
"].].].].^./.(._.:.<.[.}.|.1.2.*.3.=.K 4.M 5.6.7.8.R ).9.0.a.b.c.",
"d.d.d.d.e.f.f.g.g.g.g.h.i.h.h.j.j.k.l.l.m.l.n.n.o.p.p.q.0.r.s.c.",
"t.t.t.t.u.v.v.v.v.v.w.x.v.y.x.z.z.A.z.A.A.B.B.B.B.C.D.E.F.G.r.( ",
"H.H.H.H.I.J.K.K.K.K.L.M.K.L.N.O.N.N.N.N.N.P.P.P.Q.R.S.E.b.F.T.( ",
"U.U.U.U.V.W.K.K.K.K.K.K.X.K.L.Y.Z.N.N.N.N.P.P.`.`.R. +.+++b.@+/ ",
"#+#+#+$+%+&+&+*+=+-+-+v.v.;+v.>+y.z.z.z.,+,+z.B.D.'+'+.+)+!+~+^ ",
"{+]+^+/+(+_+:+:+:+<+<+[+W.}+|+}+|+|+1+2+2+3+4+5+5+5+6+7+8+9+!+0+",
"a+a+a+a+b+c+d+d+e+e+f+f+e+f+f+g+h+g+i+i+j+i+j+j+j+j+k+7+l+8+)+{ ",
"m+m+m+m+n+o+&+&+&+p+&+-+v.v.v.>+q+y.y.z.z.z.A.B.B.B.r+7+s+t+u+v+",
"w+w+w+x+y+_+_+&+&+&+p+-+z+A+v.v.v.>+z.z.z.6+B+B+B.B.B.C+D+V 8+E+",
"F+F+G+H+I+J+K+K+L+L+L+M+M+M+N+N+N+N+N+N+O+O+O+O+P+Q+l.R+S+T+t+! ",
"U+U+V+W+X+Y+Z+Z+`+ @ @.@+@@@#@#@#@$@%@%@&@*@&@*@*@*@=@-@;@>@V ) ",
",@,@'@)@!@~@C+C+7+7+7+{@E.]@^@/@(@_@:@:@<@[@[@}@|@|@1@2@3@;@4@' ",
"5@5@6@7@8@9@0@a@V+W+b@w+c@m+d@e@f@#+U.g@h@i@d.].j@k@u l@m@n@>@o@",
"p@p@q@r@r@5@s@9@)@t@W+F+u@v@m+d@e@w@x@U.y@t.z@A@B@C@s | D@E@;@F@",
"G@G@H@I@J@p@r@5@8@,@)@W+F+K@c@m+L@]+w@M@N@O@P@d.].Q@k@u R@S@n@; ",
"T@T@U@V@W@G@I@p@r@6@X@)@W+Y@K@Z@`@e@f@#+ #.#+#z@@###C@$#%#&#*#- ",
"=#-#-#;#>#,#V@5@K@e@'#M@U.)#!#t.d.~#{#k@u ]#R@^#/#(#j@k@_#R@S@- ",
":#:#<#[#}#;#|#1#2#3#4#5#6#7#8#9#0#a#-@b#1@c#d#e#f#A@##k@u ]#g#h#",
"i#i#j#k#:#[#=#!+l#m#n#o#p#q#6#7#r#d#s#-@t#u#v#w#x#d.].W $#| D@y#",
"z#z#A#A#B#k#[#C#D#D#t.`@]+E#F#G#H#9#d#I#b#J#K#L#< d.].W s M#N#y#",
"O#O#P#Q#A#R#S#f#T#U#!#V#W#X#Y#Z#`#H#9# $-@b#u#v#.$+$A@##@$M#R@$ ",
"#$$$%$&$P#*$=$-$;$;$g@w+`@>$,$5#6#7#'$d#)$b#!$v#~${.A@##k@u R@{$",
"]$]$^$#$&$P#A#0./$3#M@($m+_$:$<$[$7#H#9#s#}$|$u#: 1$A@/#W 2$l@3$",
"4$4$5$^$#$&$z#F.6$7$8$F+c@< ~@9$5#6#0$9# $-@a$u#b$t.c$d$C@s | {$",
"e$f$4$g$^$%$P#b.h$6$i$W+w+: j$9$k$l$7#9#d#-@a$u#: t.d.].W s | + ",
"m$n$o$p$^$q$r$!+s$h$t$u$t$q#D#v$k$l$7#9#d#w$b#u#x$t.d.].W s 1#. ",
"  y$e$4$z$#$&$!+A$B$6$C$;$U#D#D$<$Z#7#r#d#s#b#E$F$t.d.].W s |   "};
