/* XPM */
static char * subdevice_info_xpm[] = {
"32 32 314 2",
"  	c None",
". 	c #D2D2D2",
"+ 	c #A9A9A9",
"@ 	c #777777",
"# 	c #898989",
"$ 	c #989898",
"% 	c #A7A7A7",
"& 	c #000000",
"* 	c #1B1B1B",
"= 	c #EFEFEF",
"- 	c #EDEDED",
"; 	c #B3B3B3",
"> 	c #1E1E1E",
", 	c #EBEBEB",
"' 	c #CDCDCD",
") 	c #191919",
"! 	c #E9E9E9",
"~ 	c #E8E8E8",
"{ 	c #151515",
"] 	c #E6E6E6",
"^ 	c #EEEEEE",
"/ 	c #2B2B2B",
"( 	c #DBDBDB",
"_ 	c #A4A4A4",
": 	c #9B9B9B",
"< 	c #999999",
"[ 	c #979797",
"} 	c #959595",
"| 	c #939393",
"1 	c #919191",
"2 	c #909090",
"3 	c #8E8F8F",
"4 	c #8E8E8D",
"5 	c #8D8D8D",
"6 	c #8C8C8C",
"7 	c #8B8B8B",
"8 	c #909190",
"9 	c #F6F6F6",
"0 	c #A0A0A0",
"a 	c #D9D9D9",
"b 	c #CBCBCB",
"c 	c #6C6C6C",
"d 	c #656565",
"e 	c #626162",
"f 	c #5E5E5F",
"g 	c #5B5B5B",
"h 	c #585858",
"i 	c #555555",
"j 	c #525352",
"k 	c #505050",
"l 	c #4E4E4E",
"m 	c #4D4C4C",
"n 	c #4B4B4B",
"o 	c #4A4A4A",
"p 	c #4A4949",
"q 	c #565555",
"r 	c #AAAAAA",
"s 	c #575757",
"t 	c #B1B1B1",
"u 	c #353535",
"v 	c #696969",
"w 	c #5E5E5E",
"x 	c #5A5A5A",
"y 	c #565756",
"z 	c #535453",
"A 	c #515150",
"B 	c #4E4E4D",
"C 	c #494949",
"D 	c #474847",
"E 	c #464646",
"F 	c #454545",
"G 	c #444445",
"H 	c #424242",
"I 	c #292929",
"J 	c #ACACAC",
"K 	c #5C5C5C",
"L 	c #545455",
"M 	c #515151",
"N 	c #4F4F4F",
"O 	c #4B4C4B",
"P 	c #494948",
"Q 	c #444444",
"R 	c #414040",
"S 	c #3F3F3F",
"T 	c #3E3F3E",
"U 	c #3B3C3C",
"V 	c #212121",
"W 	c #B5B5B5",
"X 	c #7B7B7B",
"Y 	c #282828",
"Z 	c #262626",
"` 	c #242424",
" .	c #2F2F2F",
"..	c #454546",
"+.	c #414141",
"@.	c #3D3D3D",
"#.	c #3B3B3B",
"$.	c #3A3A3A",
"%.	c #393939",
"&.	c #4A4A4B",
"*.	c #ADADAD",
"=.	c #6B7B88",
"-.	c #8298A9",
";.	c #7F97AA",
">.	c #7794A9",
",.	c #6B8CA5",
"'.	c #2D485E",
").	c #373736",
"!.	c #3B3A3B",
"~.	c #393838",
"{.	c #363636",
"].	c #343434",
"^.	c #373636",
"/.	c #202020",
"(.	c #343535",
"_.	c #808C95",
":.	c #C7DFF3",
"<.	c #CDE8FD",
"[.	c #C4E4FD",
"}.	c #B7DEFC",
"|.	c #A7D6FB",
"1.	c #88BFEA",
"2.	c #557996",
"3.	c #1B2328",
"4.	c #222222",
"5.	c #383838",
"6.	c #363536",
"7.	c #343334",
"8.	c #313131",
"9.	c #303030",
"0.	c #2B2A2B",
"a.	c #0C0C0C",
"b.	c #0B0B0B",
"c.	c #7D7D7D",
"d.	c #4D4D4E",
"e.	c #909CA4",
"f.	c #DCEFFD",
"g.	c #E4F3FD",
"h.	c #E0F1FD",
"i.	c #D2EAFD",
"j.	c #C2E3FC",
"k.	c #B1DBFC",
"l.	c #9CD2FB",
"m.	c #8BC9FA",
"n.	c #578BB2",
"o.	c #181F25",
"p.	c #272727",
"q.	c #2E2E2E",
"r.	c #2C2B2C",
"s.	c #2A2A2A",
"t.	c #3C3C3C",
"u.	c #6D8290",
"v.	c #D5EBFD",
"w.	c #E6F4FE",
"x.	c #F5FAFE",
"y.	c #EBF6FE",
"z.	c #D9EDFE",
"A.	c #C7E5FD",
"B.	c #B4DDFC",
"C.	c #A0D3FB",
"D.	c #8DCAFA",
"E.	c #7BC2FA",
"F.	c #335B7B",
"G.	c #171717",
"H.	c #292A2A",
"I.	c #252525",
"J.	c #525252",
"K.	c #A4C3DA",
"L.	c #D4EBFD",
"M.	c #E5F3FE",
"N.	c #F2F9FF",
"O.	c #EAF5FE",
"P.	c #C6E5FD",
"Q.	c #B4DCFC",
"R.	c #9FD3FB",
"S.	c #7BC2F9",
"T.	c #4886B6",
"U.	c #100F0F",
"V.	c #252626",
"W.	c #222323",
"X.	c #1F1F1F",
"Y.	c #404040",
"Z.	c #A9C8E0",
"`.	c #CAE7FD",
" +	c #D7EDFD",
".+	c #DEF0FE",
"++	c #DAEEFE",
"@+	c #CEE8FD",
"#+	c #C0E2FD",
"$+	c #AFD9FC",
"%+	c #9AD1FB",
"&+	c #89C8FA",
"*+	c #78C1F9",
"=+	c #589ED5",
"-+	c #0D0D0D",
";+	c #1A1A1A",
">+	c #1E1D1D",
",+	c #2C2C2C",
"'+	c #A6A5A5",
")+	c #A0C4E0",
"!+	c #BDE1FC",
"~+	c #CBE7FD",
"{+	c #C8E6FD",
"]+	c #A5D5FB",
"^+	c #93CDFA",
"/+	c #82C6FA",
"(+	c #72BEF9",
"_+	c #549DD6",
":+	c #1D1D1D",
"<+	c #161716",
"[+	c #141414",
"}+	c #626262",
"|+	c #656564",
"1+	c #434343",
"2+	c #94BDDE",
"3+	c #AEDAFB",
"4+	c #B6DDFC",
"5+	c #B9DFFC",
"6+	c #B0DBFC",
"7+	c #99D0FB",
"8+	c #7AC2FA",
"9+	c #6ABAF9",
"0+	c #488CC2",
"a+	c #121212",
"b+	c #0F0F10",
"c+	c #0D0C0C",
"d+	c #535353",
"e+	c #8698A6",
"f+	c #9DD2FB",
"g+	c #A3D5FB",
"h+	c #A6D6FB",
"i+	c #A4D5FC",
"j+	c #9ED3FB",
"k+	c #96CEFA",
"l+	c #8BCAFA",
"m+	c #7DC3FA",
"n+	c #6EBDF9",
"o+	c #60B6F8",
"p+	c #37678C",
"q+	c #181918",
"r+	c #171718",
"s+	c #0E0E0E",
"t+	c #0B0A0A",
"u+	c #1B1A1A",
"v+	c #838383",
"w+	c #A1A2A2",
"x+	c #45484B",
"y+	c #7EB0D7",
"z+	c #8FCBFA",
"A+	c #91CCFA",
"B+	c #90CBFA",
"C+	c #84C6FA",
"D+	c #6EBCF9",
"E+	c #61B6F9",
"F+	c #4A93CD",
"G+	c #0F1417",
"H+	c #161617",
"I+	c #161616",
"J+	c #101010",
"K+	c #060606",
"L+	c #131314",
"M+	c #737373",
"N+	c #757675",
"O+	c #6F6F6F",
"P+	c #7C7C7C",
"Q+	c #565656",
"R+	c #313C43",
"S+	c #689DC6",
"T+	c #7EC4FA",
"U+	c #7AC1F9",
"V+	c #74BEF9",
"W+	c #6BBAF9",
"X+	c #60B5F9",
"Y+	c #478CC2",
"Z+	c #273540",
"`+	c #2D2D2D",
" @	c #444544",
".@	c #666666",
"+@	c #080808",
"@@	c #302F2F",
"#@	c #5D5D5D",
"$@	c #090909",
"%@	c #686868",
"&@	c #818181",
"*@	c #354048",
"=@	c #647D90",
"-@	c #6BB8F5",
";@	c #68B9F9",
">@	c #63B7F9",
",@	c #5AAFF1",
"'@	c #365065",
")@	c #1C2A35",
"!@	c #7E7E7F",
"~@	c #0D0D0E",
"{@	c #727272",
"]@	c #858585",
"^@	c #8F8F8F",
"/@	c #181818",
"(@	c #272D32",
"_@	c #242A2F",
":@	c #2A3035",
"<@	c #0A0A0A",
"[@	c #070707",
"}@	c #696869",
"|@	c #4C4C4C",
"1@	c #616161",
"2@	c #6D6D6D",
"3@	c #B9B9BA",
"4@	c #B9B9B9",
"5@	c #141415",
"6@	c #050505",
"7@	c #797979",
"8@	c #7E7E7E",
"9@	c #636363",
"                                                                ",
"                            . .   . .   . .   . .     .         ",
"                            + @   + #   + $   + % &   + *       ",
"                            = $   - ; > , ' ) ! ~ { ] ^ /       ",
"                          ( _ : < [ } | 1 2 3 4 5 6 7 8 <       ",
"                    9 0 a b c d e f g h i j k l m n o p q r s t ",
"                        u | v e w x y z A B n C D E F G H I { / ",
"                          J K L M l N N O P E Q H R S T U V >   ",
"                    9 : W X Y Z ` V  .S ..Q +.S @.#.$.%.&.% s *.",
"                    _ k $.=.-.;.>.,.'.* I ).@.!.~.{.u ].^.@./.S ",
"                    g (._.:.<.[.}.|.1.2.3.4.5.6.7.8.9. .0.a.b.  ",
"                  c.d.e.f.g.h.i.j.k.l.m.n.o.p.8.q.r.s.I t._ s + ",
"                  l u.v.w.x.y.z.A.B.C.D.E.F.G.s.H.p.I.` / k / J.",
"                  C K.L.M.N.O.z.P.Q.R.D.S.T.U.V V.W./.X.* & &   ",
"                  Y.Z.`. +.+++@+#+$+%+&+*+=+-+;+V >+* ) ,+< i '+",
"                  Y.)+!+A.~+{+#+Q.]+^+/+(+_+b.G.:+) <+[+X.}+u |+",
"                  1+2+3+4+5+}.6+|.7+&+8+9+0+b.<+;+{ a+b+c+& &   ",
"                  d+e+f+g+h+i+j+k+l+m+n+o+p+-+q+r+a+s+t+u+v+k w+",
"                  +.x+y+z+A+B+m.C+8+D+E+F+G+H+* I+J+b.K+L+M+Y.N+",
"                O+P+Q+R+S+T+m+U+V+W+X+Y+Z+`+s+ @.@+@@@#@$@& & & ",
"              %@&@6 p.-+*@=@-@;@>@,@'@)@s.Q & n c.& #.!@~@      ",
"            {@]@^@` $@/@F o (@_@:@(@` 5.K k & x K & s w <@      ",
"          w P+| 4.[@X.      }@|@5.1@2@    %     3@    4@5@      ",
"        x X ^@V 6@a+                                            ",
"      x 7@2 Y K+*                                               ",
"    }+P+1 /.[@V                                                 ",
"  N 8@^@V +@I.                                                  ",
"9@s 2 Z +@Z                                                     ",
"  %.J+[@p.                                                      ",
"    / V                                                         ",
"                                                                ",
"                                                                "};
