/* XPM */
static char * subdevice_locked_irq_xpm[] = {
"32 32 233 2",
"  	c None",
". 	c #B2B2B2",
"+ 	c #E5E5E5",
"@ 	c #D7D7D7",
"# 	c #B8B8B8",
"$ 	c #808080",
"% 	c #404040",
"& 	c #C4C4C4",
"* 	c #E3E3E3",
"= 	c #C1C1C1",
"- 	c #B4B4B4",
"; 	c #C8C8C8",
"> 	c #E2E2E2",
", 	c #DBDBDB",
"' 	c #777777",
") 	c #B3B3B3",
"! 	c #EDEDED",
"~ 	c #CACACA",
"{ 	c #575757",
"] 	c #8B8B8B",
"^ 	c #F0F0F0",
"/ 	c #EEEEEE",
"( 	c #4C4C4C",
"_ 	c #BDBDBD",
": 	c #636363",
"< 	c #BFBFBF",
"[ 	c #EFEFEF",
"} 	c #868686",
"| 	c #8C8C8C",
"1 	c #7F7F7F",
"2 	c #C58181",
"3 	c #D3A3A3",
"4 	c #A47070",
"5 	c #A34545",
"6 	c #E07F7F",
"7 	c #DFA9A9",
"8 	c #AF7979",
"9 	c #A54A4A",
"0 	c #E58989",
"a 	c #FC8686",
"b 	c #FF6F6F",
"c 	c #FF6464",
"d 	c #FF6262",
"e 	c #FB6262",
"f 	c #E37575",
"g 	c #FD7878",
"h 	c #FF1919",
"i 	c #FF0000",
"j 	c #AE1010",
"k 	c #FF7070",
"l 	c #A20000",
"m 	c #BBBBBB",
"n 	c #CA0000",
"o 	c #620000",
"p 	c #CCCCCC",
"q 	c #444444",
"r 	c #000000",
"s 	c #888888",
"t 	c #8C6565",
"u 	c #919191",
"v 	c #AAAAAA",
"w 	c #909191",
"x 	c #999999",
"y 	c #6E0000",
"z 	c #5F4141",
"A 	c #5E5E5E",
"B 	c #5B5A5A",
"C 	c #535454",
"D 	c #515151",
"E 	c #4F4F4E",
"F 	c #4D4D4C",
"G 	c #4C4B4B",
"H 	c #4B4A4A",
"I 	c #454545",
"J 	c #ACACAC",
"K 	c #555555",
"L 	c #CECECE",
"M 	c #A40303",
"N 	c #130303",
"O 	c #2C0000",
"P 	c #5C3E3E",
"Q 	c #595A59",
"R 	c #565656",
"S 	c #525252",
"T 	c #494949",
"U 	c #474747",
"V 	c #464646",
"W 	c #454445",
"X 	c #393939",
"Y 	c #1C1C1C",
"Z 	c #600000",
"` 	c #0A0000",
" .	c #460000",
"..	c #E40000",
"+.	c #593B3B",
"@.	c #545454",
"#.	c #505150",
"$.	c #454645",
"%.	c #434343",
"&.	c #414141",
"*.	c #3F3F3F",
"=.	c #3E3E3E",
"-.	c #3D3E3E",
";.	c #383838",
">.	c #333333",
",.	c #AA0000",
"'.	c #250000",
").	c #0D0000",
"!.	c #6F0000",
"~.	c #563838",
"{.	c #505050",
"].	c #484848",
"^.	c #444544",
"/.	c #414040",
"(.	c #3B3B3B",
"_.	c #3A3A3A",
":.	c #373838",
"<.	c #A8A8A8",
"[.	c #7B0000",
"}.	c #520000",
"|.	c #700000",
"1.	c #C80000",
"2.	c #A50404",
"3.	c #634646",
"4.	c #7A7A7A",
"5.	c #535353",
"6.	c #616161",
"7.	c #656565",
"8.	c #585758",
"9.	c #434243",
"0.	c #3D3D3D",
"a.	c #313131",
"b.	c #FC6B6B",
"c.	c #F00000",
"d.	c #E60000",
"e.	c #8B0606",
"f.	c #5B4646",
"g.	c #4F4F4F",
"h.	c #949595",
"i.	c #909090",
"j.	c #5B5B5B",
"k.	c #5A5A5A",
"l.	c #2B2B2C",
"m.	c #6E6E6E",
"n.	c #E27272",
"o.	c #A51010",
"p.	c #840000",
"q.	c #840303",
"r.	c #522929",
"s.	c #585454",
"t.	c #C7C7C7",
"u.	c #4B4C4B",
"v.	c #858585",
"w.	c #DCDCDC",
"x.	c #7E7E7E",
"y.	c #565556",
"z.	c #898989",
"A.	c #242424",
"B.	c #6D6D6D",
"C.	c #828282",
"D.	c #7B4444",
"E.	c #684D4D",
"F.	c #4D4949",
"G.	c #565555",
"H.	c #727172",
"I.	c #484849",
"J.	c #383938",
"K.	c #9A9B9B",
"L.	c #1F1F1F",
"M.	c #DDDDDD",
"N.	c #4A4A4A",
"O.	c #2E2E2D",
"P.	c #282828",
"Q.	c #1C1C1B",
"R.	c #191918",
"S.	c #181818",
"T.	c #A2A1A1",
"U.	c #BFBEBE",
"V.	c #717171",
"W.	c #6C6C6C",
"X.	c #494848",
"Y.	c #3D3C3C",
"Z.	c #373737",
"`.	c #303030",
" +	c #2B2B2B",
".+	c #252525",
"++	c #202020",
"@+	c #1B1B1B",
"#+	c #171717",
"$+	c #141414",
"%+	c #121213",
"&+	c #363636",
"*+	c #CBCBCB",
"=+	c #6B6B6B",
"-+	c #3A3B3A",
";+	c #353535",
">+	c #2E2E2E",
",+	c #292929",
"'+	c #222222",
")+	c #1D1D1D",
"!+	c #161617",
"~+	c #121212",
"{+	c #0D0D0E",
"]+	c #0C0B0B",
"^+	c #6D6E6E",
"/+	c #343434",
"(+	c #2D2D2D",
"_+	c #282827",
":+	c #141415",
"<+	c #0F0F0F",
"[+	c #090909",
"}+	c #060506",
"|+	c #9E9E9E",
"1+	c #B8B9B9",
"2+	c #403F40",
"3+	c #848384",
"4+	c #5C5C5C",
"5+	c #2B2B2A",
"6+	c #696969",
"7+	c #343334",
"8+	c #161616",
"9+	c #3C3C3C",
"0+	c #373738",
"a+	c #434242",
"b+	c #878787",
"c+	c #2C2D2D",
"d+	c #585858",
"e+	c #787778",
"f+	c #767676",
"g+	c #272727",
"h+	c #747474",
"i+	c #727272",
"j+	c #707071",
"                                                                ",
"          . + @ # $ %                                           ",
"        & * = - ; > , '                                         ",
"      ) ! ~ {     ] ^ / (                                       ",
"      + _ :         < [ }                                       ",
"      + |             * }                                       ",
"      + 1             + }                                       ",
"      + 1             + }                                       ",
"    2 3 4 5         6 7 8 9                                     ",
"  0 a b c c d d d d d d d e f                                   ",
"  g h i i i i i i i i i i i j                                   ",
"  k i i i i i i i i i i i i l   m     m   m m   m               ",
"  k i i i i n o o n i i i i l   p q   p r p s   p q             ",
"  k i i i i o r r o i i i i l t ~ u # ; $ < v w ; x             ",
"  k i i i i y r r o i i i i l z A B { C D E F G H I J K L       ",
"  k i i i i M N O n i i i i l P Q R S E ( T U V W W X Y q       ",
"  k i i i i Z `  ...i i i i l +.@.#.( T $.%.&.*.=.-.;.>.        ",
"  k i i i i ,.'.).!.i i i i l ~.{.( ].^./.=.(._.;.:.<.K ;       ",
"  k i i i i [.}.|.1.i i i i 2.3.4.5.6.7.8.9.8.R 0.a.r r         ",
"  b.i i i i ..c.i i i i i d.e.f.; g.s h.v i.j.k.] l.m.T         ",
"  n.o.p.p.p.p.p.p.p.p.p.p.q.r.s.t.u.v.w.x.i.R y.z.A.B.;.C.      ",
"                        D.E.F.G.H.I.R K T J.K., 6.L.r r         ",
"                    M.v * B.N.^.=.X >.O.P.A.L.Q.R.S.T.K U.      ",
"                      T V.W.X.%.Y.Z.`. +.+++@+#+$+%+&+Y *.      ",
"                        *+=+U &.-+;+>+,+'+)+!+~+{+]+;+>.        ",
"                    M.v + ^+V /._./+(+_+++@+:+<+[+}+|+K 1+      ",
"                        2+3+4+5+6+J.7+j.8+9+0+[+a+8+r r         ",
"                          z.j.r b+(+c+v.r d+d+r C. +            ",
"                          e+g.  f+g+  h+r i+(   j+.+            ",
"                                                                ",
"                                                                ",
"                                                                "};
