/* XPM */
static char * subdevice_di_xpm[] = {
"32 32 287 2",
"  	c None",
". 	c #FFFFFF",
"+ 	c #999999",
"@ 	c #B2B2B2",
"# 	c #000000",
"$ 	c #E2E2E2",
"% 	c #BEBEBE",
"& 	c #B3B3B3",
"* 	c #B1B1B1",
"= 	c #B0B0B0",
"- 	c #AFAFAF",
"; 	c #AEAEAE",
"> 	c #ADADAD",
", 	c #ACACAC",
"' 	c #ABABAB",
") 	c #AAAAAA",
"! 	c #A9A9A9",
"~ 	c #A8A9A9",
"{ 	c #A8A8A8",
"] 	c #B4B5B4",
"^ 	c #BFBFBF",
"/ 	c #6A6A6A",
"( 	c #686868",
"_ 	c #656565",
": 	c #636262",
"< 	c #605F60",
"[ 	c #5E5D5D",
"} 	c #5B5A5B",
"| 	c #595959",
"1 	c #565657",
"2 	c #545554",
"3 	c #525353",
"4 	c #515151",
"5 	c #50504F",
"6 	c #4F4F4E",
"7 	c #4E4D4D",
"8 	c #4D4C4D",
"9 	c #4C4C4B",
"0 	c #4C4B4C",
"a 	c #3D3D3D",
"b 	c #CFCFCF",
"c 	c #666666",
"d 	c #4C4C4C",
"e 	c #CECECF",
"f 	c #626162",
"g 	c #5F5F5F",
"h 	c #5C5D5D",
"i 	c #5A5A5A",
"j 	c #575757",
"k 	c #555555",
"l 	c #525252",
"m 	c #505150",
"n 	c #4F4F4F",
"o 	c #4D4D4D",
"p 	c #4B4B4B",
"q 	c #4B4A4A",
"r 	c #494949",
"s 	c #484948",
"t 	c #484748",
"u 	c #484847",
"v 	c #484747",
"w 	c #CDCDCD",
"x 	c #626262",
"y 	c #5C5C5C",
"z 	c #565756",
"A 	c #545454",
"B 	c #515251",
"C 	c #504F4F",
"D 	c #4D4D4C",
"E 	c #464746",
"F 	c #454545",
"G 	c #444444",
"H 	c #444344",
"I 	c #434344",
"J 	c #434343",
"K 	c #5F5F60",
"L 	c #565656",
"M 	c #535353",
"N 	c #515150",
"O 	c #4E4E4E",
"P 	c #4B4C4B",
"Q 	c #4A4949",
"R 	c #474847",
"S 	c #424243",
"T 	c #424141",
"U 	c #404040",
"V 	c #3F403F",
"W 	c #3F3F3F",
"X 	c #606060",
"Y 	c #5D5D5C",
"Z 	c #595A59",
"` 	c #505050",
" .	c #4D4E4E",
"..	c #4B4B4A",
"+.	c #484849",
"@.	c #454646",
"#.	c #444343",
"$.	c #414242",
"%.	c #3E3F3E",
"&.	c #3C3C3C",
"*.	c #3B3C3C",
"=.	c #3B3B3B",
"-.	c #3A3B3B",
";.	c #C9C9CA",
">.	c #C9C9C9",
",.	c #5D5D5D",
"'.	c #5A5A59",
").	c #575657",
"!.	c #4D4E4D",
"~.	c #4A4A4A",
"{.	c #484848",
"].	c #434342",
"^.	c #3E3E3E",
"/.	c #3B3A3A",
"(.	c #393939",
"_.	c #383838",
":.	c #373737",
"<.	c #363636",
"[.	c #363637",
"}.	c #C9C8C8",
"|.	c #C8C8C8",
"1.	c #5B5B5A",
"2.	c #585858",
"3.	c #535454",
"4.	c #444545",
"5.	c #424241",
"6.	c #3D3C3C",
"7.	c #3A3A3B",
"8.	c #393838",
"9.	c #373637",
"0.	c #353535",
"a.	c #333434",
"b.	c #333333",
"c.	c #323232",
"d.	c #333232",
"e.	c #595858",
"f.	c #525251",
"g.	c #6D6E6D",
"h.	c #818080",
"i.	c #A7A7A7",
"j.	c #888787",
"k.	c #787878",
"l.	c #767676",
"m.	c #303030",
"n.	c #2F2F2F",
"o.	c #2E2E2F",
"p.	c #575756",
"q.	c #525352",
"r.	c #454445",
"s.	c #464646",
"t.	c #F4F4F4",
"u.	c #363635",
"v.	c #2D2D2D",
"w.	c #2C2B2C",
"x.	c #2B2A2B",
"y.	c #2A2A2A",
"z.	c #C5C5C5",
"A.	c #C4C4C4",
"B.	c #545555",
"C.	c #424343",
"D.	c #3B3C3B",
"E.	c #EEEEEE",
"F.	c #333332",
"G.	c #2B2C2B",
"H.	c #292929",
"I.	c #282728",
"J.	c #272727",
"K.	c #262626",
"L.	c #252525",
"M.	c #C3C3C3",
"N.	c #4E4F4F",
"O.	c #474747",
"P.	c #676767",
"Q.	c #7B7B7B",
"R.	c #A3A3A3",
"S.	c #777878",
"T.	c #727171",
"U.	c #6E6E6E",
"V.	c #404141",
"W.	c #242424",
"X.	c #232222",
"Y.	c #222222",
"Z.	c #424142",
"`.	c #373736",
" +	c #333334",
".+	c #2D2D2C",
"++	c #2A2A29",
"@+	c #202020",
"#+	c #1E1F1F",
"$+	c #1D1E1E",
"%+	c #1E1D1D",
"&+	c #474848",
"*+	c #444443",
"=+	c #40403F",
"-+	c #353435",
";+	c #313130",
">+	c #2A292A",
",+	c #262726",
"'+	c #212121",
")+	c #1F1E1E",
"!+	c #1C1C1C",
"~+	c #1A1B1A",
"{+	c #1A1919",
"]+	c #19191A",
"^+	c #C0BFBF",
"/+	c #BFBEBF",
"(+	c #3F3F3E",
"_+	c #3A3A3A",
":+	c #363737",
"<+	c #323332",
"[+	c #2E2F2F",
"}+	c #2C2B2B",
"|+	c #282827",
"1+	c #252424",
"2+	c #1A1B1B",
"3+	c #181918",
"4+	c #171716",
"5+	c #151615",
"6+	c #141515",
"7+	c #BEBEBD",
"8+	c #4E4E4D",
"9+	c #464545",
"0+	c #414141",
"a+	c #3E3D3D",
"b+	c #313131",
"c+	c #222221",
"d+	c #1E1E1E",
"e+	c #1B1B1B",
"f+	c #181818",
"g+	c #151515",
"h+	c #131313",
"i+	c #111112",
"j+	c #111111",
"k+	c #A9A8A8",
"l+	c #4D4C4C",
"m+	c #494849",
"n+	c #454544",
"o+	c #302F30",
"p+	c #2C2C2C",
"q+	c #232424",
"r+	c #1C1D1C",
"s+	c #181819",
"t+	c #121211",
"u+	c #0F0F10",
"v+	c #0D0D0E",
"w+	c #0D0C0C",
"x+	c #4B4C4C",
"y+	c #383737",
"z+	c #2B2B2A",
"A+	c #272726",
"B+	c #232322",
"C+	c #1E1F1E",
"D+	c #161617",
"E+	c #131213",
"F+	c #0F0F0F",
"G+	c #0C0C0B",
"H+	c #0A0909",
"I+	c #080808",
"J+	c #BBBBBB",
"K+	c #B9BABA",
"L+	c #B5B5B5",
"M+	c #2E2F2E",
"N+	c #1D1D1E",
"O+	c #191919",
"P+	c #151616",
"Q+	c #090909",
"R+	c #060506",
"S+	c #030303",
"T+	c #B9B9BA",
"U+	c #B8B9B8",
"V+	c #363736",
"W+	c #262526",
"X+	c #1D1E1D",
"Y+	c #111011",
"Z+	c #0C0C0C",
"`+	c #090808",
" @	c #CDCDCE",
".@	c #CACACA",
"+@	c #C8C9C8",
"@@	c #C4C5C5",
"#@	c #C3C4C3",
"$@	c #C0C0C0",
"%@	c #BEBEBF",
"&@	c #CFCECF",
"*@	c #BDBEBE",
"=@	c #BABABA",
"-@	c #B8B8B9",
"                                                                ",
"                                                                ",
"              . .     . .     . .     . .     . .               ",
"              + +     + +     + +     + +     + +               ",
"              @ @ #   @ @ #   @ @ #   @ @ #   @ @ #             ",
"              . . #   . . #   . . #   . . #   . . #             ",
"            $ % & @ * = - ; > , , ' ) ) ) ! ~ { ] ^             ",
"    . + @ . % / ( _ : < [ } | 1 2 3 4 5 6 7 8 9 0 a b c d e     ",
"    . + @ . & ( _ f g h i j k l m n o p q r s t u v w c d w     ",
"        # # @ _ x g y | z A B C D p r t E F G H I J # # # #     ",
"            * x K y | L M N O P Q R F G S T U V W W # #         ",
"    . + @ . = X Y Z L M `  ...+.@.#.$.U %.a &.*.=.-.;.c d >.    ",
"    . + @ . - ,.'.).M ` !.~.{.F ].U ^.&./.(._.:.<.[.}.c d |.    ",
"        # # ; 1.2.3.4 O ~.v 4.5.W 6.7.8.9.0.a.b.c.d.# # # #     ",
"            > e.k f.O ..g.. h.i.j.4 k.. l.~.m.n.n.o.# #         ",
"    . + @ . , p.q.n d {.r.. ^.s.t.u.b.. n.v.w.x.y.y.z.c d A.    ",
"    . + @ . , B.` o ~.s.C.. D.s.E.F.m.. G.H.I.J.K.L.M.c d M.    ",
"        # # ' M N.p O.G P.. Q.R.S.r T.. U.V.W.X.Y.Y.# # # #     ",
"            ) 4 7 r F Z.^.7.`. +m..+++J.W.Y.@+#+$+%+# #         ",
"    . + @ . ) C 0 &+*+=+&.8.-+;+v.>+,+W.'+)+!+~+{+]+^+c d /+    ",
"    . + @ . ! O q s.S (+_+:+<+[+}+|+1+'+$+2+3+4+5+6+% c d 7+    ",
"        # # ! 8+Q 9+0+a+(.0.b+v.H.K.c+d+e+f+g+h+i+j+# # # #     ",
"            k+l+m+n+U &._.a.o+p+I.q+@+r+s+g+t+u+v+w+# #         ",
"    . + @ . k+x+O.G W D.y+b.n.z+A+B+C+~+D+E+F+G+H+I+J+c d K+    ",
"    . + @ . L+x+O.#.W =.9.b.M+y.K.'+N+O+P+j+v+Q+R+S+T+c d U+    ",
"        # # /+a O.J (+/.V+c.o.>+W+Y.X+O+g+Y+Z+`+S+# # # # #     ",
"              b  @# # .@+@# # @@#@# # $@%@# # J+T+# #           ",
"              c c # # c c # # c c # # c c # # c c #             ",
"              d d #   d d #   d d #   d d #   d d #             ",
"              &@w #   ;.|.#   A.M.#   /+*@#   =@-@#             ",
"                                                                ",
"                                                                "};
