/* XPM */
static char * subdevice_dio_xpm[] = {
"32 32 295 2",
"  	c None",
". 	c #FFFFFF",
"+ 	c #999999",
"@ 	c #B2B2B2",
"# 	c #000000",
"$ 	c #E2E2E2",
"% 	c #BEBEBE",
"& 	c #B3B3B3",
"* 	c #B1B1B1",
"= 	c #B0B0B0",
"- 	c #AFAFAF",
"; 	c #AEAEAE",
"> 	c #ADADAD",
", 	c #ACACAC",
"' 	c #ABABAB",
") 	c #AAAAAA",
"! 	c #A9A9A9",
"~ 	c #A8A9A9",
"{ 	c #A8A8A8",
"] 	c #B4B5B4",
"^ 	c #BFBFBF",
"/ 	c #6A6A6A",
"( 	c #686868",
"_ 	c #656565",
": 	c #636262",
"< 	c #605F60",
"[ 	c #5E5D5D",
"} 	c #5B5A5B",
"| 	c #595959",
"1 	c #565657",
"2 	c #545554",
"3 	c #525353",
"4 	c #515151",
"5 	c #50504F",
"6 	c #4F4F4E",
"7 	c #4E4D4D",
"8 	c #4D4C4D",
"9 	c #4C4C4B",
"0 	c #4C4B4C",
"a 	c #3D3D3D",
"b 	c #CFCFCF",
"c 	c #666666",
"d 	c #4C4C4C",
"e 	c #CECECF",
"f 	c #626162",
"g 	c #5F5F5F",
"h 	c #5C5D5D",
"i 	c #5A5A5A",
"j 	c #575757",
"k 	c #555555",
"l 	c #525252",
"m 	c #505150",
"n 	c #4F4F4F",
"o 	c #4D4D4D",
"p 	c #4B4B4B",
"q 	c #4B4A4A",
"r 	c #494949",
"s 	c #484948",
"t 	c #484748",
"u 	c #484847",
"v 	c #484747",
"w 	c #CDCDCD",
"x 	c #626262",
"y 	c #5C5C5C",
"z 	c #565756",
"A 	c #545454",
"B 	c #515251",
"C 	c #504F4F",
"D 	c #4D4D4C",
"E 	c #464746",
"F 	c #454545",
"G 	c #444444",
"H 	c #444344",
"I 	c #434344",
"J 	c #434343",
"K 	c #5F5F60",
"L 	c #565656",
"M 	c #535353",
"N 	c #515150",
"O 	c #4E4E4E",
"P 	c #4B4C4B",
"Q 	c #4A4949",
"R 	c #474847",
"S 	c #424243",
"T 	c #424141",
"U 	c #404040",
"V 	c #3F403F",
"W 	c #3F3F3F",
"X 	c #606060",
"Y 	c #5D5D5C",
"Z 	c #595A59",
"` 	c #505050",
" .	c #4D4E4E",
"..	c #4B4B4A",
"+.	c #484849",
"@.	c #454646",
"#.	c #444343",
"$.	c #414242",
"%.	c #3E3F3E",
"&.	c #3C3C3C",
"*.	c #3B3C3C",
"=.	c #3B3B3B",
"-.	c #3A3B3B",
";.	c #C9C9CA",
">.	c #C9C9C9",
",.	c #5D5D5D",
"'.	c #5A5A59",
").	c #575657",
"!.	c #4D4E4D",
"~.	c #4A4A4A",
"{.	c #484848",
"].	c #434342",
"^.	c #3E3E3E",
"/.	c #3B3A3A",
"(.	c #393939",
"_.	c #383838",
":.	c #373737",
"<.	c #363636",
"[.	c #363637",
"}.	c #C9C8C8",
"|.	c #C8C8C8",
"1.	c #5B5B5A",
"2.	c #585858",
"3.	c #535454",
"4.	c #444545",
"5.	c #424241",
"6.	c #3D3C3C",
"7.	c #3A3A3B",
"8.	c #393838",
"9.	c #373637",
"0.	c #353535",
"a.	c #333434",
"b.	c #333333",
"c.	c #323232",
"d.	c #333232",
"e.	c #595858",
"f.	c #757575",
"g.	c #878786",
"h.	c #8D8D8D",
"i.	c #7E7D7D",
"j.	c #7A7A7A",
"k.	c #686768",
"l.	c #7B7B7B",
"m.	c #636363",
"n.	c #2F2F2F",
"o.	c #2E2E2F",
"p.	c #575756",
"q.	c #525352",
"r.	c #F5F5F5",
"s.	c #363635",
"t.	c #EAEAEA",
"u.	c #424242",
"v.	c #2D2D2D",
"w.	c #414041",
"x.	c #E9E9E9",
"y.	c #2A2A2A",
"z.	c #C5C5C5",
"A.	c #C4C4C4",
"B.	c #545555",
"C.	c #464646",
"D.	c #4F5050",
"E.	c #EFEFEF",
"F.	c #3B3C3B",
"G.	c #393839",
"H.	c #333332",
"I.	c #303030",
"J.	c #EBEBEB",
"K.	c #292929",
"L.	c #3D3C3D",
"M.	c #E8E8E8",
"N.	c #262626",
"O.	c #252525",
"P.	c #C3C3C3",
"Q.	c #4E4F4F",
"R.	c #707070",
"S.	c #828282",
"T.	c #7E7F7E",
"U.	c #777878",
"V.	c #737373",
"W.	c #474646",
"X.	c #606161",
"Y.	c #A6A7A7",
"Z.	c #737474",
"`.	c #A4A4A4",
" +	c #5A5959",
".+	c #222222",
"++	c #424142",
"@+	c #373736",
"#+	c #333334",
"$+	c #2D2D2C",
"%+	c #2A2A29",
"&+	c #272727",
"*+	c #242424",
"=+	c #202020",
"-+	c #1E1F1F",
";+	c #1D1E1E",
">+	c #1E1D1D",
",+	c #474848",
"'+	c #444443",
")+	c #40403F",
"!+	c #353435",
"~+	c #313130",
"{+	c #2A292A",
"]+	c #262726",
"^+	c #212121",
"/+	c #1F1E1E",
"(+	c #1C1C1C",
"_+	c #1A1B1A",
":+	c #1A1919",
"<+	c #19191A",
"[+	c #C0BFBF",
"}+	c #BFBEBF",
"|+	c #3F3F3E",
"1+	c #3A3A3A",
"2+	c #363737",
"3+	c #323332",
"4+	c #2E2F2F",
"5+	c #2C2B2B",
"6+	c #282827",
"7+	c #252424",
"8+	c #1A1B1B",
"9+	c #181918",
"0+	c #171716",
"a+	c #151615",
"b+	c #141515",
"c+	c #BEBEBD",
"d+	c #4E4E4D",
"e+	c #464545",
"f+	c #414141",
"g+	c #3E3D3D",
"h+	c #313131",
"i+	c #222221",
"j+	c #1E1E1E",
"k+	c #1B1B1B",
"l+	c #181818",
"m+	c #151515",
"n+	c #131313",
"o+	c #111112",
"p+	c #111111",
"q+	c #A9A8A8",
"r+	c #4D4C4C",
"s+	c #494849",
"t+	c #454544",
"u+	c #302F30",
"v+	c #2C2C2C",
"w+	c #282728",
"x+	c #232424",
"y+	c #1C1D1C",
"z+	c #181819",
"A+	c #121211",
"B+	c #0F0F10",
"C+	c #0D0D0E",
"D+	c #0D0C0C",
"E+	c #4B4C4C",
"F+	c #474747",
"G+	c #383737",
"H+	c #2B2B2A",
"I+	c #272726",
"J+	c #232322",
"K+	c #1E1F1E",
"L+	c #161617",
"M+	c #131213",
"N+	c #0F0F0F",
"O+	c #0C0C0B",
"P+	c #0A0909",
"Q+	c #080808",
"R+	c #BBBBBB",
"S+	c #B9BABA",
"T+	c #B5B5B5",
"U+	c #2E2F2E",
"V+	c #1D1D1E",
"W+	c #191919",
"X+	c #151616",
"Y+	c #090909",
"Z+	c #060506",
"`+	c #030303",
" @	c #B9B9BA",
".@	c #B8B9B8",
"+@	c #363736",
"@@	c #262526",
"#@	c #1D1E1D",
"$@	c #111011",
"%@	c #0C0C0C",
"&@	c #090808",
"*@	c #CDCDCE",
"=@	c #CACACA",
"-@	c #C8C9C8",
";@	c #C4C5C5",
">@	c #C3C4C3",
",@	c #C0C0C0",
"'@	c #BEBEBF",
")@	c #CFCECF",
"!@	c #BDBEBE",
"~@	c #BABABA",
"{@	c #B8B8B9",
"                                                                ",
"                                                                ",
"              . .     . .     . .     . .     . .               ",
"              + +     + +     + +     + +     + +               ",
"              @ @ #   @ @ #   @ @ #   @ @ #   @ @ #             ",
"              . . #   . . #   . . #   . . #   . . #             ",
"            $ % & @ * = - ; > , , ' ) ) ) ! ~ { ] ^             ",
"    . + @ . % / ( _ : < [ } | 1 2 3 4 5 6 7 8 9 0 a b c d e     ",
"    . + @ . & ( _ f g h i j k l m n o p q r s t u v w c d w     ",
"        # # @ _ x g y | z A B C D p r t E F G H I J # # # #     ",
"            * x K y | L M N O P Q R F G S T U V W W # #         ",
"    . + @ . = X Y Z L M `  ...+.@.#.$.U %.a &.*.=.-.;.c d >.    ",
"    . + @ . - ,.'.).M ` !.~.{.F ].U ^.&./.(._.:.<.[.}.c d |.    ",
"        # # ; 1.2.3.4 O ~.v 4.5.W 6.7.8.9.0.a.b.c.d.# # # #     ",
"            > e.k f.. g.' h.e.i.. j.C k.) l.! m.n.o.# #         ",
"    . + @ . , p.q.n . {.n r.^.=.. s.b.t.u.v.w.x.y.y.z.c d A.    ",
"    . + @ . , B.` o . C.D.E.F.G.. H.I.J.V K.L.M.N.O.P.c d P.    ",
"        # # ' M Q.R.. S.{ T.4 U.. V.W.X.Y.Z.`. +.+.+# # # #     ",
"            ) 4 7 r F ++^.7.@+#+I.$+%+&+*+.+=+-+;+>+# #         ",
"    . + @ . ) C 0 ,+'+)+&.8.!+~+v.{+]+*+^+/+(+_+:+<+[+c d }+    ",
"    . + @ . ! O q C.S |+1+2+3+4+5+6+7+^+;+8+9+0+a+b+% c d c+    ",
"        # # ! d+Q e+f+g+(.0.h+v.K.N.i+j+k+l+m+n+o+p+# # # #     ",
"            q+r+s+t+U &._.a.u+v+w+x+=+y+z+m+A+B+C+D+# #         ",
"    . + @ . q+E+F+G W F.G+b.n.H+I+J+K+_+L+M+N+O+P+Q+R+c d S+    ",
"    . + @ . T+E+F+#.W =.9.b.U+y.N.^+V+W+X+p+C+Y+Z+`+ @c d .@    ",
"        # # }+a F+J |+/.+@c.o.{+@@.+#@W+m+$@%@&@`+# # # # #     ",
"              b *@# # =@-@# # ;@>@# # ,@'@# # R+ @# #           ",
"              c c # # c c # # c c # # c c # # c c #             ",
"              d d #   d d #   d d #   d d #   d d #             ",
"              )@w #   ;.|.#   A.P.#   }+!@#   ~@{@#             ",
"                                                                ",
"                                                                "};
