/* XPM */
static char * subdevices_xpm[] = {
"32 32 213 2",
"  	c None",
". 	c #FFFFFF",
"+ 	c #999999",
"@ 	c #B2B2B2",
"# 	c #000000",
"$ 	c #E2E2E2",
"% 	c #BEBEBE",
"& 	c #B3B3B3",
"* 	c #B1B1B1",
"= 	c #B0B0B0",
"- 	c #AFAFAF",
"; 	c #AEAEAE",
"> 	c #ADADAD",
", 	c #ACACAC",
"' 	c #ABABAB",
") 	c #AAAAAA",
"! 	c #A9A9A9",
"~ 	c #A8A9A9",
"{ 	c #A8A8A8",
"] 	c #B4B5B4",
"^ 	c #BFBFBF",
"/ 	c #6A6A6A",
"( 	c #686868",
"_ 	c #656565",
": 	c #636262",
"< 	c #605F60",
"[ 	c #5E5D5D",
"} 	c #5B5A5B",
"| 	c #595959",
"1 	c #565657",
"2 	c #545554",
"3 	c #525353",
"4 	c #515151",
"5 	c #50504F",
"6 	c #4F4F4E",
"7 	c #4E4D4D",
"8 	c #4D4C4D",
"9 	c #4C4C4B",
"0 	c #4C4B4C",
"a 	c #3D3D3D",
"b 	c #CFCFCF",
"c 	c #666666",
"d 	c #4C4C4C",
"e 	c #CECECF",
"f 	c #626162",
"g 	c #5F5F5F",
"h 	c #5C5D5D",
"i 	c #5A5A5A",
"j 	c #575757",
"k 	c #545454",
"l 	c #505050",
"m 	c #4E4F4E",
"n 	c #4E4E4E",
"o 	c #494949",
"p 	c #494848",
"q 	c #484848",
"r 	c #474847",
"s 	c #464546",
"t 	c #464645",
"u 	c #474646",
"v 	c #CACACA",
"w 	c #636363",
"x 	c #4A4A4A",
"y 	c #626262",
"z 	c #5C5C5C",
"A 	c #565756",
"B 	c #535353",
"C 	c #3E3E3D",
"D 	c #444444",
"E 	c #383938",
"F 	c #3F3F3F",
"G 	c #363637",
"H 	c #5F5F60",
"I 	c #565656",
"J 	c #4E4E4D",
"K 	c #252525",
"L 	c #373737",
"M 	c #212122",
"N 	c #333232",
"O 	c #202020",
"P 	c #303030",
"Q 	c #606060",
"R 	c #5D5D5C",
"S 	c #595A59",
"T 	c #4A4B4B",
"U 	c #181818",
"V 	c #2F2E2E",
"W 	c #151515",
"X 	c #2A2A2A",
"Y 	c #141414",
"Z 	c #282929",
"` 	c #1A1A1A",
" .	c #8C8C8C",
"..	c #5D5D5D",
"+.	c #5A5A59",
"@.	c #575657",
"#.	c #4D4E4D",
"$.	c #464646",
"%.	c #121111",
"&.	c #101010",
"*.	c #232324",
"=.	c #171717",
"-.	c #838383",
";.	c #5B5B5A",
">.	c #585858",
",.	c #989898",
"'.	c #A4A4A4",
").	c #595858",
"!.	c #575756",
"~.	c #505150",
"{.	c #545555",
"].	c #7F7F7F",
"^.	c #6B6B6B",
"/.	c #333434",
"(.	c #4D4E4E",
"_.	c #2F2F2F",
":.	c #777777",
"<.	c #4D4C4C",
"[.	c #504F4F",
"}.	c #4A494A",
"|.	c #383838",
"1.	c #111111",
"2.	c #E5E5E5",
"3.	c #323232",
"4.	c #2B2A2A",
"5.	c #A9A8A8",
"6.	c #484748",
"7.	c #555555",
"8.	c #525252",
"9.	c #4F4F4F",
"0.	c #4D4D4D",
"a.	c #4B4B4B",
"b.	c #4B4C4C",
"c.	c #454545",
"d.	c #515251",
"e.	c #4D4D4C",
"f.	c #B5B5B5",
"g.	c #373636",
"h.	c #111011",
"i.	c #515150",
"j.	c #4B4C4B",
"k.	c #4A4949",
"l.	c #BFBEBF",
"m.	c #292828",
"n.	c #232423",
"o.	c #4B4B4A",
"p.	c #484849",
"q.	c #454646",
"r.	c #444343",
"s.	c #414242",
"t.	c #404040",
"u.	c #CACACB",
"v.	c #434342",
"w.	c #3E3E3E",
"x.	c #3C3C3C",
"y.	c #535454",
"z.	c #484747",
"A.	c #444545",
"B.	c #424241",
"C.	c #767575",
"D.	c #4C4C4D",
"E.	c #393838",
"F.	c #585857",
"G.	c #8F8F8F",
"H.	c #C5C5C4",
"I.	c #454444",
"J.	c #424141",
"K.	c #3F3E3E",
"L.	c #3D3C3C",
"M.	c #898989",
"N.	c #5E5E5E",
"O.	c #CFCECF",
"P.	c #8C8C8D",
"Q.	c #848484",
"R.	c #525352",
"S.	c #787878",
"T.	c #7A797A",
"U.	c #414241",
"V.	c #3B3B3B",
"W.	c #737474",
"X.	c #333333",
"Y.	c #313130",
"Z.	c #EBEBEB",
"`.	c #F0F0F0",
" +	c #484847",
".+	c #3B3C3B",
"++	c #3A393A",
"@+	c #888888",
"#+	c #333332",
"$+	c #2D2E2E",
"%+	c #4E4F4F",
"&+	c #A1A1A1",
"*+	c #969696",
"=+	c #AEAFAE",
"-+	c #393939",
";+	c #717171",
">+	c #2D2C2C",
",+	c #555656",
"'+	c #424142",
")+	c #3A3A3B",
"!+	c #373736",
"~+	c #828282",
"{+	c #2D2D2C",
"]+	c #2A2A29",
"^+	c #272727",
"/+	c #474848",
"(+	c #444443",
"_+	c #40403F",
":+	c #353435",
"<+	c #2D2D2D",
"[+	c #2A292A",
"}+	c #262726",
"|+	c #242424",
"          . .     . .     . .     . .     . .                   ",
"          + +     + +     + +     + +     + +                   ",
"          @ @ #   @ @ #   @ @ #   @ @ #   @ @ #                 ",
"          . . #   . . #   . . #   . . #   . . #                 ",
"        $ % & @ * = - ; > , , ' ) ) ) ! ~ { ] ^                 ",
". + @ . % / ( _ : < [ } | 1 2 3 4 5 6 7 8 9 0 a b c d e         ",
". + @ . & ( _ f g h i j k l m n d o p q r s t u v w x v         ",
"    # # @ _ y g z | A B . . C D . . E F . . G a . . # # . .     ",
"        * y H z | I B J + + K L + + M N + + O P + + #   + +     ",
". + @ . = Q R S I B l T @ @ U V @ @ W X @ @ Y Z @ @ `  .@ @ #   ",
". + @ . - ..+.@.B l #.$.. . Y X . . %.K . . &.*.. . =.-.. . #   ",
"    # # ; ;.>.3 ,.'.$.$ % & @ * = - ; > , , ' ) ) ) ! ~ { ] ^   ",
"        > ).k . + @ . % / ( _ : < [ } | 1 2 3 4 5 6 7 8 9 0 a b ",
". + @ . , !.~.. + @ . & ( _ f g h i j k l m n d o p q r s t u v ",
". + @ . , {.n ].^.q /.@ _ y g z | A B . . C D . . E F . . G a . ",
"    # # ' B (.! L _.:.* y H z | I B J + + K L + + M N + + O P + ",
"        ) 4 <.. + @ . = Q R S I B l T @ @ U V @ @ W X @ @ Y Z @ ",
". + @ . ) [.}.. + @ . - ..+.@.B l #.$.. . Y X . . %.K . . &.*.. ",
". + @ . ! n p |.M W 1.; ;.>.3 ,.'.$.2.% & @ * = - ; > , , ' ) ) ",
"    # # ! J p F 3.4.K > ).k . + @ . % / ( _ : < [ } | 1 2 3 4 5 ",
"        5.<.6.. + @ . , !.~.. + @ . & ( _ f g h i j 7.8.~.9.0.a.",
". + @ . 5.b.c.. + @ . , {.n ].^.q /.@ _ y g z | A k d.[.e.a.o 6.",
". + @ . f.b.c.g.O Y h.' B (.! L _.:.* y H z | I B i.n j.k.r c.D ",
"    # # l.a $.a P m.n.) 4 <.. + @ . = Q R S I B l (.o.p.q.r.s.t.",
"          b u.. + @ . ) [.}.. + @ . - ..+.@.B l #.x q c.v.t.w.x.",
"          c w . + @ . ! n p |.M W 1.; ;.>.y.4 n x z.A.B.F C.D.E.",
"          d x # # ` =.! J p F 3.4.K > ).7.F.G.H.m I.J.K.L.M.g.N.",
"          O.v #   P.Q.5.<.6.. + @ . , !.R.9.S.0.T.U.w.V.W.J X.Y.",
"              . + @ . 5.b.c.. + @ . , {.l 4 Z.. `. +.+++@+#+P $+",
"              . + @ . f.b.c.g.O Y h.' B %+&+*+D M.=+-+;+T _.>+,+",
"                  # # l.a $.a P m.n.) 4 7 o c.'+w.)+!+~+P {+]+^+",
"                        b u.. + @ . ) [.0 /+(+_+x.E.:+Y.<+[+}+|+"};
