/* XPM */
static char * subdevice_ad_xpm[] = {
"32 32 292 2",
"  	c None",
". 	c #FFFFFF",
"+ 	c #999999",
"@ 	c #B2B2B2",
"# 	c #000000",
"$ 	c #E2E2E2",
"% 	c #BEBEBE",
"& 	c #B3B3B3",
"* 	c #B1B1B1",
"= 	c #B0B0B0",
"- 	c #AFAFAF",
"; 	c #AEAEAE",
"> 	c #ADADAD",
", 	c #ACACAC",
"' 	c #ABABAB",
") 	c #AAAAAA",
"! 	c #A9A9A9",
"~ 	c #A8A9A9",
"{ 	c #A8A8A8",
"] 	c #B4B5B4",
"^ 	c #BFBFBF",
"/ 	c #6A6A6A",
"( 	c #686868",
"_ 	c #656565",
": 	c #636262",
"< 	c #605F60",
"[ 	c #5E5D5D",
"} 	c #5B5A5B",
"| 	c #595959",
"1 	c #565657",
"2 	c #545554",
"3 	c #525353",
"4 	c #515151",
"5 	c #50504F",
"6 	c #4F4F4E",
"7 	c #4E4D4D",
"8 	c #4D4C4D",
"9 	c #4C4C4B",
"0 	c #4C4B4C",
"a 	c #3D3D3D",
"b 	c #CFCFCF",
"c 	c #666666",
"d 	c #4C4C4C",
"e 	c #CECECF",
"f 	c #626162",
"g 	c #5F5F5F",
"h 	c #5C5D5D",
"i 	c #5A5A5A",
"j 	c #575757",
"k 	c #555555",
"l 	c #525252",
"m 	c #505150",
"n 	c #4F4F4F",
"o 	c #4D4D4D",
"p 	c #4B4B4B",
"q 	c #4B4A4A",
"r 	c #494949",
"s 	c #484948",
"t 	c #484748",
"u 	c #484847",
"v 	c #484747",
"w 	c #CDCDCD",
"x 	c #626262",
"y 	c #5C5C5C",
"z 	c #565756",
"A 	c #545454",
"B 	c #515251",
"C 	c #504F4F",
"D 	c #4D4D4C",
"E 	c #464746",
"F 	c #454545",
"G 	c #444444",
"H 	c #444344",
"I 	c #434344",
"J 	c #434343",
"K 	c #5F5F60",
"L 	c #565656",
"M 	c #535353",
"N 	c #515150",
"O 	c #4E4E4E",
"P 	c #4B4C4B",
"Q 	c #4A4949",
"R 	c #474847",
"S 	c #424243",
"T 	c #424141",
"U 	c #404040",
"V 	c #3F403F",
"W 	c #3F3F3F",
"X 	c #606060",
"Y 	c #5D5D5C",
"Z 	c #595A59",
"` 	c #505050",
" .	c #4D4E4E",
"..	c #4B4B4A",
"+.	c #484849",
"@.	c #454646",
"#.	c #444343",
"$.	c #414242",
"%.	c #3E3F3E",
"&.	c #3C3C3C",
"*.	c #3B3C3C",
"=.	c #3B3B3B",
"-.	c #3A3B3B",
";.	c #C9C9CA",
">.	c #C9C9C9",
",.	c #5D5D5D",
"'.	c #5A5A59",
").	c #575657",
"!.	c #4D4E4D",
"~.	c #4A4A4A",
"{.	c #484848",
"].	c #434342",
"^.	c #3E3E3E",
"/.	c #3B3A3A",
"(.	c #393939",
"_.	c #383838",
":.	c #373737",
"<.	c #363636",
"[.	c #363637",
"}.	c #C9C8C8",
"|.	c #C8C8C8",
"1.	c #5B5B5A",
"2.	c #585858",
"3.	c #535454",
"4.	c #444545",
"5.	c #424241",
"6.	c #3D3C3C",
"7.	c #3A3A3B",
"8.	c #393838",
"9.	c #373637",
"0.	c #353535",
"a.	c #333434",
"b.	c #333333",
"c.	c #323232",
"d.	c #333232",
"e.	c #595858",
"f.	c #525251",
"g.	c #8B8C8B",
"h.	c #C3C2C2",
"i.	c #3F3E3E",
"j.	c #545353",
"k.	c #7A7A7A",
"l.	c #777677",
"m.	c #313131",
"n.	c #303030",
"o.	c #2F2F2F",
"p.	c #2E2E2F",
"q.	c #575756",
"r.	c #525352",
"s.	c #737273",
"t.	c #757575",
"u.	c #383939",
"v.	c #363635",
"w.	c #313130",
"x.	c #2D2D2D",
"y.	c #2C2B2C",
"z.	c #2B2A2B",
"A.	c #2A2A2A",
"B.	c #C5C5C5",
"C.	c #C4C4C4",
"D.	c #545555",
"E.	c #EAEBEB",
"F.	c #F0F0F0",
"G.	c #434243",
"H.	c #333332",
"I.	c #2D2E2E",
"J.	c #2B2C2B",
"K.	c #292929",
"L.	c #282728",
"M.	c #272727",
"N.	c #262626",
"O.	c #252525",
"P.	c #C3C3C3",
"Q.	c #4E4F4F",
"R.	c #474747",
"S.	c #9E9E9E",
"T.	c #929292",
"U.	c #3C3D3C",
"V.	c #858585",
"W.	c #ABACAC",
"X.	c #4B4C4C",
"Y.	c #737373",
"Z.	c #6F7070",
"`.	c #424242",
" +	c #252626",
".+	c #242424",
"++	c #232222",
"@+	c #222222",
"#+	c #424142",
"$+	c #373736",
"%+	c #333334",
"&+	c #2D2D2C",
"*+	c #2A2A29",
"=+	c #202020",
"-+	c #1E1F1F",
";+	c #1D1E1E",
">+	c #1E1D1D",
",+	c #474848",
"'+	c #444443",
")+	c #40403F",
"!+	c #353435",
"~+	c #2A292A",
"{+	c #262726",
"]+	c #212121",
"^+	c #1F1E1E",
"/+	c #1C1C1C",
"(+	c #1A1B1A",
"_+	c #1A1919",
":+	c #19191A",
"<+	c #C0BFBF",
"[+	c #BFBEBF",
"}+	c #464646",
"|+	c #3F3F3E",
"1+	c #3A3A3A",
"2+	c #363737",
"3+	c #323332",
"4+	c #2E2F2F",
"5+	c #2C2B2B",
"6+	c #282827",
"7+	c #252424",
"8+	c #1A1B1B",
"9+	c #181918",
"0+	c #171716",
"a+	c #151615",
"b+	c #141515",
"c+	c #BEBEBD",
"d+	c #4E4E4D",
"e+	c #464545",
"f+	c #414141",
"g+	c #3E3D3D",
"h+	c #222221",
"i+	c #1E1E1E",
"j+	c #1B1B1B",
"k+	c #181818",
"l+	c #151515",
"m+	c #131313",
"n+	c #111112",
"o+	c #111111",
"p+	c #A9A8A8",
"q+	c #4D4C4C",
"r+	c #494849",
"s+	c #454544",
"t+	c #302F30",
"u+	c #2C2C2C",
"v+	c #232424",
"w+	c #1C1D1C",
"x+	c #181819",
"y+	c #121211",
"z+	c #0F0F10",
"A+	c #0D0D0E",
"B+	c #0D0C0C",
"C+	c #3B3C3B",
"D+	c #383737",
"E+	c #2B2B2A",
"F+	c #272726",
"G+	c #232322",
"H+	c #1E1F1E",
"I+	c #161617",
"J+	c #131213",
"K+	c #0F0F0F",
"L+	c #0C0C0B",
"M+	c #0A0909",
"N+	c #080808",
"O+	c #BBBBBB",
"P+	c #B9BABA",
"Q+	c #B5B5B5",
"R+	c #2E2F2E",
"S+	c #1D1D1E",
"T+	c #191919",
"U+	c #151616",
"V+	c #090909",
"W+	c #060506",
"X+	c #030303",
"Y+	c #B9B9BA",
"Z+	c #B8B9B8",
"`+	c #363736",
" @	c #262526",
".@	c #1D1E1D",
"+@	c #111011",
"@@	c #0C0C0C",
"#@	c #090808",
"$@	c #CDCDCE",
"%@	c #CACACA",
"&@	c #C8C9C8",
"*@	c #C4C5C5",
"=@	c #C3C4C3",
"-@	c #C0C0C0",
";@	c #BEBEBF",
">@	c #CFCECF",
",@	c #BDBEBE",
"'@	c #BABABA",
")@	c #B8B8B9",
"                                                                ",
"                                                                ",
"              . .     . .     . .     . .     . .               ",
"              + +     + +     + +     + +     + +               ",
"              @ @ #   @ @ #   @ @ #   @ @ #   @ @ #             ",
"              . . #   . . #   . . #   . . #   . . #             ",
"            $ % & @ * = - ; > , , ' ) ) ) ! ~ { ] ^             ",
"    . + @ . % / ( _ : < [ } | 1 2 3 4 5 6 7 8 9 0 a b c d e     ",
"    . + @ . & ( _ f g h i j k l m n o p q r s t u v w c d w     ",
"        # # @ _ x g y | z A B C D p r t E F G H I J # # # #     ",
"            * x K y | L M N O P Q R F G S T U V W W # #         ",
"    . + @ . = X Y Z L M `  ...+.@.#.$.U %.a &.*.=.-.;.c d >.    ",
"    . + @ . - ,.'.).M ` !.~.{.F ].U ^.&./.(._.:.<.[.}.c d |.    ",
"        # # ; 1.2.3.4 O ~.v 4.5.W 6.7.8.9.0.a.b.c.d.# # # #     ",
"            > e.k f.O f.g.h.Q i.j.k.. l.d m.n.o.o.p.# #         ",
"    . + @ . , q.r.n d {.s.E t.=.u.v.. w.o.x.y.z.A.A.B.c d C.    ",
"    . + @ . , D.` o ~.p E.. F.G.0.H.. I.J.K.L.M.N.O.P.c d P.    ",
"        # # ' M Q.p R.S.T.U.V.W.X.Y.. Z.`. +.+++@+@+# # # #     ",
"            ) 4 7 r F #+^.7.$+%+n.&+*+M..+@+=+-+;+>+# #         ",
"    . + @ . ) C 0 ,+'+)+&.8.!+w.x.~+{+.+]+^+/+(+_+:+<+c d [+    ",
"    . + @ . ! O q }+S |+1+2+3+4+5+6+7+]+;+8+9+0+a+b+% c d c+    ",
"        # # ! d+Q e+f+g+(.0.m.x.K.N.h+i+j+k+l+m+n+o+# # # #     ",
"            p+q+r+s+U &._.a.t+u+L.v+=+w+x+l+y+z+A+B+# #         ",
"    . + @ . p+X.R.G W C+D+b.o.E+F+G+H+(+I+J+K+L+M+N+O+c d P+    ",
"    . + @ . Q+X.R.#.W =.9.b.R+A.N.]+S+T+U+o+A+V+W+X+Y+c d Z+    ",
"        # # [+a R.J |+/.`+c.p.~+ @@+.@T+l++@@@#@X+# # # # #     ",
"              b $@# # %@&@# # *@=@# # -@;@# # O+Y+# #           ",
"              c c # # c c # # c c # # c c # # c c #             ",
"              d d #   d d #   d d #   d d #   d d #             ",
"              >@w #   ;.|.#   C.P.#   [+,@#   '@)@#             ",
"                                                                ",
"                                                                "};
