/* XPM */
static char * subdevice_da_xpm[] = {
"32 32 290 2",
"  	c None",
". 	c #FFFFFF",
"+ 	c #999999",
"@ 	c #B2B2B2",
"# 	c #000000",
"$ 	c #E2E2E2",
"% 	c #BEBEBE",
"& 	c #B3B3B3",
"* 	c #B1B1B1",
"= 	c #B0B0B0",
"- 	c #AFAFAF",
"; 	c #AEAEAE",
"> 	c #ADADAD",
", 	c #ACACAC",
"' 	c #ABABAB",
") 	c #AAAAAA",
"! 	c #A9A9A9",
"~ 	c #A8A9A9",
"{ 	c #A8A8A8",
"] 	c #B4B5B4",
"^ 	c #BFBFBF",
"/ 	c #6A6A6A",
"( 	c #686868",
"_ 	c #656565",
": 	c #636262",
"< 	c #605F60",
"[ 	c #5E5D5D",
"} 	c #5B5A5B",
"| 	c #595959",
"1 	c #565657",
"2 	c #545554",
"3 	c #525353",
"4 	c #515151",
"5 	c #50504F",
"6 	c #4F4F4E",
"7 	c #4E4D4D",
"8 	c #4D4C4D",
"9 	c #4C4C4B",
"0 	c #4C4B4C",
"a 	c #3D3D3D",
"b 	c #CFCFCF",
"c 	c #666666",
"d 	c #4C4C4C",
"e 	c #CECECF",
"f 	c #626162",
"g 	c #5F5F5F",
"h 	c #5C5D5D",
"i 	c #5A5A5A",
"j 	c #575757",
"k 	c #555555",
"l 	c #525252",
"m 	c #505150",
"n 	c #4F4F4F",
"o 	c #4D4D4D",
"p 	c #4B4B4B",
"q 	c #4B4A4A",
"r 	c #494949",
"s 	c #484948",
"t 	c #484748",
"u 	c #484847",
"v 	c #484747",
"w 	c #CDCDCD",
"x 	c #626262",
"y 	c #5C5C5C",
"z 	c #565756",
"A 	c #545454",
"B 	c #515251",
"C 	c #504F4F",
"D 	c #4D4D4C",
"E 	c #464746",
"F 	c #454545",
"G 	c #444444",
"H 	c #444344",
"I 	c #434344",
"J 	c #434343",
"K 	c #5F5F60",
"L 	c #565656",
"M 	c #535353",
"N 	c #515150",
"O 	c #4E4E4E",
"P 	c #4B4C4B",
"Q 	c #4A4949",
"R 	c #474847",
"S 	c #424243",
"T 	c #424141",
"U 	c #404040",
"V 	c #3F403F",
"W 	c #3F3F3F",
"X 	c #606060",
"Y 	c #5D5D5C",
"Z 	c #595A59",
"` 	c #505050",
" .	c #4D4E4E",
"..	c #4B4B4A",
"+.	c #484849",
"@.	c #454646",
"#.	c #444343",
"$.	c #414242",
"%.	c #3E3F3E",
"&.	c #3C3C3C",
"*.	c #3B3C3C",
"=.	c #3B3B3B",
"-.	c #3A3B3B",
";.	c #C9C9CA",
">.	c #C9C9C9",
",.	c #5D5D5D",
"'.	c #5A5A59",
").	c #575657",
"!.	c #4D4E4D",
"~.	c #4A4A4A",
"{.	c #484848",
"].	c #434342",
"^.	c #3E3E3E",
"/.	c #3B3A3A",
"(.	c #393939",
"_.	c #383838",
":.	c #373737",
"<.	c #363636",
"[.	c #363637",
"}.	c #C9C8C8",
"|.	c #C8C8C8",
"1.	c #5B5B5A",
"2.	c #585858",
"3.	c #535454",
"4.	c #444545",
"5.	c #424241",
"6.	c #3D3C3C",
"7.	c #3A3A3B",
"8.	c #393838",
"9.	c #373637",
"0.	c #353535",
"a.	c #333434",
"b.	c #333333",
"c.	c #323232",
"d.	c #333232",
"e.	c #595858",
"f.	c #525251",
"g.	c #8B8C8B",
"h.	c #C3C2C2",
"i.	c #3F3E3E",
"j.	c #6D6C6C",
"k.	c #7F7E7E",
"l.	c #313131",
"m.	c #303030",
"n.	c #2F2F2F",
"o.	c #2E2E2F",
"p.	c #575756",
"q.	c #525352",
"r.	c #737273",
"s.	c #757575",
"t.	c #EBEBEB",
"u.	c #464645",
"v.	c #E9E9E9",
"w.	c #2D2D2D",
"x.	c #2C2B2C",
"y.	c #2B2A2B",
"z.	c #2A2A2A",
"A.	c #C5C5C5",
"B.	c #C4C4C4",
"C.	c #545555",
"D.	c #EAEBEB",
"E.	c #F0F0F0",
"F.	c #434243",
"G.	c #474746",
"H.	c #292929",
"I.	c #282728",
"J.	c #272727",
"K.	c #262626",
"L.	c #252525",
"M.	c #C3C3C3",
"N.	c #4E4F4F",
"O.	c #474747",
"P.	c #9E9E9E",
"Q.	c #929292",
"R.	c #3C3D3C",
"S.	c #858585",
"T.	c #ABACAC",
"U.	c #676767",
"V.	c #787878",
"W.	c #A6A7A7",
"X.	c #252626",
"Y.	c #242424",
"Z.	c #232222",
"`.	c #222222",
" +	c #424142",
".+	c #373736",
"++	c #333334",
"@+	c #2D2D2C",
"#+	c #2A2A29",
"$+	c #202020",
"%+	c #1E1F1F",
"&+	c #1D1E1E",
"*+	c #1E1D1D",
"=+	c #474848",
"-+	c #444443",
";+	c #40403F",
">+	c #353435",
",+	c #313130",
"'+	c #2A292A",
")+	c #262726",
"!+	c #212121",
"~+	c #1F1E1E",
"{+	c #1C1C1C",
"]+	c #1A1B1A",
"^+	c #1A1919",
"/+	c #19191A",
"(+	c #C0BFBF",
"_+	c #BFBEBF",
":+	c #464646",
"<+	c #3F3F3E",
"[+	c #3A3A3A",
"}+	c #363737",
"|+	c #323332",
"1+	c #2E2F2F",
"2+	c #2C2B2B",
"3+	c #282827",
"4+	c #252424",
"5+	c #1A1B1B",
"6+	c #181918",
"7+	c #171716",
"8+	c #151615",
"9+	c #141515",
"0+	c #BEBEBD",
"a+	c #4E4E4D",
"b+	c #464545",
"c+	c #414141",
"d+	c #3E3D3D",
"e+	c #222221",
"f+	c #1E1E1E",
"g+	c #1B1B1B",
"h+	c #181818",
"i+	c #151515",
"j+	c #131313",
"k+	c #111112",
"l+	c #111111",
"m+	c #A9A8A8",
"n+	c #4D4C4C",
"o+	c #494849",
"p+	c #454544",
"q+	c #302F30",
"r+	c #2C2C2C",
"s+	c #232424",
"t+	c #1C1D1C",
"u+	c #181819",
"v+	c #121211",
"w+	c #0F0F10",
"x+	c #0D0D0E",
"y+	c #0D0C0C",
"z+	c #4B4C4C",
"A+	c #3B3C3B",
"B+	c #383737",
"C+	c #2B2B2A",
"D+	c #272726",
"E+	c #232322",
"F+	c #1E1F1E",
"G+	c #161617",
"H+	c #131213",
"I+	c #0F0F0F",
"J+	c #0C0C0B",
"K+	c #0A0909",
"L+	c #080808",
"M+	c #BBBBBB",
"N+	c #B9BABA",
"O+	c #B5B5B5",
"P+	c #2E2F2E",
"Q+	c #1D1D1E",
"R+	c #191919",
"S+	c #151616",
"T+	c #090909",
"U+	c #060506",
"V+	c #030303",
"W+	c #B9B9BA",
"X+	c #B8B9B8",
"Y+	c #363736",
"Z+	c #262526",
"`+	c #1D1E1D",
" @	c #111011",
".@	c #0C0C0C",
"+@	c #090808",
"@@	c #CDCDCE",
"#@	c #CACACA",
"$@	c #C8C9C8",
"%@	c #C4C5C5",
"&@	c #C3C4C3",
"*@	c #C0C0C0",
"=@	c #BEBEBF",
"-@	c #CFCECF",
";@	c #BDBEBE",
">@	c #BABABA",
",@	c #B8B8B9",
"                                                                ",
"                                                                ",
"              . .     . .     . .     . .     . .               ",
"              + +     + +     + +     + +     + +               ",
"              @ @ #   @ @ #   @ @ #   @ @ #   @ @ #             ",
"              . . #   . . #   . . #   . . #   . . #             ",
"            $ % & @ * = - ; > , , ' ) ) ) ! ~ { ] ^             ",
"    . + @ . % / ( _ : < [ } | 1 2 3 4 5 6 7 8 9 0 a b c d e     ",
"    . + @ . & ( _ f g h i j k l m n o p q r s t u v w c d w     ",
"        # # @ _ x g y | z A B C D p r t E F G H I J # # # #     ",
"            * x K y | L M N O P Q R F G S T U V W W # #         ",
"    . + @ . = X Y Z L M `  ...+.@.#.$.U %.a &.*.=.-.;.c d >.    ",
"    . + @ . - ,.'.).M ` !.~.{.F ].U ^.&./.(._.:.<.[.}.c d |.    ",
"        # # ; 1.2.3.4 O ~.v 4.5.W 6.7.8.9.0.a.b.c.d.# # # #     ",
"            > e.k f.O f.g.h.Q i.j., k.' c l.m.n.n.o.# #         ",
"    . + @ . , p.q.n d {.r.E s.=.t.{.b.u.v.w.x.y.z.z.A.c d B.    ",
"    . + @ . , C.` o ~.p D.. E.F.t.G.m.$.v.H.I.J.K.L.M.c d M.    ",
"        # # ' M N.p O.P.Q.R.S.T.U.) V.W.,.X.Y.Z.`.`.# # # #     ",
"            ) 4 7 r F  +^.7..+++m.@+#+J.Y.`.$+%+&+*+# #         ",
"    . + @ . ) C 0 =+-+;+&.8.>+,+w.'+)+Y.!+~+{+]+^+/+(+c d _+    ",
"    . + @ . ! O q :+S <+[+}+|+1+2+3+4+!+&+5+6+7+8+9+% c d 0+    ",
"        # # ! a+Q b+c+d+(.0.l.w.H.K.e+f+g+h+i+j+k+l+# # # #     ",
"            m+n+o+p+U &._.a.q+r+I.s+$+t+u+i+v+w+x+y+# #         ",
"    . + @ . m+z+O.G W A+B+b.n.C+D+E+F+]+G+H+I+J+K+L+M+c d N+    ",
"    . + @ . O+z+O.#.W =.9.b.P+z.K.!+Q+R+S+l+x+T+U+V+W+c d X+    ",
"        # # _+a O.J <+/.Y+c.o.'+Z+`.`+R+i+ @.@+@V+# # # # #     ",
"              b @@# # #@$@# # %@&@# # *@=@# # M+W+# #           ",
"              c c # # c c # # c c # # c c # # c c #             ",
"              d d #   d d #   d d #   d d #   d d #             ",
"              -@w #   ;.|.#   B.M.#   _+;@#   >@,@#             ",
"                                                                ",
"                                                                "};
