/* XPM */
static char * subdevice_do_xpm[] = {
"32 32 286 2",
"  	c None",
". 	c #FFFFFF",
"+ 	c #999999",
"@ 	c #B2B2B2",
"# 	c #000000",
"$ 	c #E2E2E2",
"% 	c #BEBEBE",
"& 	c #B3B3B3",
"* 	c #B1B1B1",
"= 	c #B0B0B0",
"- 	c #AFAFAF",
"; 	c #AEAEAE",
"> 	c #ADADAD",
", 	c #ACACAC",
"' 	c #ABABAB",
") 	c #AAAAAA",
"! 	c #A9A9A9",
"~ 	c #A8A9A9",
"{ 	c #A8A8A8",
"] 	c #B4B5B4",
"^ 	c #BFBFBF",
"/ 	c #6A6A6A",
"( 	c #686868",
"_ 	c #656565",
": 	c #636262",
"< 	c #605F60",
"[ 	c #5E5D5D",
"} 	c #5B5A5B",
"| 	c #595959",
"1 	c #565657",
"2 	c #545554",
"3 	c #525353",
"4 	c #515151",
"5 	c #50504F",
"6 	c #4F4F4E",
"7 	c #4E4D4D",
"8 	c #4D4C4D",
"9 	c #4C4C4B",
"0 	c #4C4B4C",
"a 	c #3D3D3D",
"b 	c #CFCFCF",
"c 	c #666666",
"d 	c #4C4C4C",
"e 	c #CECECF",
"f 	c #626162",
"g 	c #5F5F5F",
"h 	c #5C5D5D",
"i 	c #5A5A5A",
"j 	c #575757",
"k 	c #555555",
"l 	c #525252",
"m 	c #505150",
"n 	c #4F4F4F",
"o 	c #4D4D4D",
"p 	c #4B4B4B",
"q 	c #4B4A4A",
"r 	c #494949",
"s 	c #484948",
"t 	c #484748",
"u 	c #484847",
"v 	c #484747",
"w 	c #CDCDCD",
"x 	c #626262",
"y 	c #5C5C5C",
"z 	c #565756",
"A 	c #545454",
"B 	c #515251",
"C 	c #504F4F",
"D 	c #4D4D4C",
"E 	c #464746",
"F 	c #454545",
"G 	c #444444",
"H 	c #444344",
"I 	c #434344",
"J 	c #434343",
"K 	c #5F5F60",
"L 	c #565656",
"M 	c #535353",
"N 	c #515150",
"O 	c #4E4E4E",
"P 	c #4B4C4B",
"Q 	c #4A4949",
"R 	c #474847",
"S 	c #424243",
"T 	c #424141",
"U 	c #404040",
"V 	c #3F403F",
"W 	c #3F3F3F",
"X 	c #606060",
"Y 	c #5D5D5C",
"Z 	c #595A59",
"` 	c #505050",
" .	c #4D4E4E",
"..	c #4B4B4A",
"+.	c #484849",
"@.	c #454646",
"#.	c #444343",
"$.	c #414242",
"%.	c #3E3F3E",
"&.	c #3C3C3C",
"*.	c #3B3C3C",
"=.	c #3B3B3B",
"-.	c #3A3B3B",
";.	c #C9C9CA",
">.	c #C9C9C9",
",.	c #5D5D5D",
"'.	c #5A5A59",
").	c #575657",
"!.	c #4D4E4D",
"~.	c #4A4A4A",
"{.	c #484848",
"].	c #434342",
"^.	c #3E3E3E",
"/.	c #3B3A3A",
"(.	c #393939",
"_.	c #383838",
":.	c #373737",
"<.	c #363636",
"[.	c #363637",
"}.	c #C9C8C8",
"|.	c #C8C8C8",
"1.	c #5B5B5A",
"2.	c #585858",
"3.	c #535454",
"4.	c #444545",
"5.	c #424241",
"6.	c #3D3C3C",
"7.	c #3A3A3B",
"8.	c #393838",
"9.	c #373637",
"0.	c #353535",
"a.	c #333434",
"b.	c #333333",
"c.	c #323232",
"d.	c #333232",
"e.	c #595858",
"f.	c #525251",
"g.	c #70706F",
"h.	c #838282",
"i.	c #A9A8A8",
"j.	c #8A8989",
"k.	c #6D6C6C",
"l.	c #7F7E7E",
"m.	c #313131",
"n.	c #303030",
"o.	c #2F2F2F",
"p.	c #2E2E2F",
"q.	c #575756",
"r.	c #525352",
"s.	c #414241",
"t.	c #F5F5F5",
"u.	c #EBEBEB",
"v.	c #464645",
"w.	c #E9E9E9",
"x.	c #2D2D2D",
"y.	c #2C2B2C",
"z.	c #2B2A2B",
"A.	c #2A2A2A",
"B.	c #C5C5C5",
"C.	c #C4C4C4",
"D.	c #545555",
"E.	c #464646",
"F.	c #3F3F3E",
"G.	c #EEEEEE",
"H.	c #474746",
"I.	c #292929",
"J.	c #282728",
"K.	c #272727",
"L.	c #262626",
"M.	c #252525",
"N.	c #C3C3C3",
"O.	c #4E4F4F",
"P.	c #474747",
"Q.	c #7D7D7D",
"R.	c #A4A4A4",
"S.	c #797A7A",
"T.	c #676767",
"U.	c #787878",
"V.	c #A6A7A7",
"W.	c #252626",
"X.	c #242424",
"Y.	c #232222",
"Z.	c #222222",
"`.	c #424142",
" +	c #373736",
".+	c #333334",
"++	c #2D2D2C",
"@+	c #2A2A29",
"#+	c #202020",
"$+	c #1E1F1F",
"%+	c #1D1E1E",
"&+	c #1E1D1D",
"*+	c #474848",
"=+	c #444443",
"-+	c #40403F",
";+	c #353435",
">+	c #313130",
",+	c #2A292A",
"'+	c #262726",
")+	c #212121",
"!+	c #1F1E1E",
"~+	c #1C1C1C",
"{+	c #1A1B1A",
"]+	c #1A1919",
"^+	c #19191A",
"/+	c #C0BFBF",
"(+	c #BFBEBF",
"_+	c #3A3A3A",
":+	c #363737",
"<+	c #323332",
"[+	c #2E2F2F",
"}+	c #2C2B2B",
"|+	c #282827",
"1+	c #252424",
"2+	c #1A1B1B",
"3+	c #181918",
"4+	c #171716",
"5+	c #151615",
"6+	c #141515",
"7+	c #BEBEBD",
"8+	c #4E4E4D",
"9+	c #464545",
"0+	c #414141",
"a+	c #3E3D3D",
"b+	c #222221",
"c+	c #1E1E1E",
"d+	c #1B1B1B",
"e+	c #181818",
"f+	c #151515",
"g+	c #131313",
"h+	c #111112",
"i+	c #111111",
"j+	c #4D4C4C",
"k+	c #494849",
"l+	c #454544",
"m+	c #302F30",
"n+	c #2C2C2C",
"o+	c #232424",
"p+	c #1C1D1C",
"q+	c #181819",
"r+	c #121211",
"s+	c #0F0F10",
"t+	c #0D0D0E",
"u+	c #0D0C0C",
"v+	c #4B4C4C",
"w+	c #3B3C3B",
"x+	c #383737",
"y+	c #2B2B2A",
"z+	c #272726",
"A+	c #232322",
"B+	c #1E1F1E",
"C+	c #161617",
"D+	c #131213",
"E+	c #0F0F0F",
"F+	c #0C0C0B",
"G+	c #0A0909",
"H+	c #080808",
"I+	c #BBBBBB",
"J+	c #B9BABA",
"K+	c #B5B5B5",
"L+	c #2E2F2E",
"M+	c #1D1D1E",
"N+	c #191919",
"O+	c #151616",
"P+	c #090909",
"Q+	c #060506",
"R+	c #030303",
"S+	c #B9B9BA",
"T+	c #B8B9B8",
"U+	c #363736",
"V+	c #262526",
"W+	c #1D1E1D",
"X+	c #111011",
"Y+	c #0C0C0C",
"Z+	c #090808",
"`+	c #CDCDCE",
" @	c #CACACA",
".@	c #C8C9C8",
"+@	c #C4C5C5",
"@@	c #C3C4C3",
"#@	c #C0C0C0",
"$@	c #BEBEBF",
"%@	c #CFCECF",
"&@	c #BDBEBE",
"*@	c #BABABA",
"=@	c #B8B8B9",
"                                                                ",
"                                                                ",
"              . .     . .     . .     . .     . .               ",
"              + +     + +     + +     + +     + +               ",
"              @ @ #   @ @ #   @ @ #   @ @ #   @ @ #             ",
"              . . #   . . #   . . #   . . #   . . #             ",
"            $ % & @ * = - ; > , , ' ) ) ) ! ~ { ] ^             ",
"    . + @ . % / ( _ : < [ } | 1 2 3 4 5 6 7 8 9 0 a b c d e     ",
"    . + @ . & ( _ f g h i j k l m n o p q r s t u v w c d w     ",
"        # # @ _ x g y | z A B C D p r t E F G H I J # # # #     ",
"            * x K y | L M N O P Q R F G S T U V W W # #         ",
"    . + @ . = X Y Z L M `  ...+.@.#.$.U %.a &.*.=.-.;.c d >.    ",
"    . + @ . - ,.'.).M ` !.~.{.F ].U ^.&./.(._.:.<.[.}.c d |.    ",
"        # # ; 1.2.3.4 O ~.v 4.5.W 6.7.8.9.0.a.b.c.d.# # # #     ",
"            > e.k f.O g.. h.i.j.k., l.' c m.n.o.o.p.# #         ",
"    . + @ . , q.r.n d {.. s.r t.u.{.b.v.w.x.y.z.A.A.B.c d C.    ",
"    . + @ . , D.` o ~.E.. F.s G.u.H.n.$.w.I.J.K.L.M.N.c d N.    ",
"        # # ' M O.p P./ . Q.R.S.T.) U.V.,.W.X.Y.Z.Z.# # # #     ",
"            ) 4 7 r F `.^.7. +.+n.++@+K.X.Z.#+$+%+&+# #         ",
"    . + @ . ) C 0 *+=+-+&.8.;+>+x.,+'+X.)+!+~+{+]+^+/+c d (+    ",
"    . + @ . ! O q E.S F._+:+<+[+}+|+1+)+%+2+3+4+5+6+% c d 7+    ",
"        # # ! 8+Q 9+0+a+(.0.m.x.I.L.b+c+d+e+f+g+h+i+# # # #     ",
"            i.j+k+l+U &._.a.m+n+J.o+#+p+q+f+r+s+t+u+# #         ",
"    . + @ . i.v+P.G W w+x+b.o.y+z+A+B+{+C+D+E+F+G+H+I+c d J+    ",
"    . + @ . K+v+P.#.W =.9.b.L+A.L.)+M+N+O+i+t+P+Q+R+S+c d T+    ",
"        # # (+a P.J F./.U+c.p.,+V+Z.W+N+f+X+Y+Z+R+# # # # #     ",
"              b `+# #  @.@# # +@@@# # #@$@# # I+S+# #           ",
"              c c # # c c # # c c # # c c # # c c #             ",
"              d d #   d d #   d d #   d d #   d d #             ",
"              %@w #   ;.|.#   C.N.#   (+&@#   *@=@#             ",
"                                                                ",
"                                                                "};
