/* XPM */
static char * up_xpm[] = {
"32 32 246 2",
"  	c None",
". 	c #323232",
"+ 	c #759375",
"@ 	c #000000",
"# 	c #E5E5E5",
"$ 	c #93C993",
"% 	c #457645",
"& 	c #79BB78",
"* 	c #69B369",
"= 	c #7DBE7D",
"- 	c #417441",
"; 	c #77BB78",
"> 	c #67B368",
", 	c #66B266",
"' 	c #65B164",
") 	c #62B062",
"! 	c #3F723F",
"~ 	c #77BB77",
"{ 	c #67B267",
"] 	c #64B165",
"^ 	c #63B162",
"/ 	c #61AF61",
"( 	c #5FAF5F",
"_ 	c #5EAE5E",
": 	c #3A713A",
"< 	c #77BA76",
"[ 	c #66B366",
"} 	c #64B164",
"| 	c #61B062",
"1 	c #5FB060",
"2 	c #5CAE5C",
"3 	c #5AAC5A",
"4 	c #58AB59",
"5 	c #386F38",
"6 	c #75BA76",
"7 	c #65B265",
"8 	c #63B063",
"9 	c #61AF60",
"0 	c #5FAF5E",
"a 	c #5DAD5D",
"b 	c #5BAC5B",
"c 	c #59AB59",
"d 	c #57AA57",
"e 	c #55AA55",
"f 	c #54A954",
"g 	c #356E34",
"h 	c #76BA75",
"i 	c #60AF61",
"j 	c #5EAF5E",
"k 	c #5CAD5C",
"l 	c #57AB58",
"m 	c #56AA55",
"n 	c #52A852",
"o 	c #50A850",
"p 	c #4FA74F",
"q 	c #326C32",
"r 	c #76BA76",
"s 	c #60AF60",
"t 	c #5DAE5D",
"u 	c #5BAD5C",
"v 	c #57AB57",
"w 	c #55A954",
"x 	c #53A852",
"y 	c #50A751",
"z 	c #4DA64D",
"A 	c #4CA54B",
"B 	c #4BA54B",
"C 	c #2E6B2E",
"D 	c #65B165",
"E 	c #62B063",
"F 	c #5DAE5E",
"G 	c #59AC58",
"H 	c #56AB56",
"I 	c #51A852",
"J 	c #4FA750",
"K 	c #4DA54E",
"L 	c #4AA44A",
"M 	c #48A448",
"N 	c #47A347",
"O 	c #46A245",
"P 	c #2C6A2C",
"Q 	c #63B163",
"R 	c #58AC58",
"S 	c #56AA56",
"T 	c #53A854",
"U 	c #51A751",
"V 	c #4FA64E",
"W 	c #4DA54C",
"X 	c #48A348",
"Y 	c #46A346",
"Z 	c #45A144",
"` 	c #43A043",
" .	c #42A042",
"..	c #41A041",
"+.	c #296729",
"@.	c #78BB78",
"#.	c #66B367",
"$.	c #63B164",
"%.	c #61B061",
"&.	c #5BAD5B",
"*.	c #53A953",
"=.	c #4EA74E",
"-.	c #49A449",
";.	c #47A247",
">.	c #45A245",
",.	c #43A143",
"'.	c #41A042",
").	c #40A040",
"!.	c #3F9F3F",
"~.	c #3E9E3D",
"{.	c #3D9E3D",
"].	c #266625",
"^.	c #79BB79",
"/.	c #68B367",
"(.	c #53A853",
"_.	c #4EA64E",
":.	c #4BA54C",
"<.	c #49A349",
"[.	c #43A042",
"}.	c #409F40",
"|.	c #3F9E3E",
"1.	c #3C9D3D",
"2.	c #3B9D3C",
"3.	c #3A9C3A",
"4.	c #399C39",
"5.	c #389B38",
"6.	c #467145",
"7.	c #959595",
"8.	c #486E48",
"9.	c #437543",
"0.	c #407340",
"a.	c #3E723D",
"b.	c #427D43",
"c.	c #81AC81",
"d.	c #5E9B5E",
"e.	c #51A850",
"f.	c #49A348",
"g.	c #46A246",
"h.	c #44A144",
"i.	c #2A722A",
"j.	c #297029",
"k.	c #287028",
"l.	c #267026",
"m.	c #256F25",
"n.	c #246F24",
"o.	c #D3D3D3",
"p.	c #5C9A5D",
"q.	c #52A851",
"r.	c #4CA54C",
"s.	c #44A143",
"t.	c #419F41",
"u.	c #3F9E3F",
"v.	c #3D9D3C",
"w.	c #6CB46B",
"x.	c #4FA64F",
"y.	c #4AA34A",
"z.	c #47A246",
"A.	c #43A144",
"B.	c #409F41",
"C.	c #3C9D3B",
"D.	c #3A9B39",
"E.	c #379B37",
"F.	c #6AB46A",
"G.	c #4BA44A",
"H.	c #47A248",
"I.	c #44A145",
"J.	c #3C9D3C",
"K.	c #369A37",
"L.	c #359934",
"M.	c #236E24",
"N.	c #68B369",
"O.	c #42A142",
"P.	c #3A9C39",
"Q.	c #369B36",
"R.	c #349933",
"S.	c #319831",
"T.	c #216D21",
"U.	c #67B367",
"V.	c #349934",
"W.	c #319731",
"X.	c #2F972F",
"Y.	c #1F6C1F",
"Z.	c #3E9F3E",
"`.	c #3B9D3B",
" +	c #359935",
".+	c #329832",
"++	c #2C952D",
"@+	c #1D6B1D",
"#+	c #44A044",
"$+	c #369A36",
"%+	c #339933",
"&+	c #309730",
"*+	c #2D952D",
"=+	c #2A942A",
"-+	c #1B6A1B",
";+	c #3F9F3E",
">+	c #3C9C3C",
",+	c #2E962E",
"'+	c #2B942B",
")+	c #289228",
"!+	c #1A691A",
"~+	c #3E9E3E",
"{+	c #2F9730",
"]+	c #299429",
"^+	c #269226",
"/+	c #186918",
"(+	c #359A36",
"_+	c #2F962F",
":+	c #2B952B",
"<+	c #259124",
"[+	c #176817",
"}+	c #62AF61",
"|+	c #349935",
"1+	c #2D962D",
"2+	c #269227",
"3+	c #239023",
"4+	c #166715",
"5+	c #3B9C3B",
"6+	c #389B37",
"7+	c #2C952C",
"8+	c #299329",
"9+	c #259126",
"0+	c #219021",
"a+	c #156715",
"b+	c #3E9E3F",
"c+	c #30972F",
"d+	c #289329",
"e+	c #218F21",
"f+	c #156615",
"g+	c #3B9D3A",
"h+	c #289328",
"i+	c #259225",
"j+	c #146614",
"k+	c #272727",
"l+	c #6F6F6F",
"m+	c #396339",
"n+	c #2F742F",
"o+	c #2C732D",
"p+	c #29712A",
"q+	c #277027",
"r+	c #226E22",
"s+	c #1F6C20",
"t+	c #1C6B1C",
"u+	c #1A6A1A",
"v+	c #186717",
"w+	c #156714",
"                                                                ",
"                                                                ",
"                              . +                               ",
"                            @ # $ %                             ",
"                          @ # & * = -                           ",
"                        @ # ; > , ' ) !                         ",
"                      @ # ~ { ] ^ / ( _ :                       ",
"                    @ # < [ } | 1 _ 2 3 4 5                     ",
"                  @ # 6 7 8 9 0 a b c d e f g                   ",
"                @ # h 7 8 i j k 3 l m f n o p q                 ",
"              @ # r 7 ) s t u c v w x y p z A B C               ",
"            @ # r D E s F b G H f I J K A L M N O P             ",
"          @ # ~ , Q s F b R S T U V W L X Y Z `  ...+.          ",
"        @ # @.#.$.%._ &.R S *.y =.B -.;.>.,.'.).!.~.{.].        ",
"      @ # ^./.] ) 0 k G S (.U _.:.<.Y Z [.}.|.1.2.3.4.5.6.      ",
"      7.8.9.- 0.a.b.c.d.*.e._.A f.g.h...!.{.i.j.k.l.m.n.n.      ",
"                  @ o.p.q._.r.f.g.s.t.u.v.3.k.                  ",
"                  @ o.w.x.r.y.z.A.B.|.C.D.E.n.                  ",
"                  @ o.F.z G.H.I.'.u.J.4.K.L.M.                  ",
"                  @ o.N.r.f.>.O.u.J.P.Q.R.S.T.                  ",
"                  @ o.U.L g.s.}.{.3.E.V.W.X.Y.                  ",
"                  @ o., f.>...Z.`.5. +.+X.++@+                  ",
"                  @ o.' N #+}.1.3.$+%+&+*+=+-+                  ",
"                  @ o.} >. .;+>+5. +W.,+'+)+!+                  ",
"                  @ o.Q Z t.~+3.K.%+{+++]+^+/+                  ",
"                  @ o.) s.}.v.4.(+.+_+:+)+<+[+                  ",
"                  @ o.}+` }.C.5.|+S.1+=+2+3+4+                  ",
"                  @ o./ O.!.5+6+%+&+7+8+9+0+a+                  ",
"                  @ o./  .b+5+E.R.c+7+d+<+e+f+                  ",
"                  @ o./  .~+g+E.R.{+7+h+i+0+j+                  ",
"                  k+l+m+n+o+p+q+n.r+s+t+u+v+w+                  ",
"                                                                "};
