/* XPM */
static char * usbDevice_xpm[] = {
"32 32 134 2",
"  	c None",
". 	c #B2B2B2",
"+ 	c #7F7F7F",
"@ 	c #868686",
"# 	c #D35649",
"$ 	c #D53828",
"% 	c #D81400",
"& 	c #FF3838",
"* 	c #FF3636",
"= 	c #FF3535",
"- 	c #FF3333",
"; 	c #FF3231",
"> 	c #FF2F2F",
", 	c #FF2E2E",
"' 	c #FF2D2D",
") 	c #FF2B2A",
"! 	c #FF2929",
"~ 	c #FF2828",
"{ 	c #FF2626",
"] 	c #FF2425",
"^ 	c #FF2322",
"/ 	c #FF2121",
"( 	c #FF1F1F",
"_ 	c #FF1E1E",
": 	c #FF1C1D",
"< 	c #FF1B1B",
"[ 	c #FF3737",
"} 	c #FF3435",
"| 	c #FF3232",
"1 	c #FF3030",
"2 	c #FF2C2D",
"3 	c #FF2B2B",
"4 	c #FF2A2A",
"5 	c #FF2323",
"6 	c #FF2122",
"7 	c #FF2020",
"8 	c #FF1D1C",
"9 	c #FF1919",
"0 	c #E5E5E5",
"a 	c #FF2C2B",
"b 	c #FF2726",
"c 	c #FF2525",
"d 	c #FF2324",
"e 	c #FF2221",
"f 	c #FF1D1D",
"g 	c #FF1818",
"h 	c #FF3334",
"i 	c #FF3132",
"j 	c #FF3130",
"k 	c #FF2F2E",
"l 	c #FF2E2D",
"m 	c #000000",
"n 	c #FF2627",
"o 	c #FF1F1E",
"p 	c #FF1B1C",
"q 	c #FF1A1A",
"r 	c #FF1918",
"s 	c #FF1717",
"t 	c #CC2424",
"u 	c #FF2C2C",
"v 	c #CC1C1C",
"w 	c #FF2222",
"x 	c #FF1E1D",
"y 	c #FF1C1C",
"z 	c #FF1515",
"A 	c #999999",
"B 	c #FF3131",
"C 	c #CC191A",
"D 	c #FF201F",
"E 	c #CC1616",
"F 	c #820D0D",
"G 	c #680909",
"H 	c #CC1010",
"I 	c #FF1414",
"J 	c #FF2827",
"K 	c #FF2526",
"L 	c #CC1A1A",
"M 	c #CC1818",
"N 	c #680808",
"O 	c #FF1313",
"P 	c #FF1111",
"Q 	c #FF2D2C",
"R 	c #CC2222",
"S 	c #FF2524",
"T 	c #CC1919",
"U 	c #CC1414",
"V 	c #530505",
"W 	c #FF0F10",
"X 	c #FF2A29",
"Y 	c #CC2020",
"Z 	c #CC1B1B",
"` 	c #CC1717",
" .	c #CC1212",
"..	c #820A0A",
"+.	c #820809",
"@.	c #CC0C0C",
"#.	c #FF0E0E",
"$.	c #666666",
"%.	c #CC1D1D",
"&.	c #FF1314",
"*.	c #FF1212",
"=.	c #FF1110",
"-.	c #FF0D0D",
";.	c #FF2928",
">.	c #FF2727",
",.	c #FF2423",
"'.	c #FF1616",
").	c #FF1413",
"!.	c #FF1011",
"~.	c #FF0F0F",
"{.	c #FF0C0B",
"].	c #FF2424",
"^.	c #FF2120",
"/.	c #FF1819",
"(.	c #FF0B0B",
"_.	c #FF0A0A",
":.	c #FF2625",
"<.	c #FF1F20",
"[.	c #FF1213",
"}.	c #FF100F",
"|.	c #FF0D0E",
"1.	c #FF0C0C",
"2.	c #FF0909",
"3.	c #FF1D1E",
"4.	c #FF1B1A",
"5.	c #FF1817",
"6.	c #FF1514",
"7.	c #FF0A0B",
"8.	c #FF0807",
"9.	c #FF1718",
"0.	c #FF1415",
"a.	c #FF1211",
"b.	c #FF0808",
"c.	c #FF0606",
"                                                                ",
"                                                                ",
"                                                                ",
"                                                                ",
"                                                                ",
"                                                            . + ",
"                                                            + @ ",
"        # $ % % % % % % % % % % % % % % % % % $ #           + . ",
"        $ & * = - ; > , ' ) ! ~ { ] ^ / ( _ : < $           + . ",
"        % [ } - | 1 , 2 3 4 ~ { ] 5 6 7 _ 8 < 9 %         . + . ",
"      0 % = - | 1 , ' a 4 ~ b c d e 7 _ f < 9 g % + + + . + .   ",
"0 0 0 . % h i j k l m m m n c 5 e 7 o f p q r s % + + + + .     ",
". . . . % | j > t u m m m m v w 7 ( x y q r s z % + + +         ",
"      A % B > t m ) m m m v m C D _ E F m G H I %               ",
"        % 1 t m m ! J K ] ^ L m M 8 F m m m N O %               ",
"        % t m m m m m m m m m m m m m m m m m P %               ",
"        % Q R m m { S 5 L T _ E m U G m m m V W %               ",
"        % a X Y m S 5 Z m m ` m U g  ...m +.@.#.% $.$.$.        ",
"      0 % 4 ~ b %.d e m m m m U r s z &.*.=.#.-.% 0 0 $.        ",
"0 0 0 . % ;.>.c ,.w 7 M m m U r '.z ).*.!.~.-.{.% . 0 $.        ",
". . . . % >.{ ].w ^.( f E U /.s '.).*.=.~.-.(._.% . 0 $.        ",
"      A % :.].^ / <._ y < 9 s '.I [.P }.|.1._.2.% . 0 $.        ",
"        % S w / D 3.y 4.9 5.'.6.O P ~.#.1.7.2.8.% . 0 $.        ",
"        $ 5 / D _ f < 9 9.'.0.[.a.}.#.1.(.2.b.c.$ $.$.$.        ",
"        # $ % % % % % % % % % % % % % % % % % $ #               ",
"                                                                ",
"                                                                ",
"                                                                ",
"                                                                ",
"                                                                ",
"                                                                ",
"                                                                "};
