/* XPM */
static char * usbDevice_unplugged_xpm[] = {
"32 32 132 2",
"  	c None",
". 	c #000000",
"+ 	c #666666",
"@ 	c #B2B2B2",
"# 	c #7F7F7F",
"$ 	c #868686",
"% 	c #D35649",
"& 	c #D53828",
"* 	c #D81400",
"= 	c #FF3838",
"- 	c #FF3636",
"; 	c #FF3535",
"> 	c #FF3333",
", 	c #FF3231",
"' 	c #FF2F2F",
") 	c #FF2E2E",
"! 	c #FF2D2D",
"~ 	c #FF2B2A",
"{ 	c #FF2929",
"] 	c #FF3737",
"^ 	c #FF3435",
"/ 	c #FF3232",
"( 	c #FF3030",
"_ 	c #FF2C2D",
": 	c #FF2B2B",
"< 	c #FF2A2A",
"[ 	c #FF2828",
"} 	c #FF2020",
"| 	c #E5E5E5",
"1 	c #FF2C2B",
"2 	c #FF2726",
"3 	c #FF1E1E",
"4 	c #FF1D1D",
"5 	c #FF3334",
"6 	c #FF3132",
"7 	c #FF3130",
"8 	c #FF2F2E",
"9 	c #FF2E2D",
"0 	c #FF2627",
"a 	c #FF2525",
"b 	c #FF2323",
"c 	c #FF2221",
"d 	c #FF1F1E",
"e 	c #FF1B1C",
"f 	c #FF1A1A",
"g 	c #FF1918",
"h 	c #FF1717",
"i 	c #CC2424",
"j 	c #FF2C2C",
"k 	c #CC1C1C",
"l 	c #FF2222",
"m 	c #FF1F1F",
"n 	c #FF1E1D",
"o 	c #FF1C1C",
"p 	c #FF1515",
"q 	c #999999",
"r 	c #FF3131",
"s 	c #CC191A",
"t 	c #FF201F",
"u 	c #CC1616",
"v 	c #820D0D",
"w 	c #680909",
"x 	c #CC1010",
"y 	c #FF1414",
"z 	c #FF2827",
"A 	c #FF2526",
"B 	c #FF2425",
"C 	c #FF2322",
"D 	c #CC1A1A",
"E 	c #CC1818",
"F 	c #FF1D1C",
"G 	c #680808",
"H 	c #FF1313",
"I 	c #FF1111",
"J 	c #FF2D2C",
"K 	c #CC2222",
"L 	c #FF2626",
"M 	c #FF2524",
"N 	c #CC1919",
"O 	c #CC1414",
"P 	c #530505",
"Q 	c #FF0F10",
"R 	c #FF2A29",
"S 	c #CC2020",
"T 	c #CC1B1B",
"U 	c #CC1717",
"V 	c #FF1818",
"W 	c #CC1212",
"X 	c #820A0A",
"Y 	c #820809",
"Z 	c #CC0C0C",
"` 	c #FF0E0E",
" .	c #CC1D1D",
"..	c #FF2324",
"+.	c #FF1314",
"@.	c #FF1212",
"#.	c #FF1110",
"$.	c #FF0D0D",
"%.	c #FF2928",
"&.	c #FF2727",
"*.	c #FF2423",
"=.	c #FF1616",
"-.	c #FF1413",
";.	c #FF1011",
">.	c #FF0F0F",
",.	c #FF0C0B",
"'.	c #FF2424",
").	c #FF2120",
"!.	c #FF1819",
"~.	c #FF0B0B",
"{.	c #FF0A0A",
"].	c #FF2625",
"^.	c #FF2121",
"/.	c #FF1F20",
"(.	c #FF1B1B",
"_.	c #FF1919",
":.	c #FF1213",
"<.	c #FF100F",
"[.	c #FF0D0E",
"}.	c #FF0C0C",
"|.	c #FF0909",
"1.	c #FF1D1E",
"2.	c #FF1B1A",
"3.	c #FF1817",
"4.	c #FF1514",
"5.	c #FF0A0B",
"6.	c #FF0807",
"7.	c #FF1718",
"8.	c #FF1415",
"9.	c #FF1211",
"0.	c #FF0808",
"a.	c #FF0606",
"                                                                ",
"                                                                ",
"                              . . +       + . .                 ",
"                              . . . +   + . . .                 ",
"                              + . . . + . . . +                 ",
"                                + . . . . . +               @ # ",
"                                  + . . . +                 # $ ",
"        % & * * * * * * * * * * + . . . . . + & %           # @ ",
"        & = - ; > , ' ) ! ~ { + . . . + . . . + &           # @ ",
"        * ] ^ > / ( ) _ : < [ . . . + } + . . . *         @ # @ ",
"      | * ; > / ( ) ! 1 < [ 2 . . + } 3 4 + . . * # # # @ # @   ",
"| | | @ * 5 6 7 8 9 . . . 0 a b c } d 4 e f g h * # # # # @     ",
"@ @ @ @ * / 7 ' i j . . . . k l } m n o f g h p * # # #         ",
"      q * r ' i . ~ . . . k . s t 3 u v . w x y *               ",
"        * ( i . . { z A B C D . E F v . . . G H *               ",
"        * i . . . . . . . . . . . . . . . . . I *               ",
"        * J K . . L M b D N 3 u . O w . . . P Q *               ",
"        * 1 R S . M b T . . U . O V W X . Y Z ` * + + +         ",
"      | * < [ 2  ...c . . . . O g h p +.@.#.` $.* | | +         ",
"| | | @ * %.&.a *.l } E . . O g =.p -.@.;.>.$.,.* @ | +         ",
"@ @ @ @ * &.L '.l ).m 4 u O !.h =.-.@.#.>.$.~.{.* @ | +         ",
"      q * ].'.C ^./.3 o (._.h =.y :.I <.[.}.{.|.* @ | +         ",
"        * M l ^.t 1.o 2._.3.=.4.H I >.` }.5.|.6.* @ | +         ",
"        & b ^.t 3 4 (._.7.=.8.:.9.<.` }.~.|.0.a.& + + +         ",
"        % & * * * * * * * * * * * * * * * * * & %               ",
"                                                                ",
"                                                                ",
"                                                                ",
"                                                                ",
"                                                                ",
"                                                                ",
"                                                                "};
